<?xml version="1.0" encoding="utf-8" standalone="no"?>
<!DOCTYPE svg PUBLIC "-//W3C//DTD SVG 1.1//EN"
  "http://www.w3.org/Graphics/SVG/1.1/DTD/svg11.dtd">
<svg xmlns:xlink="http://www.w3.org/1999/xlink" width="522.17375pt" height="363.035781pt" viewBox="0 0 522.17375 363.035781" xmlns="http://www.w3.org/2000/svg" version="1.1">
 <metadata>
  <rdf:RDF xmlns:dc="http://purl.org/dc/elements/1.1/" xmlns:cc="http://creativecommons.org/ns#" xmlns:rdf="http://www.w3.org/1999/02/22-rdf-syntax-ns#">
   <cc:Work>
    <dc:type rdf:resource="http://purl.org/dc/dcmitype/StillImage"/>
    <dc:date>2025-08-11T13:08:43.780648</dc:date>
    <dc:format>image/svg+xml</dc:format>
    <dc:creator>
     <cc:Agent>
      <dc:title>Matplotlib v3.10.5, https://matplotlib.org/</dc:title>
     </cc:Agent>
    </dc:creator>
   </cc:Work>
  </rdf:RDF>
 </metadata>
 <defs>
  <style type="text/css">*{stroke-linejoin: round; stroke-linecap: butt}</style>
 </defs>
 <g id="figure_1">
  <g id="patch_1">
   <path d="M 0 363.035781 
L 522.17375 363.035781 
L 522.17375 0 
L 0 0 
z
" style="fill: #ffffff"/>
  </g>
  <g id="axes_1">
   <g id="patch_2">
    <path d="M 63.785 316.613281 
L 510.185 316.613281 
L 510.185 44.813281 
L 63.785 44.813281 
z
" style="fill: #ffffff"/>
   </g>
   <g id="PathCollection_1">
    <defs>
     <path id="m34a43416e7" d="M 0 2.738613 
C 0.726289 2.738613 1.422928 2.450055 1.936492 1.936492 
C 2.450055 1.422928 2.738613 0.726289 2.738613 0 
C 2.738613 -0.726289 2.450055 -1.422928 1.936492 -1.936492 
C 1.422928 -2.450055 0.726289 -2.738613 0 -2.738613 
C -0.726289 -2.738613 -1.422928 -2.450055 -1.936492 -1.936492 
C -2.450055 -1.422928 -2.738613 -0.726289 -2.738613 0 
C -2.738613 0.726289 -2.450055 1.422928 -1.936492 1.936492 
C -1.422928 2.450055 -0.726289 2.738613 0 2.738613 
z
" style="stroke: #000000"/>
    </defs>
    <g clip-path="url(#p8d4fd81a48)">
     <use xlink:href="#m34a43416e7" x="86.105" y="303.023281" style="stroke: #000000"/>
     <use xlink:href="#m34a43416e7" x="93.545" y="282.638281" style="stroke: #000000"/>
     <use xlink:href="#m34a43416e7" x="100.985" y="289.433281" style="stroke: #000000"/>
     <use xlink:href="#m34a43416e7" x="108.425" y="282.638281" style="stroke: #000000"/>
     <use xlink:href="#m34a43416e7" x="123.305" y="289.433281" style="stroke: #000000"/>
     <use xlink:href="#m34a43416e7" x="130.745" y="173.918281" style="stroke: #000000"/>
     <use xlink:href="#m34a43416e7" x="138.185" y="180.713281" style="stroke: #000000"/>
     <use xlink:href="#m34a43416e7" x="145.625" y="119.558281" style="stroke: #000000"/>
     <use xlink:href="#m34a43416e7" x="153.065" y="228.278281" style="stroke: #000000"/>
     <use xlink:href="#m34a43416e7" x="160.505" y="194.303281" style="stroke: #000000"/>
     <use xlink:href="#m34a43416e7" x="167.945" y="194.303281" style="stroke: #000000"/>
     <use xlink:href="#m34a43416e7" x="175.385" y="99.173281" style="stroke: #000000"/>
     <use xlink:href="#m34a43416e7" x="182.825" y="71.993281" style="stroke: #000000"/>
     <use xlink:href="#m34a43416e7" x="190.265" y="10.838281" style="stroke: #000000"/>
     <use xlink:href="#m34a43416e7" x="197.705" y="119.558281" style="stroke: #000000"/>
     <use xlink:href="#m34a43416e7" x="205.145" y="85.583281" style="stroke: #000000"/>
     <use xlink:href="#m34a43416e7" x="212.585" y="133.148281" style="stroke: #000000"/>
     <use xlink:href="#m34a43416e7" x="220.025" y="228.278281" style="stroke: #000000"/>
     <use xlink:href="#m34a43416e7" x="227.465" y="58.403281" style="stroke: #000000"/>
     <use xlink:href="#m34a43416e7" x="234.905" y="133.148281" style="stroke: #000000"/>
     <use xlink:href="#m34a43416e7" x="242.345" y="160.328281" style="stroke: #000000"/>
     <use xlink:href="#m34a43416e7" x="249.785" y="146.738281" style="stroke: #000000"/>
     <use xlink:href="#m34a43416e7" x="257.225" y="99.173281" style="stroke: #000000"/>
     <use xlink:href="#m34a43416e7" x="264.665" y="207.893281" style="stroke: #000000"/>
     <use xlink:href="#m34a43416e7" x="272.105" y="228.278281" style="stroke: #000000"/>
     <use xlink:href="#m34a43416e7" x="279.545" y="207.893281" style="stroke: #000000"/>
     <use xlink:href="#m34a43416e7" x="286.985" y="160.328281" style="stroke: #000000"/>
     <use xlink:href="#m34a43416e7" x="294.425" y="241.868281" style="stroke: #000000"/>
     <use xlink:href="#m34a43416e7" x="301.865" y="173.918281" style="stroke: #000000"/>
     <use xlink:href="#m34a43416e7" x="309.305" y="241.868281" style="stroke: #000000"/>
     <use xlink:href="#m34a43416e7" x="316.745" y="194.303281" style="stroke: #000000"/>
     <use xlink:href="#m34a43416e7" x="324.185" y="228.278281" style="stroke: #000000"/>
     <use xlink:href="#m34a43416e7" x="331.625" y="241.868281" style="stroke: #000000"/>
     <use xlink:href="#m34a43416e7" x="339.065" y="282.638281" style="stroke: #000000"/>
     <use xlink:href="#m34a43416e7" x="346.505" y="269.048281" style="stroke: #000000"/>
     <use xlink:href="#m34a43416e7" x="353.945" y="282.638281" style="stroke: #000000"/>
     <use xlink:href="#m34a43416e7" x="361.385" y="255.458281" style="stroke: #000000"/>
     <use xlink:href="#m34a43416e7" x="368.825" y="241.868281" style="stroke: #000000"/>
     <use xlink:href="#m34a43416e7" x="376.265" y="282.638281" style="stroke: #000000"/>
     <use xlink:href="#m34a43416e7" x="383.705" y="207.893281" style="stroke: #000000"/>
     <use xlink:href="#m34a43416e7" x="391.145" y="289.433281" style="stroke: #000000"/>
     <use xlink:href="#m34a43416e7" x="398.585" y="269.048281" style="stroke: #000000"/>
     <use xlink:href="#m34a43416e7" x="406.025" y="282.638281" style="stroke: #000000"/>
     <use xlink:href="#m34a43416e7" x="413.465" y="289.433281" style="stroke: #000000"/>
     <use xlink:href="#m34a43416e7" x="420.905" y="194.303281" style="stroke: #000000"/>
     <use xlink:href="#m34a43416e7" x="428.345" y="282.638281" style="stroke: #000000"/>
     <use xlink:href="#m34a43416e7" x="435.785" y="303.023281" style="stroke: #000000"/>
     <use xlink:href="#m34a43416e7" x="443.225" y="255.458281" style="stroke: #000000"/>
     <use xlink:href="#m34a43416e7" x="450.665" y="303.023281" style="stroke: #000000"/>
     <use xlink:href="#m34a43416e7" x="458.105" y="289.433281" style="stroke: #000000"/>
     <use xlink:href="#m34a43416e7" x="465.545" y="289.433281" style="stroke: #000000"/>
     <use xlink:href="#m34a43416e7" x="472.985" y="289.433281" style="stroke: #000000"/>
     <use xlink:href="#m34a43416e7" x="480.425" y="303.023281" style="stroke: #000000"/>
     <use xlink:href="#m34a43416e7" x="487.865" y="269.048281" style="stroke: #000000"/>
     <use xlink:href="#m34a43416e7" x="495.305" y="289.433281" style="stroke: #000000"/>
     <use xlink:href="#m34a43416e7" x="502.745" y="269.048281" style="stroke: #000000"/>
    </g>
   </g>
   <g id="FillBetweenPolyCollection_1">
    <path d="M 86.105 295.882664 
L 86.105 341.274603 
L 88.198668 333.983445 
L 90.292337 326.858167 
L 92.386005 319.897304 
L 94.479673 313.099388 
L 96.573342 306.462954 
L 98.66701 299.986537 
L 100.760678 293.66867 
L 102.854347 287.507889 
L 104.948015 281.502729 
L 107.041683 275.651725 
L 109.135352 269.953413 
L 111.22902 264.406329 
L 113.322688 259.00901 
L 115.416357 253.759992 
L 117.510025 248.657814 
L 119.603693 243.701012 
L 121.697362 238.888124 
L 123.79103 234.217689 
L 125.884698 229.688246 
L 127.978367 225.298335 
L 130.072035 221.046494 
L 132.165704 216.931265 
L 134.259372 212.951187 
L 136.35304 209.104803 
L 138.446709 205.390653 
L 140.540377 201.80728 
L 142.634045 198.353227 
L 144.727714 195.027037 
L 146.821382 191.827254 
L 148.91505 188.752422 
L 151.008719 185.801087 
L 153.102387 182.971794 
L 155.196055 180.263089 
L 157.289724 177.673519 
L 159.383392 175.201632 
L 161.47706 172.845975 
L 163.570729 170.605099 
L 165.664397 168.477552 
L 167.758065 166.461885 
L 169.851734 164.556649 
L 171.945402 162.760396 
L 174.03907 161.071678 
L 176.132739 159.489048 
L 178.226407 158.011062 
L 180.320075 156.636273 
L 182.413744 155.363237 
L 184.507412 154.190512 
L 186.60108 153.116654 
L 188.694749 152.140221 
L 190.788417 151.259774 
L 192.882085 150.473871 
L 194.975754 149.781073 
L 197.069422 149.179943 
L 199.16309 148.669042 
L 201.256759 148.246933 
L 203.350427 147.912182 
L 205.444095 147.663353 
L 207.537764 147.499012 
L 209.631432 147.417725 
L 211.725101 147.41806 
L 213.818769 147.498585 
L 215.912437 147.657869 
L 218.006106 147.894481 
L 220.099774 148.206992 
L 222.193442 148.593973 
L 224.287111 149.053994 
L 226.380779 149.585629 
L 228.474447 150.18745 
L 230.568116 150.858029 
L 232.661784 151.595939 
L 234.755452 152.399755 
L 236.849121 153.268049 
L 238.942789 154.199396 
L 241.036457 155.192369 
L 243.130126 156.245542 
L 245.223794 157.357489 
L 247.317462 158.526783 
L 249.411131 159.751996 
L 251.504799 161.0317 
L 253.598467 162.364468 
L 255.692136 163.74887 
L 257.785804 165.183476 
L 259.879472 166.666855 
L 261.973141 168.197573 
L 264.066809 169.774199 
L 266.160477 171.395296 
L 268.254146 173.059427 
L 270.347814 174.765154 
L 272.441482 176.511037 
L 274.535151 178.295632 
L 276.628819 180.117496 
L 278.722487 181.975182 
L 280.816156 183.867239 
L 282.909824 185.792216 
L 285.003492 187.74866 
L 287.097161 189.735112 
L 289.190829 191.750112 
L 291.284497 193.792199 
L 293.378166 195.859905 
L 295.471834 197.951764 
L 297.565503 200.066302 
L 299.659171 202.202045 
L 301.752839 204.357516 
L 303.846508 206.531235 
L 305.940176 208.721716 
L 308.033844 210.927474 
L 310.127513 213.147019 
L 312.221181 215.378859 
L 314.314849 217.621499 
L 316.408518 219.87344 
L 318.502186 222.133183 
L 320.595854 224.399223 
L 322.689523 226.670057 
L 324.783191 228.944175 
L 326.876859 231.220069 
L 328.970528 233.496226 
L 331.064196 235.771133 
L 333.157864 238.043273 
L 335.251533 240.311131 
L 337.345201 242.573187 
L 339.438869 244.827921 
L 341.532538 247.073812 
L 343.626206 249.309338 
L 345.719874 251.532975 
L 347.813543 253.7432 
L 349.907211 255.938488 
L 352.000879 258.117314 
L 354.094548 260.278152 
L 356.188216 262.419477 
L 358.281884 264.539761 
L 360.375553 266.63748 
L 362.469221 268.711106 
L 364.562889 270.759113 
L 366.656558 272.779976 
L 368.750226 274.772169 
L 370.843894 276.734167 
L 372.937563 278.664445 
L 375.031231 280.561477 
L 377.124899 282.423741 
L 379.218568 284.249713 
L 381.312236 286.03787 
L 383.405905 287.78669 
L 385.499573 289.494652 
L 387.593241 291.160235 
L 389.68691 292.781919 
L 391.780578 294.358185 
L 393.874246 295.887515 
L 395.967915 297.368391 
L 398.061583 298.799297 
L 400.155251 300.178717 
L 402.24892 301.505136 
L 404.342588 302.77704 
L 406.436256 303.992915 
L 408.529925 305.151249 
L 410.623593 306.250531 
L 412.717261 307.28925 
L 414.81093 308.265896 
L 416.904598 309.178959 
L 418.998266 310.026933 
L 421.091935 310.808308 
L 423.185603 311.521579 
L 425.279271 312.165241 
L 427.37294 312.737786 
L 429.466608 313.237713 
L 431.560276 313.663516 
L 433.653945 314.013693 
L 435.747613 314.286743 
L 437.841281 314.481163 
L 439.93495 314.595453 
L 442.028618 314.628112 
L 444.122286 314.577643 
L 446.215955 314.442545 
L 448.309623 314.22132 
L 450.403291 313.912472 
L 452.49696 313.514503 
L 454.590628 313.025917 
L 456.684296 312.445218 
L 458.777965 311.770911 
L 460.871633 311.001501 
L 462.965302 310.135494 
L 465.05897 309.171396 
L 467.152638 308.107715 
L 469.246307 306.942957 
L 471.339975 305.675631 
L 473.433643 304.304244 
L 475.527312 302.827305 
L 477.62098 301.243323 
L 479.714648 299.550808 
L 481.808317 297.74827 
L 483.901985 295.834218 
L 485.995653 293.807164 
L 488.089322 291.665619 
L 490.18299 289.408094 
L 492.276658 287.0331 
L 494.370327 284.53915 
L 496.463995 281.924756 
L 498.557663 279.188431 
L 500.651332 276.328687 
L 502.745 273.344039 
L 502.745 228.978798 
L 502.745 228.978798 
L 500.651332 232.298755 
L 498.557663 235.492901 
L 496.463995 238.562701 
L 494.370327 241.509621 
L 492.276658 244.335126 
L 490.18299 247.040681 
L 488.089322 249.627751 
L 485.995653 252.097799 
L 483.901985 254.452289 
L 481.808317 256.692685 
L 479.714648 258.82045 
L 477.62098 260.837047 
L 475.527312 262.743938 
L 473.433643 264.542585 
L 471.339975 266.234449 
L 469.246307 267.820992 
L 467.152638 269.303674 
L 465.05897 270.683956 
L 462.965302 271.963297 
L 460.871633 273.143156 
L 458.777965 274.224993 
L 456.684296 275.210265 
L 454.590628 276.10043 
L 452.49696 276.896946 
L 450.403291 277.601269 
L 448.309623 278.214856 
L 446.215955 278.739161 
L 444.122286 279.17564 
L 442.028618 279.525748 
L 439.93495 279.790937 
L 437.841281 279.972661 
L 435.747613 280.072372 
L 433.653945 280.091523 
L 431.560276 280.031563 
L 429.466608 279.893944 
L 427.37294 279.680115 
L 425.279271 279.391525 
L 423.185603 279.029622 
L 421.091935 278.595854 
L 418.998266 278.091667 
L 416.904598 277.518507 
L 414.81093 276.877818 
L 412.717261 276.171046 
L 410.623593 275.399634 
L 408.529925 274.565024 
L 406.436256 273.668657 
L 404.342588 272.711976 
L 402.24892 271.696419 
L 400.155251 270.623427 
L 398.061583 269.494436 
L 395.967915 268.310886 
L 393.874246 267.074212 
L 391.780578 265.78585 
L 389.68691 264.447236 
L 387.593241 263.059802 
L 385.499573 261.624984 
L 383.405905 260.144213 
L 381.312236 258.618921 
L 379.218568 257.050539 
L 377.124899 255.440498 
L 375.031231 253.790227 
L 372.937563 252.101156 
L 370.843894 250.374712 
L 368.750226 248.612324 
L 366.656558 246.81542 
L 364.562889 244.985425 
L 362.469221 243.123769 
L 360.375553 241.231876 
L 358.281884 239.311173 
L 356.188216 237.363086 
L 354.094548 235.389042 
L 352.000879 233.390467 
L 349.907211 231.368787 
L 347.813543 229.325429 
L 345.719874 227.261821 
L 343.626206 225.17939 
L 341.532538 223.079564 
L 339.438869 220.963774 
L 337.345201 218.833449 
L 335.251533 216.69002 
L 333.157864 214.53492 
L 331.064196 212.369583 
L 328.970528 210.195444 
L 326.876859 208.01394 
L 324.783191 205.826509 
L 322.689523 203.634592 
L 320.595854 201.439632 
L 318.502186 199.243074 
L 316.408518 197.046364 
L 314.314849 194.850952 
L 312.221181 192.65829 
L 310.127513 190.469832 
L 308.033844 188.287036 
L 305.940176 186.111362 
L 303.846508 183.944273 
L 301.752839 181.787234 
L 299.659171 179.641714 
L 297.565503 177.509186 
L 295.471834 175.391123 
L 293.378166 173.289004 
L 291.284497 171.20431 
L 289.190829 169.138523 
L 287.097161 167.093132 
L 285.003492 165.069625 
L 282.909824 163.069496 
L 280.816156 161.094239 
L 278.722487 159.145353 
L 276.628819 157.224338 
L 274.535151 155.332697 
L 272.441482 153.471936 
L 270.347814 151.643563 
L 268.254146 149.849087 
L 266.160477 148.09002 
L 264.066809 146.367877 
L 261.973141 144.684173 
L 259.879472 143.040425 
L 257.785804 141.438152 
L 255.692136 139.878874 
L 253.598467 138.364112 
L 251.504799 136.895388 
L 249.411131 135.474227 
L 247.317462 134.102151 
L 245.223794 132.780685 
L 243.130126 131.511355 
L 241.036457 130.295686 
L 238.942789 129.135205 
L 236.849121 128.031437 
L 234.755452 126.985908 
L 232.661784 126.000146 
L 230.568116 125.075675 
L 228.474447 124.214022 
L 226.380779 123.416712 
L 224.287111 122.685271 
L 222.193442 122.021224 
L 220.099774 121.426095 
L 218.006106 120.901408 
L 215.912437 120.448687 
L 213.818769 120.069453 
L 211.725101 119.76523 
L 209.631432 119.537538 
L 207.537764 119.387899 
L 205.444095 119.317831 
L 203.350427 119.328854 
L 201.256759 119.422487 
L 199.16309 119.600246 
L 197.069422 119.863649 
L 194.975754 120.21421 
L 192.882085 120.653446 
L 190.788417 121.18287 
L 188.694749 121.803995 
L 186.60108 122.518334 
L 184.507412 123.327397 
L 182.413744 124.232697 
L 180.320075 125.235743 
L 178.226407 126.338043 
L 176.132739 127.541106 
L 174.03907 128.846439 
L 171.945402 130.25555 
L 169.851734 131.769943 
L 167.758065 133.391123 
L 165.664397 135.120596 
L 163.570729 136.959864 
L 161.47706 138.91043 
L 159.383392 140.973797 
L 157.289724 143.151465 
L 155.196055 145.444936 
L 153.102387 147.855709 
L 151.008719 150.385284 
L 148.91505 153.035159 
L 146.821382 155.806833 
L 144.727714 158.701802 
L 142.634045 161.721565 
L 140.540377 164.867617 
L 138.446709 168.141453 
L 136.35304 171.54457 
L 134.259372 175.078462 
L 132.165704 178.744622 
L 130.072035 182.544545 
L 127.978367 186.479724 
L 125.884698 190.551652 
L 123.79103 194.761819 
L 121.697362 199.11172 
L 119.603693 203.602844 
L 117.510025 208.236682 
L 115.416357 213.014726 
L 113.322688 217.938465 
L 111.22902 223.009388 
L 109.135352 228.228986 
L 107.041683 233.598747 
L 104.948015 239.12016 
L 102.854347 244.794713 
L 100.760678 250.623894 
L 98.66701 256.60919 
L 96.573342 262.75209 
L 94.479673 269.054079 
L 92.386005 275.516645 
L 90.292337 282.141273 
L 88.198668 288.929451 
L 86.105 295.882664 
z
" clip-path="url(#p8d4fd81a48)" style="fill-opacity: 0.1"/>
   </g>
   <g id="FillBetweenPolyCollection_2">
    <path d="M 237.297764 316.613281 
L 177.777764 316.613281 
L 177.777764 44.813281 
L 237.297764 44.813281 
L 237.297764 44.813281 
L 237.297764 316.613281 
z
" clip-path="url(#p8d4fd81a48)" style="fill: #ff0000; fill-opacity: 0.2"/>
   </g>
   <g id="matplotlib.axis_1">
    <g id="xtick_1">
     <g id="line2d_1">
      <defs>
       <path id="md0410e9a12" d="M 0 0 
L 0 3.5 
" style="stroke: #000000; stroke-width: 1.5"/>
      </defs>
      <g>
       <use xlink:href="#md0410e9a12" x="63.785" y="316.613281" style="stroke: #000000; stroke-width: 1.5"/>
      </g>
     </g>
     <g id="text_1">
      <!-- 0 -->
      <g transform="translate(58.93375 334.885781) scale(0.16 -0.16)">
       <defs>
        <path id="SFProDisplay-Regular-30" d="M 1944 -75 
Q 1159 -75 720 551 
Q 281 1178 281 2256 
Q 281 3325 723 3954 
Q 1166 4584 1944 4584 
Q 2722 4584 3161 3957 
Q 3600 3331 3600 2259 
Q 3600 1181 3162 553 
Q 2725 -75 1944 -75 
z
M 1134 909 
Q 1422 416 1944 416 
Q 2466 416 2750 908 
Q 3034 1400 3034 2256 
Q 3034 3100 2746 3595 
Q 2459 4091 1943 4091 
Q 1428 4091 1137 3594 
Q 847 3097 847 2259 
Q 847 1403 1134 909 
z
" transform="scale(0.015625)"/>
       </defs>
       <use xlink:href="#SFProDisplay-Regular-30"/>
      </g>
     </g>
    </g>
    <g id="xtick_2">
     <g id="line2d_2">
      <g>
       <use xlink:href="#md0410e9a12" x="138.185" y="316.613281" style="stroke: #000000; stroke-width: 1.5"/>
      </g>
     </g>
     <g id="text_2">
      <!-- 1 -->
      <g transform="translate(134.6375 334.885781) scale(0.16 -0.16)">
       <defs>
        <path id="SFProDisplay-Regular-31" d="M 1516 0 
L 1516 3913 
L 1503 3913 
L 309 3053 
L 309 3647 
L 1509 4509 
L 2059 4509 
L 2059 0 
L 1516 0 
z
" transform="scale(0.015625)"/>
       </defs>
       <use xlink:href="#SFProDisplay-Regular-31"/>
      </g>
     </g>
    </g>
    <g id="xtick_3">
     <g id="line2d_3">
      <g>
       <use xlink:href="#md0410e9a12" x="212.585" y="316.613281" style="stroke: #000000; stroke-width: 1.5"/>
      </g>
     </g>
     <g id="text_3">
      <!-- 2 -->
      <g transform="translate(208.0575 334.885781) scale(0.16 -0.16)">
       <defs>
        <path id="SFProDisplay-Regular-32" d="M 338 3209 
Q 338 3800 763 4192 
Q 1188 4584 1825 4584 
Q 2428 4584 2847 4225 
Q 3266 3866 3266 3347 
Q 3266 2972 3059 2625 
Q 2853 2278 2284 1691 
L 1144 513 
L 1144 500 
L 3341 500 
L 3341 0 
L 366 0 
L 366 388 
L 1953 2059 
Q 2406 2538 2554 2784 
Q 2703 3031 2703 3313 
Q 2703 3638 2442 3866 
Q 2181 4094 1809 4094 
Q 1413 4094 1147 3841 
Q 881 3588 881 3209 
L 881 3206 
L 338 3206 
L 338 3209 
z
" transform="scale(0.015625)"/>
       </defs>
       <use xlink:href="#SFProDisplay-Regular-32"/>
      </g>
     </g>
    </g>
    <g id="xtick_4">
     <g id="line2d_4">
      <g>
       <use xlink:href="#md0410e9a12" x="286.985" y="316.613281" style="stroke: #000000; stroke-width: 1.5"/>
      </g>
     </g>
     <g id="text_4">
      <!-- 3 -->
      <g transform="translate(282.25 334.885781) scale(0.16 -0.16)">
       <defs>
        <path id="SFProDisplay-Regular-33" d="M 1284 2081 
L 1284 2556 
L 1825 2556 
Q 2213 2556 2459 2779 
Q 2706 3003 2706 3347 
Q 2706 3691 2478 3894 
Q 2250 4097 1831 4097 
Q 1444 4097 1200 3890 
Q 956 3684 919 3328 
L 378 3328 
Q 425 3903 823 4243 
Q 1222 4584 1856 4584 
Q 2466 4584 2869 4256 
Q 3272 3928 3272 3422 
Q 3272 3000 3022 2712 
Q 2772 2425 2347 2350 
L 2347 2338 
Q 2859 2306 3162 2011 
Q 3466 1716 3466 1241 
Q 3466 863 3253 559 
Q 3041 256 2678 90 
Q 2316 -75 1875 -75 
Q 1175 -75 747 275 
Q 319 625 288 1194 
L 828 1194 
Q 866 841 1144 627 
Q 1422 413 1869 413 
Q 2316 413 2605 641 
Q 2894 869 2894 1222 
Q 2894 1619 2614 1850 
Q 2334 2081 1850 2081 
L 1284 2081 
z
" transform="scale(0.015625)"/>
       </defs>
       <use xlink:href="#SFProDisplay-Regular-33"/>
      </g>
     </g>
    </g>
    <g id="xtick_5">
     <g id="line2d_5">
      <g>
       <use xlink:href="#md0410e9a12" x="361.385" y="316.613281" style="stroke: #000000; stroke-width: 1.5"/>
      </g>
     </g>
     <g id="text_5">
      <!-- 4 -->
      <g transform="translate(356.545 334.885781) scale(0.16 -0.16)">
       <defs>
        <path id="SFProDisplay-Regular-34" d="M 2509 0 
L 2509 938 
L 244 938 
L 244 1447 
Q 534 1988 982 2681 
Q 1431 3375 2222 4509 
L 3053 4509 
L 3053 1431 
L 3691 1431 
L 3691 938 
L 3053 938 
L 3053 0 
L 2509 0 
z
M 800 1444 
L 800 1431 
L 2509 1431 
L 2509 4041 
L 2500 4041 
Q 1316 2350 800 1444 
z
" transform="scale(0.015625)"/>
       </defs>
       <use xlink:href="#SFProDisplay-Regular-34"/>
      </g>
     </g>
    </g>
    <g id="xtick_6">
     <g id="line2d_6">
      <g>
       <use xlink:href="#md0410e9a12" x="435.785" y="316.613281" style="stroke: #000000; stroke-width: 1.5"/>
      </g>
     </g>
     <g id="text_6">
      <!-- 5 -->
      <g transform="translate(431.105 334.885781) scale(0.16 -0.16)">
       <defs>
        <path id="SFProDisplay-Regular-35" d="M 1916 -75 
Q 1269 -75 836 290 
Q 403 656 369 1231 
L 922 1231 
Q 959 872 1237 645 
Q 1516 419 1922 419 
Q 2381 419 2670 706 
Q 2959 994 2959 1450 
Q 2959 1906 2670 2198 
Q 2381 2491 1931 2491 
Q 1616 2491 1359 2356 
Q 1103 2222 966 1984 
L 438 1984 
L 684 4509 
L 3266 4509 
L 3266 4009 
L 1147 4009 
L 1009 2541 
L 1022 2541 
Q 1175 2744 1442 2859 
Q 1709 2975 2031 2975 
Q 2681 2975 3101 2548 
Q 3522 2122 3522 1466 
Q 3522 788 3072 356 
Q 2622 -75 1916 -75 
z
" transform="scale(0.015625)"/>
       </defs>
       <use xlink:href="#SFProDisplay-Regular-35"/>
      </g>
     </g>
    </g>
    <g id="xtick_7">
     <g id="line2d_7">
      <g>
       <use xlink:href="#md0410e9a12" x="510.185" y="316.613281" style="stroke: #000000; stroke-width: 1.5"/>
      </g>
     </g>
     <g id="text_7">
      <!-- 6 -->
      <g transform="translate(505.39625 334.885781) scale(0.16 -0.16)">
       <defs>
        <path id="SFProDisplay-Regular-36" d="M 1997 -78 
Q 1491 -78 1103 186 
Q 716 450 506 938 
Q 284 1450 284 2178 
Q 284 3319 745 3953 
Q 1206 4588 2034 4588 
Q 2609 4588 3015 4269 
Q 3422 3950 3531 3419 
L 2959 3419 
Q 2869 3725 2616 3908 
Q 2363 4091 2028 4091 
Q 1463 4091 1153 3606 
Q 844 3122 828 2222 
L 838 2222 
Q 991 2553 1334 2753 
Q 1678 2953 2097 2953 
Q 2741 2953 3167 2528 
Q 3594 2103 3594 1463 
Q 3594 794 3142 358 
Q 2691 -78 1997 -78 
z
M 1261 723 
Q 1559 422 1990 422 
Q 2422 422 2722 719 
Q 3022 1016 3022 1444 
Q 3022 1888 2734 2173 
Q 2447 2459 2000 2459 
Q 1553 2459 1258 2175 
Q 963 1891 963 1459 
Q 963 1025 1261 723 
z
" transform="scale(0.015625)"/>
       </defs>
       <use xlink:href="#SFProDisplay-Regular-36"/>
      </g>
     </g>
    </g>
    <g id="text_8">
     <!-- TROPOMI FNR (HCHO/NO$_2$) -->
     <g transform="translate(189.305 353.115781) scale(0.16 -0.16)">
      <defs>
       <path id="SFProDisplay-Regular-54" d="M 2141 0 
L 1578 0 
L 1578 4003 
L 156 4003 
L 156 4509 
L 3563 4509 
L 3563 4003 
L 2141 4003 
L 2141 0 
z
" transform="scale(0.015625)"/>
       <path id="SFProDisplay-Regular-52" d="M 1000 4009 
L 1000 2281 
L 2078 2281 
Q 2513 2281 2748 2506 
Q 2984 2731 2984 3147 
Q 2984 3553 2737 3781 
Q 2491 4009 2053 4009 
L 1000 4009 
z
M 1000 1784 
L 1000 0 
L 438 0 
L 438 4509 
L 2128 4509 
Q 2781 4509 3173 4142 
Q 3566 3775 3566 3166 
Q 3566 2694 3325 2350 
Q 3084 2006 2659 1872 
L 3703 0 
L 3044 0 
L 2078 1784 
L 1000 1784 
z
" transform="scale(0.015625)"/>
       <path id="SFProDisplay-Regular-4f" d="M 822 3956 
Q 1381 4584 2340 4584 
Q 3300 4584 3859 3956 
Q 4419 3328 4419 2253 
Q 4419 1178 3859 551 
Q 3300 -75 2340 -75 
Q 1381 -75 822 551 
Q 263 1178 263 2253 
Q 263 3328 822 3956 
z
M 3436 3577 
Q 3031 4066 2340 4066 
Q 1650 4066 1245 3577 
Q 841 3088 841 2253 
Q 841 1422 1245 933 
Q 1650 444 2340 444 
Q 3031 444 3436 933 
Q 3841 1422 3841 2253 
Q 3841 3088 3436 3577 
z
" transform="scale(0.015625)"/>
       <path id="SFProDisplay-Regular-50" d="M 438 4509 
L 2047 4509 
Q 2681 4509 3086 4104 
Q 3491 3700 3491 3063 
Q 3491 2422 3084 2015 
Q 2678 1609 2041 1609 
L 1000 1609 
L 1000 0 
L 438 0 
L 438 4509 
z
M 1000 4009 
L 1000 2109 
L 1900 2109 
Q 2381 2109 2647 2361 
Q 2913 2613 2913 3063 
Q 2913 3513 2648 3761 
Q 2384 4009 1900 4009 
L 1000 4009 
z
" transform="scale(0.015625)"/>
       <path id="SFProDisplay-Regular-4d" d="M 4881 0 
L 4356 0 
L 4356 3475 
L 4334 3475 
L 2897 31 
L 2422 31 
L 984 3475 
L 963 3475 
L 963 0 
L 438 0 
L 438 4509 
L 1091 4509 
L 2647 747 
L 2672 747 
L 4228 4509 
L 4881 4509 
L 4881 0 
z
" transform="scale(0.015625)"/>
       <path id="SFProDisplay-Regular-49" d="M 1000 0 
L 438 0 
L 438 4509 
L 1000 4509 
L 1000 0 
z
" transform="scale(0.015625)"/>
       <path id="SFProDisplay-Regular-20" transform="scale(0.015625)"/>
       <path id="SFProDisplay-Regular-46" d="M 1000 0 
L 438 0 
L 438 4509 
L 3175 4509 
L 3175 4003 
L 1000 4003 
L 1000 2453 
L 2997 2453 
L 2997 1953 
L 1000 1953 
L 1000 0 
z
" transform="scale(0.015625)"/>
       <path id="SFProDisplay-Regular-4e" d="M 994 0 
L 438 0 
L 438 4509 
L 984 4509 
L 3453 969 
L 3481 969 
L 3481 4509 
L 4038 4509 
L 4038 0 
L 3491 0 
L 1022 3528 
L 994 3528 
L 994 0 
z
" transform="scale(0.015625)"/>
       <path id="SFProDisplay-Regular-28" d="M 1481 -959 
Q 594 169 594 1775 
Q 594 3381 1481 4509 
L 1938 4509 
Q 1603 4122 1375 3331 
Q 1147 2541 1147 1775 
Q 1147 1009 1375 218 
Q 1603 -572 1938 -959 
L 1481 -959 
z
" transform="scale(0.015625)"/>
       <path id="SFProDisplay-Regular-48" d="M 4038 0 
L 3475 0 
L 3475 2053 
L 1000 2053 
L 1000 0 
L 438 0 
L 438 4509 
L 1000 4509 
L 1000 2559 
L 3475 2559 
L 3475 4509 
L 4038 4509 
L 4038 0 
z
" transform="scale(0.015625)"/>
       <path id="SFProDisplay-Regular-43" d="M 2294 -75 
Q 1359 -75 811 554 
Q 263 1184 263 2256 
Q 263 3319 816 3951 
Q 1369 4584 2294 4584 
Q 3031 4584 3545 4173 
Q 4059 3763 4166 3088 
L 3597 3088 
Q 3488 3531 3131 3798 
Q 2775 4066 2294 4066 
Q 1634 4066 1237 3572 
Q 841 3078 841 2256 
Q 841 1425 1234 934 
Q 1628 444 2297 444 
Q 2794 444 3134 672 
Q 3475 900 3597 1313 
L 4166 1313 
Q 4009 644 3525 284 
Q 3041 -75 2294 -75 
z
" transform="scale(0.015625)"/>
       <path id="SFProDisplay-Regular-2f" d="M 466 -959 
L 0 -959 
L 1597 4509 
L 2063 4509 
L 466 -959 
z
" transform="scale(0.015625)"/>
       <path id="DejaVuSans-32" d="M 1228 531 
L 3431 531 
L 3431 0 
L 469 0 
L 469 531 
Q 828 903 1448 1529 
Q 2069 2156 2228 2338 
Q 2531 2678 2651 2914 
Q 2772 3150 2772 3378 
Q 2772 3750 2511 3984 
Q 2250 4219 1831 4219 
Q 1534 4219 1204 4116 
Q 875 4013 500 3803 
L 500 4441 
Q 881 4594 1212 4672 
Q 1544 4750 1819 4750 
Q 2544 4750 2975 4387 
Q 3406 4025 3406 3419 
Q 3406 3131 3298 2873 
Q 3191 2616 2906 2266 
Q 2828 2175 2409 1742 
Q 1991 1309 1228 531 
z
" transform="scale(0.015625)"/>
       <path id="SFProDisplay-Regular-29" d="M 1392 2720 
Q 1469 2284 1469 1775 
Q 1469 1266 1392 830 
Q 1316 394 1175 59 
Q 1034 -275 898 -501 
Q 763 -728 581 -959 
L 125 -959 
Q 241 -825 367 -589 
Q 494 -353 622 -11 
Q 750 331 833 803 
Q 916 1275 916 1775 
Q 916 2275 833 2748 
Q 750 3222 620 3562 
Q 491 3903 366 4139 
Q 241 4375 125 4509 
L 581 4509 
Q 763 4278 898 4051 
Q 1034 3825 1175 3490 
Q 1316 3156 1392 2720 
z
" transform="scale(0.015625)"/>
      </defs>
      <use xlink:href="#SFProDisplay-Regular-54" transform="translate(0 0.375)"/>
      <use xlink:href="#SFProDisplay-Regular-52" transform="translate(58.105469 0.375)"/>
      <use xlink:href="#SFProDisplay-Regular-4f" transform="translate(118.017578 0.375)"/>
      <use xlink:href="#SFProDisplay-Regular-50" transform="translate(191.162109 0.375)"/>
      <use xlink:href="#SFProDisplay-Regular-4f" transform="translate(248.925781 0.375)"/>
      <use xlink:href="#SFProDisplay-Regular-4d" transform="translate(322.070312 0.375)"/>
      <use xlink:href="#SFProDisplay-Regular-49" transform="translate(405.175781 0.375)"/>
      <use xlink:href="#SFProDisplay-Regular-20" transform="translate(427.636719 0.375)"/>
      <use xlink:href="#SFProDisplay-Regular-46" transform="translate(448.144531 0.375)"/>
      <use xlink:href="#SFProDisplay-Regular-4e" transform="translate(500.927734 0.375)"/>
      <use xlink:href="#SFProDisplay-Regular-52" transform="translate(570.849609 0.375)"/>
      <use xlink:href="#SFProDisplay-Regular-20" transform="translate(630.761719 0.375)"/>
      <use xlink:href="#SFProDisplay-Regular-28" transform="translate(651.269531 0.375)"/>
      <use xlink:href="#SFProDisplay-Regular-48" transform="translate(683.496094 0.375)"/>
      <use xlink:href="#SFProDisplay-Regular-43" transform="translate(753.417969 0.375)"/>
      <use xlink:href="#SFProDisplay-Regular-48" transform="translate(822.021484 0.375)"/>
      <use xlink:href="#SFProDisplay-Regular-4f" transform="translate(891.943359 0.375)"/>
      <use xlink:href="#SFProDisplay-Regular-2f" transform="translate(965.087891 0.375)"/>
      <use xlink:href="#SFProDisplay-Regular-4e" transform="translate(997.314453 0.375)"/>
      <use xlink:href="#SFProDisplay-Regular-4f" transform="translate(1067.236328 0.375)"/>
      <use xlink:href="#DejaVuSans-32" transform="translate(1141.337891 -16.03125) scale(0.7)"/>
      <use xlink:href="#SFProDisplay-Regular-29" transform="translate(1188.608398 0.375)"/>
     </g>
    </g>
   </g>
   <g id="matplotlib.axis_2">
    <g id="ytick_1">
     <g id="line2d_8">
      <defs>
       <path id="mfb177f76a2" d="M 0 0 
L -3.5 0 
" style="stroke: #000000; stroke-width: 1.5"/>
      </defs>
      <g>
       <use xlink:href="#mfb177f76a2" x="63.785" y="316.613281" style="stroke: #000000; stroke-width: 1.5"/>
      </g>
     </g>
     <g id="text_9">
      <!-- 0% -->
      <g transform="translate(35.38 322.249531) scale(0.16 -0.16)">
       <defs>
        <path id="SFProDisplay-Regular-25" d="M 1790 4259 
Q 2050 3953 2050 3443 
Q 2050 2934 1790 2628 
Q 1531 2322 1103 2322 
Q 675 2322 415 2628 
Q 156 2934 156 3443 
Q 156 3953 415 4259 
Q 675 4566 1103 4566 
Q 1531 4566 1790 4259 
z
M 776 2901 
Q 897 2703 1103 2703 
Q 1309 2703 1429 2901 
Q 1550 3100 1550 3444 
Q 1550 3788 1429 3986 
Q 1309 4184 1103 4184 
Q 897 4184 776 3986 
Q 656 3788 656 3444 
Q 656 3100 776 2901 
z
M 966 0 
L 422 0 
L 2163 2378 
L 3722 4509 
L 4259 4509 
L 2566 2191 
L 966 0 
z
M 4268 1890 
Q 4528 1584 4528 1075 
Q 4528 566 4268 259 
Q 4009 -47 3581 -47 
Q 3153 -47 2893 259 
Q 2634 566 2634 1075 
Q 2634 1584 2893 1890 
Q 3153 2197 3581 2197 
Q 4009 2197 4268 1890 
z
M 3254 532 
Q 3375 334 3581 334 
Q 3788 334 3908 532 
Q 4028 731 4028 1075 
Q 4028 1419 3908 1617 
Q 3788 1816 3581 1816 
Q 3375 1816 3254 1617 
Q 3134 1419 3134 1075 
Q 3134 731 3254 532 
z
" transform="scale(0.015625)"/>
       </defs>
       <use xlink:href="#SFProDisplay-Regular-30"/>
       <use xlink:href="#SFProDisplay-Regular-25" transform="translate(60.644531 0)"/>
      </g>
     </g>
    </g>
    <g id="ytick_2">
     <g id="line2d_9">
      <g>
       <use xlink:href="#mfb177f76a2" x="63.785" y="248.663281" style="stroke: #000000; stroke-width: 1.5"/>
      </g>
     </g>
     <g id="text_10">
      <!-- 10% -->
      <g transform="translate(28.285 254.299531) scale(0.16 -0.16)">
       <use xlink:href="#SFProDisplay-Regular-31"/>
       <use xlink:href="#SFProDisplay-Regular-30" transform="translate(44.335938 0)"/>
       <use xlink:href="#SFProDisplay-Regular-25" transform="translate(104.980469 0)"/>
      </g>
     </g>
    </g>
    <g id="ytick_3">
     <g id="line2d_10">
      <g>
       <use xlink:href="#mfb177f76a2" x="63.785" y="180.713281" style="stroke: #000000; stroke-width: 1.5"/>
      </g>
     </g>
     <g id="text_11">
      <!-- 20% -->
      <g transform="translate(26.325 186.349531) scale(0.16 -0.16)">
       <use xlink:href="#SFProDisplay-Regular-32"/>
       <use xlink:href="#SFProDisplay-Regular-30" transform="translate(56.591797 0)"/>
       <use xlink:href="#SFProDisplay-Regular-25" transform="translate(117.236328 0)"/>
      </g>
     </g>
    </g>
    <g id="ytick_4">
     <g id="line2d_11">
      <g>
       <use xlink:href="#mfb177f76a2" x="63.785" y="112.763281" style="stroke: #000000; stroke-width: 1.5"/>
      </g>
     </g>
     <g id="text_12">
      <!-- 30% -->
      <g transform="translate(25.91 118.399531) scale(0.16 -0.16)">
       <use xlink:href="#SFProDisplay-Regular-33"/>
       <use xlink:href="#SFProDisplay-Regular-30" transform="translate(59.179688 0)"/>
       <use xlink:href="#SFProDisplay-Regular-25" transform="translate(119.824219 0)"/>
      </g>
     </g>
    </g>
    <g id="ytick_5">
     <g id="line2d_12">
      <g>
       <use xlink:href="#mfb177f76a2" x="63.785" y="44.813281" style="stroke: #000000; stroke-width: 1.5"/>
      </g>
     </g>
     <g id="text_13">
      <!-- 40% -->
      <g transform="translate(25.7 50.449531) scale(0.16 -0.16)">
       <use xlink:href="#SFProDisplay-Regular-34"/>
       <use xlink:href="#SFProDisplay-Regular-30" transform="translate(60.498047 0)"/>
       <use xlink:href="#SFProDisplay-Regular-25" transform="translate(121.142578 0)"/>
      </g>
     </g>
    </g>
    <g id="text_14">
     <!-- Ozone exceedance probability -->
     <g transform="translate(18.66 282.152031) rotate(-90) scale(0.16 -0.16)">
      <defs>
       <path id="SFProDisplay-Regular-7a" d="M 284 0 
L 284 388 
L 2084 2794 
L 2084 2803 
L 288 2803 
L 288 3250 
L 2700 3250 
L 2700 2853 
L 913 456 
L 913 447 
L 2709 447 
L 2709 0 
L 284 0 
z
" transform="scale(0.015625)"/>
       <path id="SFProDisplay-Regular-6f" d="M 1700 -56 
Q 1019 -56 606 398 
Q 194 853 194 1625 
Q 194 2397 606 2851 
Q 1019 3306 1700 3306 
Q 2378 3306 2790 2851 
Q 3203 2397 3203 1625 
Q 3203 856 2790 400 
Q 2378 -56 1700 -56 
z
M 1005 740 
Q 1263 422 1700 422 
Q 2138 422 2394 739 
Q 2650 1056 2650 1625 
Q 2650 2194 2394 2511 
Q 2138 2828 1700 2828 
Q 1263 2828 1005 2509 
Q 747 2191 747 1625 
Q 747 1059 1005 740 
z
" transform="scale(0.015625)"/>
       <path id="SFProDisplay-Regular-6e" d="M 353 0 
L 353 3250 
L 866 3250 
L 866 2731 
L 878 2731 
Q 1019 3003 1281 3154 
Q 1544 3306 1909 3306 
Q 2441 3306 2737 2986 
Q 3034 2666 3034 2109 
L 3034 0 
L 2491 0 
L 2491 2013 
Q 2491 2409 2303 2617 
Q 2116 2825 1744 2825 
Q 1359 2825 1128 2575 
Q 897 2325 897 1913 
L 897 0 
L 353 0 
z
" transform="scale(0.015625)"/>
       <path id="SFProDisplay-Regular-65" d="M 1656 2834 
Q 1278 2834 1029 2573 
Q 781 2313 756 1903 
L 2522 1903 
Q 2513 2316 2275 2575 
Q 2038 2834 1656 2834 
z
M 2509 931 
L 3044 931 
Q 2972 500 2595 222 
Q 2219 -56 1691 -56 
Q 994 -56 594 394 
Q 194 844 194 1613 
Q 194 2375 595 2840 
Q 997 3306 1666 3306 
Q 2322 3306 2703 2865 
Q 3084 2425 3084 1684 
L 3084 1478 
L 753 1478 
L 753 1447 
Q 753 978 1009 697 
Q 1266 416 1703 416 
Q 2009 416 2225 556 
Q 2441 697 2509 931 
z
" transform="scale(0.015625)"/>
       <path id="SFProDisplay-Regular-78" d="M 1503 1238 
L 1491 1238 
L 706 0 
L 103 0 
L 1209 1625 
L 122 3250 
L 728 3250 
L 1509 2031 
L 1522 2031 
L 2294 3250 
L 2900 3250 
L 1803 1647 
L 2884 0 
L 2281 0 
L 1503 1238 
z
" transform="scale(0.015625)"/>
       <path id="SFProDisplay-Regular-63" d="M 3053 2184 
L 2522 2184 
Q 2459 2466 2245 2647 
Q 2031 2828 1691 2828 
Q 1266 2828 1006 2501 
Q 747 2175 747 1625 
Q 747 1066 1008 744 
Q 1269 422 1697 422 
Q 2025 422 2239 586 
Q 2453 750 2525 1047 
L 3059 1047 
Q 2997 559 2620 251 
Q 2244 -56 1694 -56 
Q 1013 -56 603 395 
Q 194 847 194 1625 
Q 194 2391 603 2848 
Q 1013 3306 1688 3306 
Q 2269 3306 2633 2978 
Q 2997 2650 3053 2184 
z
" transform="scale(0.015625)"/>
       <path id="SFProDisplay-Regular-64" d="M 1584 -56 
Q 959 -56 576 403 
Q 194 863 194 1625 
Q 194 2384 575 2845 
Q 956 3306 1572 3306 
Q 1916 3306 2187 3150 
Q 2459 2994 2606 2722 
L 2619 2722 
L 2619 4509 
L 3163 4509 
L 3163 0 
L 2644 0 
L 2644 550 
L 2634 550 
Q 2475 266 2203 105 
Q 1931 -56 1584 -56 
z
M 1688 2828 
Q 1256 2828 1003 2501 
Q 750 2175 750 1625 
Q 750 1072 1003 747 
Q 1256 422 1688 422 
Q 2109 422 2365 751 
Q 2622 1081 2622 1625 
Q 2622 2169 2364 2498 
Q 2106 2828 1688 2828 
z
" transform="scale(0.015625)"/>
       <path id="SFProDisplay-Regular-61" d="M 1425 406 
Q 1809 406 2070 645 
Q 2331 884 2331 1234 
L 2331 1500 
L 1463 1447 
Q 1134 1425 954 1287 
Q 775 1150 775 919 
Q 775 688 953 547 
Q 1131 406 1425 406 
z
M 1303 -56 
Q 819 -56 520 212 
Q 222 481 222 919 
Q 222 1338 530 1588 
Q 838 1838 1400 1869 
L 2331 1922 
L 2331 2194 
Q 2331 2491 2143 2659 
Q 1956 2828 1619 2828 
Q 1309 2828 1115 2692 
Q 922 2556 869 2313 
L 344 2313 
Q 372 2747 720 3026 
Q 1069 3306 1631 3306 
Q 2203 3306 2539 3018 
Q 2875 2731 2875 2247 
L 2875 0 
L 2359 0 
L 2359 559 
L 2347 559 
Q 2200 281 1915 112 
Q 1631 -56 1303 -56 
z
" transform="scale(0.015625)"/>
       <path id="SFProDisplay-Regular-70" d="M 1931 3306 
Q 2556 3306 2939 2847 
Q 3322 2388 3322 1625 
Q 3322 866 2940 405 
Q 2559 -56 1944 -56 
Q 1600 -56 1328 100 
Q 1056 256 909 528 
L 897 528 
L 897 -1084 
L 353 -1084 
L 353 3250 
L 869 3250 
L 869 2700 
L 881 2700 
Q 1034 2981 1309 3143 
Q 1584 3306 1931 3306 
z
M 1825 422 
Q 2259 422 2512 747 
Q 2766 1072 2766 1625 
Q 2766 2178 2512 2503 
Q 2259 2828 1825 2828 
Q 1406 2828 1150 2497 
Q 894 2166 894 1625 
Q 894 1081 1150 751 
Q 1406 422 1825 422 
z
" transform="scale(0.015625)"/>
       <path id="SFProDisplay-Regular-72" d="M 353 0 
L 353 3250 
L 866 3250 
L 866 2719 
L 878 2719 
Q 959 2991 1170 3148 
Q 1381 3306 1666 3306 
Q 1731 3306 1884 3284 
L 1884 2756 
Q 1797 2788 1594 2788 
Q 1278 2788 1087 2578 
Q 897 2369 897 2025 
L 897 0 
L 353 0 
z
" transform="scale(0.015625)"/>
       <path id="SFProDisplay-Regular-62" d="M 1969 -56 
Q 1619 -56 1345 103 
Q 1072 263 913 550 
L 900 550 
L 900 0 
L 381 0 
L 381 4509 
L 925 4509 
L 925 2706 
L 938 2706 
Q 1091 2988 1364 3147 
Q 1638 3306 1978 3306 
Q 2594 3306 2972 2847 
Q 3350 2388 3350 1625 
Q 3350 859 2972 401 
Q 2594 -56 1969 -56 
z
M 1863 2828 
Q 1447 2828 1184 2495 
Q 922 2163 922 1625 
Q 922 1084 1184 753 
Q 1447 422 1863 422 
Q 2294 422 2544 745 
Q 2794 1069 2794 1625 
Q 2794 2178 2544 2503 
Q 2294 2828 1863 2828 
z
" transform="scale(0.015625)"/>
       <path id="SFProDisplay-Regular-69" d="M 381 0 
L 381 3250 
L 925 3250 
L 925 0 
L 381 0 
z
M 653 3797 
Q 516 3797 416 3897 
Q 316 3997 316 4134 
Q 316 4275 416 4373 
Q 516 4472 653 4472 
Q 794 4472 894 4373 
Q 994 4275 994 4134 
Q 994 3997 894 3897 
Q 794 3797 653 3797 
z
" transform="scale(0.015625)"/>
       <path id="SFProDisplay-Regular-6c" d="M 381 0 
L 381 4509 
L 925 4509 
L 925 0 
L 381 0 
z
" transform="scale(0.015625)"/>
       <path id="SFProDisplay-Regular-74" d="M 528 4034 
L 1072 4034 
L 1072 3250 
L 1703 3250 
L 1703 2803 
L 1072 2803 
L 1072 872 
Q 1072 650 1169 545 
Q 1266 441 1475 441 
Q 1606 441 1700 456 
L 1700 0 
Q 1594 -25 1356 -25 
Q 909 -25 718 175 
Q 528 375 528 844 
L 528 2803 
L 44 2803 
L 44 3250 
L 528 3250 
L 528 4034 
z
" transform="scale(0.015625)"/>
       <path id="SFProDisplay-Regular-79" d="M 622 -1216 
Q 478 -1216 388 -1197 
L 388 -741 
Q 463 -756 600 -756 
Q 828 -756 965 -636 
Q 1103 -516 1197 -231 
L 1272 -3 
L 72 3250 
L 653 3250 
L 1553 544 
L 1563 544 
L 2463 3250 
L 3034 3250 
L 1756 -228 
Q 1547 -797 1305 -1006 
Q 1063 -1216 622 -1216 
z
" transform="scale(0.015625)"/>
      </defs>
      <use xlink:href="#SFProDisplay-Regular-4f"/>
      <use xlink:href="#SFProDisplay-Regular-7a" transform="translate(73.144531 0)"/>
      <use xlink:href="#SFProDisplay-Regular-6f" transform="translate(119.921875 0)"/>
      <use xlink:href="#SFProDisplay-Regular-6e" transform="translate(172.998047 0)"/>
      <use xlink:href="#SFProDisplay-Regular-65" transform="translate(225.683594 0)"/>
      <use xlink:href="#SFProDisplay-Regular-20" transform="translate(276.904297 0)"/>
      <use xlink:href="#SFProDisplay-Regular-65" transform="translate(297.412109 0)"/>
      <use xlink:href="#SFProDisplay-Regular-78" transform="translate(348.632812 0)"/>
      <use xlink:href="#SFProDisplay-Regular-63" transform="translate(395.556641 0)"/>
      <use xlink:href="#SFProDisplay-Regular-65" transform="translate(445.654297 0)"/>
      <use xlink:href="#SFProDisplay-Regular-65" transform="translate(496.875 0)"/>
      <use xlink:href="#SFProDisplay-Regular-64" transform="translate(548.095703 0)"/>
      <use xlink:href="#SFProDisplay-Regular-61" transform="translate(603.466797 0)"/>
      <use xlink:href="#SFProDisplay-Regular-6e" transform="translate(653.662109 0)"/>
      <use xlink:href="#SFProDisplay-Regular-63" transform="translate(706.347656 0)"/>
      <use xlink:href="#SFProDisplay-Regular-65" transform="translate(756.445312 0)"/>
      <use xlink:href="#SFProDisplay-Regular-20" transform="translate(807.666016 0)"/>
      <use xlink:href="#SFProDisplay-Regular-70" transform="translate(828.173828 0)"/>
      <use xlink:href="#SFProDisplay-Regular-72" transform="translate(883.105469 0)"/>
      <use xlink:href="#SFProDisplay-Regular-6f" transform="translate(913.916016 0)"/>
      <use xlink:href="#SFProDisplay-Regular-62" transform="translate(966.992188 0)"/>
      <use xlink:href="#SFProDisplay-Regular-61" transform="translate(1022.412109 0)"/>
      <use xlink:href="#SFProDisplay-Regular-62" transform="translate(1072.607422 0)"/>
      <use xlink:href="#SFProDisplay-Regular-69" transform="translate(1128.027344 0)"/>
      <use xlink:href="#SFProDisplay-Regular-6c" transform="translate(1148.4375 0)"/>
      <use xlink:href="#SFProDisplay-Regular-69" transform="translate(1168.847656 0)"/>
      <use xlink:href="#SFProDisplay-Regular-74" transform="translate(1189.257812 0)"/>
      <use xlink:href="#SFProDisplay-Regular-79" transform="translate(1219.384766 0)"/>
     </g>
    </g>
   </g>
   <g id="line2d_13">
    <path d="M 86.105 318.578634 
L 90.292337 304.49972 
L 94.479673 291.076733 
L 98.66701 278.297864 
L 102.854347 266.151301 
L 107.041683 254.625236 
L 111.22902 243.707859 
L 115.416357 233.387359 
L 119.603693 223.651928 
L 123.79103 214.489754 
L 127.978367 205.88903 
L 132.165704 197.837944 
L 136.35304 190.324686 
L 140.540377 183.337448 
L 144.727714 176.86442 
L 148.91505 170.893791 
L 153.102387 165.413751 
L 157.289724 160.412492 
L 161.47706 155.878203 
L 165.664397 151.799074 
L 169.851734 148.163296 
L 174.03907 144.959059 
L 178.226407 142.174552 
L 182.413744 139.797967 
L 186.60108 137.817494 
L 190.788417 136.221322 
L 194.975754 134.997642 
L 199.16309 134.134644 
L 203.350427 133.620518 
L 207.537764 133.443455 
L 211.725101 133.591645 
L 215.912437 134.053278 
L 220.099774 134.816544 
L 224.287111 135.869633 
L 228.474447 137.200736 
L 232.661784 138.798042 
L 236.849121 140.649743 
L 241.036457 142.744028 
L 245.223794 145.069087 
L 249.411131 147.613111 
L 253.598467 150.36429 
L 257.785804 153.310814 
L 264.066809 158.071038 
L 270.347814 163.204358 
L 276.628819 168.670917 
L 282.909824 174.430856 
L 289.190829 180.444318 
L 297.565503 188.787744 
L 308.033844 199.607255 
L 322.689523 215.152325 
L 339.438869 232.895847 
L 349.907211 243.653638 
L 358.281884 251.925467 
L 364.562889 257.872269 
L 370.843894 263.55444 
L 377.124899 268.93212 
L 383.405905 273.965452 
L 389.68691 278.614577 
L 393.874246 281.480863 
L 398.061583 284.146867 
L 402.24892 286.600778 
L 406.436256 288.830786 
L 410.623593 290.825083 
L 414.81093 292.571857 
L 418.998266 294.0593 
L 423.185603 295.275601 
L 427.37294 296.208951 
L 431.560276 296.847539 
L 435.747613 297.179557 
L 439.93495 297.193195 
L 444.122286 296.876641 
L 448.309623 296.218088 
L 452.49696 295.205725 
L 456.684296 293.827741 
L 460.871633 292.072328 
L 465.05897 289.927676 
L 469.246307 287.381975 
L 473.433643 284.423414 
L 477.62098 281.040185 
L 481.808317 277.220477 
L 485.995653 272.952481 
L 490.18299 268.224387 
L 494.370327 263.024385 
L 498.557663 257.340666 
L 502.745 251.161418 
L 502.745 251.161418 
" clip-path="url(#p8d4fd81a48)" style="fill: none; stroke: #ff0000; stroke-width: 3; stroke-linecap: square"/>
   </g>
   <g id="line2d_14">
    <path d="M 207.537764 316.613281 
L 207.537764 44.813281 
" clip-path="url(#p8d4fd81a48)" style="fill: none; stroke: #8b0000; stroke-width: 2; stroke-linecap: square"/>
   </g>
   <g id="patch_3">
    <path d="M 63.785 316.613281 
L 63.785 44.813281 
" style="fill: none; stroke: #000000; stroke-width: 1.5; stroke-linejoin: miter; stroke-linecap: square"/>
   </g>
   <g id="patch_4">
    <path d="M 510.185 316.613281 
L 510.185 44.813281 
" style="fill: none; stroke: #000000; stroke-width: 1.5; stroke-linejoin: miter; stroke-linecap: square"/>
   </g>
   <g id="patch_5">
    <path d="M 63.785 316.613281 
L 510.185 316.613281 
" style="fill: none; stroke: #000000; stroke-width: 1.5; stroke-linejoin: miter; stroke-linecap: square"/>
   </g>
   <g id="patch_6">
    <path d="M 63.785 44.813281 
L 510.185 44.813281 
" style="fill: none; stroke: #000000; stroke-width: 1.5; stroke-linejoin: miter; stroke-linecap: square"/>
   </g>
   <g id="text_15">
    <g id="patch_7">
     <path d="M 350.04 118.558844 
L 487.865 118.558844 
Q 497.865 118.558844 497.865 108.558844 
L 497.865 66.557281 
Q 497.865 56.557281 487.865 56.557281 
L 350.04 56.557281 
Q 340.04 56.557281 340.04 66.557281 
L 340.04 108.558844 
Q 340.04 118.558844 350.04 118.558844 
z
" style="fill: #ffffff; stroke: #ffffff; stroke-linejoin: miter"/>
    </g>
    <!-- 1.98 ( 1.6 ~ 2.4 ) -->
    <g transform="translate(350.04 80.647906) scale(0.2 -0.2)">
     <defs>
      <path id="SFProDisplay-Regular-2e" d="M 1066 72 
Q 963 -31 813 -31 
Q 663 -31 559 72 
Q 456 175 456 325 
Q 456 475 559 578 
Q 663 681 813 681 
Q 963 681 1066 578 
Q 1169 475 1169 325 
Q 1169 175 1066 72 
z
" transform="scale(0.015625)"/>
      <path id="SFProDisplay-Regular-39" d="M 1800 -75 
Q 1225 -75 815 244 
Q 406 563 303 1094 
L 875 1094 
Q 966 788 1219 602 
Q 1472 416 1806 416 
Q 2369 416 2680 905 
Q 2991 1394 3003 2294 
L 3000 2294 
L 2994 2294 
Q 2850 1959 2508 1757 
Q 2166 1556 1734 1556 
Q 1091 1556 664 1981 
Q 238 2406 238 3047 
Q 238 3716 689 4152 
Q 1141 4588 1834 4588 
Q 2344 4588 2731 4323 
Q 3119 4059 3325 3575 
Q 3547 3063 3547 2331 
Q 3547 1191 3087 558 
Q 2628 -75 1800 -75 
z
M 1831 2050 
Q 2278 2050 2575 2334 
Q 2872 2619 2872 3050 
Q 2872 3484 2573 3782 
Q 2275 4081 1840 4081 
Q 1406 4081 1106 3786 
Q 806 3491 806 3066 
Q 806 2625 1097 2337 
Q 1388 2050 1831 2050 
z
" transform="scale(0.015625)"/>
      <path id="SFProDisplay-Regular-38" d="M 1916 -75 
Q 1200 -75 740 289 
Q 281 653 281 1219 
Q 281 1641 547 1959 
Q 813 2278 1250 2378 
L 1250 2391 
Q 884 2503 671 2773 
Q 459 3044 459 3400 
Q 459 3909 873 4246 
Q 1288 4584 1916 4584 
Q 2547 4584 2958 4248 
Q 3369 3913 3369 3397 
Q 3369 3044 3159 2775 
Q 2950 2506 2581 2391 
L 2581 2378 
Q 3019 2275 3286 1956 
Q 3553 1638 3553 1219 
Q 3553 653 3093 289 
Q 2634 -75 1916 -75 
z
M 1916 416 
Q 2381 416 2679 653 
Q 2978 891 2978 1259 
Q 2978 1631 2679 1868 
Q 2381 2106 1915 2106 
Q 1450 2106 1151 1867 
Q 853 1628 853 1259 
Q 853 891 1153 653 
Q 1453 416 1916 416 
z
M 1916 2600 
Q 2309 2600 2561 2809 
Q 2813 3019 2813 3347 
Q 2813 3678 2563 3889 
Q 2313 4100 1916 4100 
Q 1519 4100 1269 3889 
Q 1019 3678 1019 3347 
Q 1019 3019 1269 2809 
Q 1519 2600 1916 2600 
z
" transform="scale(0.015625)"/>
      <path id="SFProDisplay-Regular-7e" d="M 1797 1988 
Q 1628 2163 1515 2233 
Q 1403 2303 1297 2303 
Q 891 2303 856 1744 
L 356 1744 
Q 353 2244 609 2531 
Q 866 2819 1309 2819 
Q 1691 2819 2081 2428 
Q 2244 2256 2356 2186 
Q 2469 2116 2575 2116 
Q 2984 2116 3019 2675 
L 3516 2675 
Q 3519 2175 3264 1887 
Q 3009 1600 2566 1600 
Q 2184 1600 1797 1988 
z
" transform="scale(0.015625)"/>
     </defs>
     <use xlink:href="#SFProDisplay-Regular-31"/>
     <use xlink:href="#SFProDisplay-Regular-2e" transform="translate(44.335938 0)"/>
     <use xlink:href="#SFProDisplay-Regular-39" transform="translate(69.726562 0)"/>
     <use xlink:href="#SFProDisplay-Regular-38" transform="translate(129.589844 0)"/>
     <use xlink:href="#SFProDisplay-Regular-20" transform="translate(189.501953 0)"/>
     <use xlink:href="#SFProDisplay-Regular-28" transform="translate(210.009766 0)"/>
     <use xlink:href="#SFProDisplay-Regular-20" transform="translate(242.236328 0)"/>
     <use xlink:href="#SFProDisplay-Regular-31" transform="translate(262.744141 0)"/>
     <use xlink:href="#SFProDisplay-Regular-2e" transform="translate(307.080078 0)"/>
     <use xlink:href="#SFProDisplay-Regular-36" transform="translate(332.470703 0)"/>
     <use xlink:href="#SFProDisplay-Regular-20" transform="translate(392.333984 0)"/>
     <use xlink:href="#SFProDisplay-Regular-7e" transform="translate(412.841797 0)"/>
     <use xlink:href="#SFProDisplay-Regular-20" transform="translate(473.339844 0)"/>
     <use xlink:href="#SFProDisplay-Regular-32" transform="translate(493.847656 0)"/>
     <use xlink:href="#SFProDisplay-Regular-2e" transform="translate(550.439453 0)"/>
     <use xlink:href="#SFProDisplay-Regular-34" transform="translate(575.830078 0)"/>
     <use xlink:href="#SFProDisplay-Regular-20" transform="translate(636.328125 0)"/>
     <use xlink:href="#SFProDisplay-Regular-29" transform="translate(656.835938 0)"/>
    </g>
    <!-- R = 0.82 -->
    <g transform="translate(415.07125 105.171344) scale(0.2 -0.2)">
     <defs>
      <path id="SFProDisplay-Regular-3d" d="M 3463 941 
L 409 941 
L 409 1422 
L 3463 1422 
L 3463 941 
z
M 3463 2138 
L 409 2138 
L 409 2619 
L 3463 2619 
L 3463 2138 
z
" transform="scale(0.015625)"/>
     </defs>
     <use xlink:href="#SFProDisplay-Regular-52"/>
     <use xlink:href="#SFProDisplay-Regular-20" transform="translate(59.912109 0)"/>
     <use xlink:href="#SFProDisplay-Regular-3d" transform="translate(80.419922 0)"/>
     <use xlink:href="#SFProDisplay-Regular-20" transform="translate(140.917969 0)"/>
     <use xlink:href="#SFProDisplay-Regular-30" transform="translate(161.425781 0)"/>
     <use xlink:href="#SFProDisplay-Regular-2e" transform="translate(222.070312 0)"/>
     <use xlink:href="#SFProDisplay-Regular-38" transform="translate(247.460938 0)"/>
     <use xlink:href="#SFProDisplay-Regular-32" transform="translate(307.373047 0)"/>
    </g>
   </g>
   <g id="text_16">
    <!-- ( b ) -->
    <g transform="translate(63.785 24.813281) scale(0.25 -0.25)">
     <use xlink:href="#SFProDisplay-Regular-28"/>
     <use xlink:href="#SFProDisplay-Regular-20" transform="translate(32.226562 0)"/>
     <use xlink:href="#SFProDisplay-Regular-62" transform="translate(52.734375 0)"/>
     <use xlink:href="#SFProDisplay-Regular-20" transform="translate(108.154297 0)"/>
     <use xlink:href="#SFProDisplay-Regular-29" transform="translate(128.662109 0)"/>
    </g>
   </g>
  </g>
 </g>
 <defs>
  <clipPath id="p8d4fd81a48">
   <rect x="63.785" y="44.813281" width="446.4" height="271.8"/>
  </clipPath>
 </defs>
</svg>
