<?xml version="1.0" encoding="utf-8" standalone="no"?>
<!DOCTYPE svg PUBLIC "-//W3C//DTD SVG 1.1//EN"
  "http://www.w3.org/Graphics/SVG/1.1/DTD/svg11.dtd">
<svg xmlns:xlink="http://www.w3.org/1999/xlink" width="721.857812pt" height="632.974844pt" viewBox="0 0 721.857812 632.974844" xmlns="http://www.w3.org/2000/svg" version="1.1">
 <metadata>
  <rdf:RDF xmlns:dc="http://purl.org/dc/elements/1.1/" xmlns:cc="http://creativecommons.org/ns#" xmlns:rdf="http://www.w3.org/1999/02/22-rdf-syntax-ns#">
   <cc:Work>
    <dc:type rdf:resource="http://purl.org/dc/dcmitype/StillImage"/>
    <dc:date>2025-07-31T08:30:26.266355</dc:date>
    <dc:format>image/svg+xml</dc:format>
    <dc:creator>
     <cc:Agent>
      <dc:title>Matplotlib v3.7.1, https://matplotlib.org/</dc:title>
     </cc:Agent>
    </dc:creator>
   </cc:Work>
  </rdf:RDF>
 </metadata>
 <defs>
  <style type="text/css">*{stroke-linejoin: round; stroke-linecap: butt}</style>
 </defs>
 <g id="figure_1">
  <g id="patch_1">
   <path d="M 0 632.974844 
L 721.857812 632.974844 
L 721.857812 0 
L 0 0 
z
" style="fill: #ffffff"/>
  </g>
  <g id="axes_1">
   <g id="patch_2">
    <path d="M 45.057812 146.260465 
L 714.657812 146.260465 
L 714.657812 7.2 
L 45.057812 7.2 
z
" style="fill: #ffffff"/>
   </g>
   <g id="matplotlib.axis_1">
    <g id="xtick_1"/>
    <g id="xtick_2"/>
    <g id="xtick_3"/>
    <g id="xtick_4"/>
    <g id="xtick_5"/>
    <g id="xtick_6"/>
    <g id="xtick_7"/>
    <g id="xtick_8"/>
    <g id="xtick_9"/>
    <g id="xtick_10"/>
    <g id="xtick_11"/>
    <g id="xtick_12"/>
   </g>
   <g id="matplotlib.axis_2">
    <g id="ytick_1">
     <g id="line2d_1">
      <path d="M 45.057812 146.260465 
L 714.657812 146.260465 
" clip-path="url(#p9209b2812b)" style="fill: none; stroke-dasharray: 3.7,1.6; stroke-dashoffset: 0; stroke: #d3d3d3"/>
     </g>
     <g id="line2d_2">
      <defs>
       <path id="m02bcdd9b09" d="M 0 0 
L -3.5 0 
" style="stroke: #000000; stroke-width: 2"/>
      </defs>
      <g>
       <use xlink:href="#m02bcdd9b09" x="45.057812" y="146.260465" style="stroke: #000000; stroke-width: 2"/>
      </g>
     </g>
     <g id="text_1">
      <!-- 15 -->
      <g style="fill: #ff0000" transform="translate(20.334375 151.544449) scale(0.15 -0.15)">
       <defs>
        <path id="SFProDisplay-Black-31" d="M 1375 0 
L 1375 3375 
L 1350 3375 
L 244 2644 
L 244 3753 
L 1375 4509 
L 2700 4509 
L 2700 0 
L 1375 0 
z
" transform="scale(0.015625)"/>
        <path id="SFProDisplay-Black-35" d="M 2188 -125 
Q 1384 -125 870 287 
Q 356 700 350 1347 
L 1541 1347 
Q 1581 1138 1764 1006 
Q 1947 875 2197 875 
Q 2478 875 2651 1053 
Q 2825 1231 2825 1513 
Q 2825 1809 2653 1990 
Q 2481 2172 2197 2172 
Q 2006 2172 1843 2086 
Q 1681 2000 1581 1844 
L 422 1844 
L 622 4509 
L 3775 4509 
L 3775 3509 
L 1641 3509 
L 1572 2509 
L 1597 2509 
Q 1722 2766 1980 2912 
Q 2238 3059 2594 3059 
Q 3234 3059 3650 2632 
Q 4066 2206 4066 1544 
Q 4066 791 3550 333 
Q 3034 -125 2188 -125 
z
" transform="scale(0.015625)"/>
       </defs>
       <use xlink:href="#SFProDisplay-Black-31"/>
       <use xlink:href="#SFProDisplay-Black-35" x="51.660156"/>
      </g>
     </g>
    </g>
    <g id="ytick_2">
     <g id="line2d_3">
      <path d="M 45.057812 111.495349 
L 714.657812 111.495349 
" clip-path="url(#p9209b2812b)" style="fill: none; stroke-dasharray: 3.7,1.6; stroke-dashoffset: 0; stroke: #d3d3d3"/>
     </g>
     <g id="line2d_4">
      <g>
       <use xlink:href="#m02bcdd9b09" x="45.057812" y="111.495349" style="stroke: #000000; stroke-width: 2"/>
      </g>
     </g>
     <g id="text_2">
      <!-- 18 -->
      <g style="fill: #ff0000" transform="translate(19.725 116.779333) scale(0.15 -0.15)">
       <defs>
        <path id="SFProDisplay-Black-38" d="M 2256 -125 
Q 1334 -125 786 244 
Q 238 613 238 1222 
Q 238 1688 558 2005 
Q 878 2322 1388 2375 
L 1388 2400 
Q 963 2472 691 2759 
Q 419 3047 419 3438 
Q 419 3963 930 4298 
Q 1441 4634 2256 4634 
Q 3072 4634 3583 4296 
Q 4094 3959 4094 3434 
Q 4094 3050 3822 2761 
Q 3550 2472 3131 2400 
L 3131 2375 
Q 3641 2322 3959 2005 
Q 4278 1688 4278 1219 
Q 4278 616 3722 245 
Q 3166 -125 2256 -125 
z
M 1807 915 
Q 1981 756 2256 756 
Q 2531 756 2704 915 
Q 2878 1075 2878 1319 
Q 2878 1563 2704 1722 
Q 2531 1881 2256 1881 
Q 1981 1881 1807 1722 
Q 1634 1563 1634 1319 
Q 1634 1075 1807 915 
z
M 1878 2903 
Q 2028 2759 2256 2759 
Q 2484 2759 2636 2903 
Q 2788 3047 2788 3256 
Q 2788 3469 2636 3612 
Q 2484 3756 2256 3756 
Q 2028 3756 1878 3612 
Q 1728 3469 1728 3256 
Q 1728 3047 1878 2903 
z
" transform="scale(0.015625)"/>
       </defs>
       <use xlink:href="#SFProDisplay-Black-31"/>
       <use xlink:href="#SFProDisplay-Black-38" x="51.660156"/>
      </g>
     </g>
    </g>
    <g id="ytick_3">
     <g id="line2d_5">
      <path d="M 45.057812 76.730233 
L 714.657812 76.730233 
" clip-path="url(#p9209b2812b)" style="fill: none; stroke-dasharray: 3.7,1.6; stroke-dashoffset: 0; stroke: #d3d3d3"/>
     </g>
     <g id="line2d_6">
      <g>
       <use xlink:href="#m02bcdd9b09" x="45.057812" y="76.730233" style="stroke: #000000; stroke-width: 2"/>
      </g>
     </g>
     <g id="text_3">
      <!-- 21 -->
      <g style="fill: #ff0000" transform="translate(20.707031 82.014217) scale(0.15 -0.15)">
       <defs>
        <path id="SFProDisplay-Black-32" d="M 194 3094 
Q 194 3788 697 4211 
Q 1200 4634 2034 4634 
Q 2847 4634 3323 4257 
Q 3800 3881 3800 3263 
Q 3800 3088 3740 2908 
Q 3681 2728 3604 2600 
Q 3528 2472 3408 2331 
Q 3288 2191 3216 2122 
Q 3144 2053 3041 1963 
L 1981 1025 
L 1981 1000 
L 3853 1000 
L 3853 0 
L 272 0 
L 272 881 
L 2084 2484 
Q 2316 2691 2420 2864 
Q 2525 3038 2525 3222 
Q 2525 3409 2381 3532 
Q 2238 3656 1988 3656 
Q 1728 3656 1564 3500 
Q 1400 3344 1400 3097 
L 1400 3069 
L 194 3069 
L 194 3094 
z
" transform="scale(0.015625)"/>
       </defs>
       <use xlink:href="#SFProDisplay-Black-32"/>
       <use xlink:href="#SFProDisplay-Black-31" x="64.013672"/>
      </g>
     </g>
    </g>
    <g id="ytick_4">
     <g id="line2d_7">
      <path d="M 45.057812 41.965116 
L 714.657812 41.965116 
" clip-path="url(#p9209b2812b)" style="fill: none; stroke-dasharray: 3.7,1.6; stroke-dashoffset: 0; stroke: #d3d3d3"/>
     </g>
     <g id="line2d_8">
      <g>
       <use xlink:href="#m02bcdd9b09" x="45.057812" y="41.965116" style="stroke: #000000; stroke-width: 2"/>
      </g>
     </g>
     <g id="text_4">
      <!-- 24 -->
      <g style="fill: #ff0000" transform="translate(18.098437 47.249101) scale(0.15 -0.15)">
       <defs>
        <path id="SFProDisplay-Black-34" d="M 2425 0 
L 2425 669 
L 206 669 
L 206 1766 
Q 778 2884 1844 4509 
L 3675 4509 
L 3675 1684 
L 4213 1684 
L 4213 669 
L 3675 669 
L 3675 0 
L 2425 0 
z
M 1306 1669 
L 1306 1631 
L 2463 1631 
L 2463 3641 
L 2438 3641 
Q 2044 3034 1803 2623 
Q 1563 2213 1306 1669 
z
" transform="scale(0.015625)"/>
       </defs>
       <use xlink:href="#SFProDisplay-Black-32"/>
       <use xlink:href="#SFProDisplay-Black-34" x="64.013672"/>
      </g>
     </g>
    </g>
   </g>
   <g id="patch_3">
    <path d="M 75.494176 320.086047 
L 106.98007 320.086047 
L 106.98007 42.614998 
L 75.494176 42.614998 
z
" clip-path="url(#p9209b2812b)" style="fill: #ff0000; opacity: 0.8"/>
   </g>
   <g id="patch_4">
    <path d="M 127.970665 320.086047 
L 159.456559 320.086047 
L 159.456559 51.028361 
L 127.970665 51.028361 
z
" clip-path="url(#p9209b2812b)" style="fill: #ff0000; opacity: 0.8"/>
   </g>
   <g id="patch_5">
    <path d="M 180.447154 320.086047 
L 211.933048 320.086047 
L 211.933048 49.410629 
L 180.447154 49.410629 
z
" clip-path="url(#p9209b2812b)" style="fill: #ff0000; opacity: 0.8"/>
   </g>
   <g id="patch_6">
    <path d="M 232.923643 320.086047 
L 264.409537 320.086047 
L 264.409537 73.969645 
L 232.923643 73.969645 
z
" clip-path="url(#p9209b2812b)" style="fill: #ff0000; opacity: 0.8"/>
   </g>
   <g id="patch_7">
    <path d="M 285.400132 320.086047 
L 316.886026 320.086047 
L 316.886026 100.002792 
L 285.400132 100.002792 
z
" clip-path="url(#p9209b2812b)" style="fill: #ff0000; opacity: 0.8"/>
   </g>
   <g id="patch_8">
    <path d="M 337.876621 320.086047 
L 369.362515 320.086047 
L 369.362515 106.090074 
L 337.876621 106.090074 
z
" clip-path="url(#p9209b2812b)" style="fill: #ff0000; opacity: 0.8"/>
   </g>
   <g id="patch_9">
    <path d="M 390.35311 320.086047 
L 421.839004 320.086047 
L 421.839004 112.183938 
L 390.35311 112.183938 
z
" clip-path="url(#p9209b2812b)" style="fill: #ff0000; opacity: 0.8"/>
   </g>
   <g id="patch_10">
    <path d="M 442.829599 320.086047 
L 474.315493 320.086047 
L 474.315493 107.57448 
L 442.829599 107.57448 
z
" clip-path="url(#p9209b2812b)" style="fill: #ff0000; opacity: 0.8"/>
   </g>
   <g id="patch_11">
    <path d="M 495.306088 320.086047 
L 526.791982 320.086047 
L 526.791982 81.647637 
L 495.306088 81.647637 
z
" clip-path="url(#p9209b2812b)" style="fill: #ff0000; opacity: 0.8"/>
   </g>
   <g id="patch_12">
    <path d="M 547.782577 320.086047 
L 579.268471 320.086047 
L 579.268471 75.091819 
L 547.782577 75.091819 
z
" clip-path="url(#p9209b2812b)" style="fill: #ff0000; opacity: 0.8"/>
   </g>
   <g id="patch_13">
    <path d="M 600.259066 320.086047 
L 631.74496 320.086047 
L 631.74496 72.870471 
L 600.259066 72.870471 
z
" clip-path="url(#p9209b2812b)" style="fill: #ff0000; opacity: 0.8"/>
   </g>
   <g id="patch_14">
    <path d="M 652.735555 320.086047 
L 684.221449 320.086047 
L 684.221449 58.055125 
L 652.735555 58.055125 
z
" clip-path="url(#p9209b2812b)" style="fill: #ff0000; opacity: 0.8"/>
   </g>
   <g id="patch_15">
    <path d="M 45.057812 146.260465 
L 45.057812 7.2 
" style="fill: none; stroke: #000000; stroke-width: 2; stroke-linejoin: miter; stroke-linecap: square"/>
   </g>
   <g id="patch_16">
    <path d="M 714.657812 146.260465 
L 714.657812 7.2 
" style="fill: none; stroke: #000000; stroke-width: 2; stroke-linejoin: miter; stroke-linecap: square"/>
   </g>
   <g id="patch_17">
    <path d="M 45.057812 146.260465 
L 714.657813 146.260465 
" style="fill: none; stroke: #000000; stroke-width: 2; stroke-linejoin: miter; stroke-linecap: square"/>
   </g>
   <g id="patch_18">
    <path d="M 45.057812 7.2 
L 714.657813 7.2 
" style="fill: none; stroke: #000000; stroke-width: 2; stroke-linejoin: miter; stroke-linecap: square"/>
   </g>
   <g id="text_5">
    <!-- Air Temperature (°C) -->
    <g transform="translate(55.101812 28.05907) scale(0.17 -0.17)">
     <defs>
      <path id="SFProDisplay-Regular-41" d="M 3369 0 
L 2916 1291 
L 1122 1291 
L 669 0 
L 78 0 
L 1741 4509 
L 2297 4509 
L 3959 0 
L 3369 0 
z
M 2009 3825 
L 1288 1769 
L 2750 1769 
L 2028 3825 
L 2009 3825 
z
" transform="scale(0.015625)"/>
      <path id="SFProDisplay-Regular-69" d="M 381 0 
L 381 3250 
L 925 3250 
L 925 0 
L 381 0 
z
M 653 3797 
Q 516 3797 416 3897 
Q 316 3997 316 4134 
Q 316 4275 416 4373 
Q 516 4472 653 4472 
Q 794 4472 894 4373 
Q 994 4275 994 4134 
Q 994 3997 894 3897 
Q 794 3797 653 3797 
z
" transform="scale(0.015625)"/>
      <path id="SFProDisplay-Regular-72" d="M 353 0 
L 353 3250 
L 866 3250 
L 866 2719 
L 878 2719 
Q 959 2991 1170 3148 
Q 1381 3306 1666 3306 
Q 1731 3306 1884 3284 
L 1884 2756 
Q 1797 2788 1594 2788 
Q 1278 2788 1087 2578 
Q 897 2369 897 2025 
L 897 0 
L 353 0 
z
" transform="scale(0.015625)"/>
      <path id="SFProDisplay-Regular-20" transform="scale(0.015625)"/>
      <path id="SFProDisplay-Regular-54" d="M 2141 0 
L 1578 0 
L 1578 4003 
L 156 4003 
L 156 4509 
L 3563 4509 
L 3563 4003 
L 2141 4003 
L 2141 0 
z
" transform="scale(0.015625)"/>
      <path id="SFProDisplay-Regular-65" d="M 1656 2834 
Q 1278 2834 1029 2573 
Q 781 2313 756 1903 
L 2522 1903 
Q 2513 2316 2275 2575 
Q 2038 2834 1656 2834 
z
M 2509 931 
L 3044 931 
Q 2972 500 2595 222 
Q 2219 -56 1691 -56 
Q 994 -56 594 394 
Q 194 844 194 1613 
Q 194 2375 595 2840 
Q 997 3306 1666 3306 
Q 2322 3306 2703 2865 
Q 3084 2425 3084 1684 
L 3084 1478 
L 753 1478 
L 753 1447 
Q 753 978 1009 697 
Q 1266 416 1703 416 
Q 2009 416 2225 556 
Q 2441 697 2509 931 
z
" transform="scale(0.015625)"/>
      <path id="SFProDisplay-Regular-6d" d="M 353 0 
L 353 3250 
L 866 3250 
L 866 2731 
L 878 2731 
Q 997 2997 1237 3151 
Q 1478 3306 1800 3306 
Q 2131 3306 2368 3145 
Q 2606 2984 2713 2688 
L 2725 2688 
Q 2859 2978 3129 3142 
Q 3400 3306 3744 3306 
Q 4225 3306 4514 3017 
Q 4803 2728 4803 2244 
L 4803 0 
L 4259 0 
L 4259 2119 
Q 4259 2453 4082 2639 
Q 3906 2825 3584 2825 
Q 3263 2825 3056 2611 
Q 2850 2397 2850 2066 
L 2850 0 
L 2306 0 
L 2306 2178 
Q 2306 2472 2125 2648 
Q 1944 2825 1641 2825 
Q 1319 2825 1108 2600 
Q 897 2375 897 2038 
L 897 0 
L 353 0 
z
" transform="scale(0.015625)"/>
      <path id="SFProDisplay-Regular-70" d="M 1931 3306 
Q 2556 3306 2939 2847 
Q 3322 2388 3322 1625 
Q 3322 866 2940 405 
Q 2559 -56 1944 -56 
Q 1600 -56 1328 100 
Q 1056 256 909 528 
L 897 528 
L 897 -1084 
L 353 -1084 
L 353 3250 
L 869 3250 
L 869 2700 
L 881 2700 
Q 1034 2981 1309 3143 
Q 1584 3306 1931 3306 
z
M 1825 422 
Q 2259 422 2512 747 
Q 2766 1072 2766 1625 
Q 2766 2178 2512 2503 
Q 2259 2828 1825 2828 
Q 1406 2828 1150 2497 
Q 894 2166 894 1625 
Q 894 1081 1150 751 
Q 1406 422 1825 422 
z
" transform="scale(0.015625)"/>
      <path id="SFProDisplay-Regular-61" d="M 1425 406 
Q 1809 406 2070 645 
Q 2331 884 2331 1234 
L 2331 1500 
L 1463 1447 
Q 1134 1425 954 1287 
Q 775 1150 775 919 
Q 775 688 953 547 
Q 1131 406 1425 406 
z
M 1303 -56 
Q 819 -56 520 212 
Q 222 481 222 919 
Q 222 1338 530 1588 
Q 838 1838 1400 1869 
L 2331 1922 
L 2331 2194 
Q 2331 2491 2143 2659 
Q 1956 2828 1619 2828 
Q 1309 2828 1115 2692 
Q 922 2556 869 2313 
L 344 2313 
Q 372 2747 720 3026 
Q 1069 3306 1631 3306 
Q 2203 3306 2539 3018 
Q 2875 2731 2875 2247 
L 2875 0 
L 2359 0 
L 2359 559 
L 2347 559 
Q 2200 281 1915 112 
Q 1631 -56 1303 -56 
z
" transform="scale(0.015625)"/>
      <path id="SFProDisplay-Regular-74" d="M 528 4034 
L 1072 4034 
L 1072 3250 
L 1703 3250 
L 1703 2803 
L 1072 2803 
L 1072 872 
Q 1072 650 1169 545 
Q 1266 441 1475 441 
Q 1606 441 1700 456 
L 1700 0 
Q 1594 -25 1356 -25 
Q 909 -25 718 175 
Q 528 375 528 844 
L 528 2803 
L 44 2803 
L 44 3250 
L 528 3250 
L 528 4034 
z
" transform="scale(0.015625)"/>
      <path id="SFProDisplay-Regular-75" d="M 3022 3250 
L 3022 0 
L 2506 0 
L 2506 528 
L 2494 528 
Q 2191 -56 1463 -56 
Q 934 -56 636 264 
Q 338 584 338 1141 
L 338 3250 
L 881 3250 
L 881 1238 
Q 881 425 1631 425 
Q 2025 425 2251 673 
Q 2478 922 2478 1341 
L 2478 3250 
L 3022 3250 
z
" transform="scale(0.015625)"/>
      <path id="SFProDisplay-Regular-28" d="M 1481 -959 
Q 594 169 594 1775 
Q 594 3381 1481 4509 
L 1938 4509 
Q 1603 4122 1375 3331 
Q 1147 2541 1147 1775 
Q 1147 1009 1375 218 
Q 1603 -572 1938 -959 
L 1481 -959 
z
" transform="scale(0.015625)"/>
      <path id="SFProDisplay-Regular-b0" d="M 1144 2772 
Q 772 2772 514 3031 
Q 256 3291 256 3662 
Q 256 4034 514 4293 
Q 772 4553 1144 4553 
Q 1513 4553 1773 4292 
Q 2034 4031 2034 3662 
Q 2034 3294 1773 3033 
Q 1513 2772 1144 2772 
z
M 1144 3175 
Q 1350 3175 1494 3319 
Q 1638 3463 1638 3663 
Q 1638 3866 1494 4009 
Q 1350 4153 1144 4153 
Q 947 4153 800 4009 
Q 653 3866 653 3663 
Q 653 3466 800 3320 
Q 947 3175 1144 3175 
z
" transform="scale(0.015625)"/>
      <path id="SFProDisplay-Regular-43" d="M 2294 -75 
Q 1359 -75 811 554 
Q 263 1184 263 2256 
Q 263 3319 816 3951 
Q 1369 4584 2294 4584 
Q 3031 4584 3545 4173 
Q 4059 3763 4166 3088 
L 3597 3088 
Q 3488 3531 3131 3798 
Q 2775 4066 2294 4066 
Q 1634 4066 1237 3572 
Q 841 3078 841 2256 
Q 841 1425 1234 934 
Q 1628 444 2297 444 
Q 2794 444 3134 672 
Q 3475 900 3597 1313 
L 4166 1313 
Q 4009 644 3525 284 
Q 3041 -75 2294 -75 
z
" transform="scale(0.015625)"/>
      <path id="SFProDisplay-Regular-29" d="M 1392 2720 
Q 1469 2284 1469 1775 
Q 1469 1266 1392 830 
Q 1316 394 1175 59 
Q 1034 -275 898 -501 
Q 763 -728 581 -959 
L 125 -959 
Q 241 -825 367 -589 
Q 494 -353 622 -11 
Q 750 331 833 803 
Q 916 1275 916 1775 
Q 916 2275 833 2748 
Q 750 3222 620 3562 
Q 491 3903 366 4139 
Q 241 4375 125 4509 
L 581 4509 
Q 763 4278 898 4051 
Q 1034 3825 1175 3490 
Q 1316 3156 1392 2720 
z
" transform="scale(0.015625)"/>
     </defs>
     <use xlink:href="#SFProDisplay-Regular-41"/>
     <use xlink:href="#SFProDisplay-Regular-69" x="63.085938"/>
     <use xlink:href="#SFProDisplay-Regular-72" x="83.496094"/>
     <use xlink:href="#SFProDisplay-Regular-20" x="114.306641"/>
     <use xlink:href="#SFProDisplay-Regular-54" x="134.814453"/>
     <use xlink:href="#SFProDisplay-Regular-65" x="192.919922"/>
     <use xlink:href="#SFProDisplay-Regular-6d" x="244.140625"/>
     <use xlink:href="#SFProDisplay-Regular-70" x="324.462891"/>
     <use xlink:href="#SFProDisplay-Regular-65" x="379.394531"/>
     <use xlink:href="#SFProDisplay-Regular-72" x="430.615234"/>
     <use xlink:href="#SFProDisplay-Regular-61" x="461.425781"/>
     <use xlink:href="#SFProDisplay-Regular-74" x="511.621094"/>
     <use xlink:href="#SFProDisplay-Regular-75" x="541.748047"/>
     <use xlink:href="#SFProDisplay-Regular-72" x="594.433594"/>
     <use xlink:href="#SFProDisplay-Regular-65" x="625.244141"/>
     <use xlink:href="#SFProDisplay-Regular-20" x="676.464844"/>
     <use xlink:href="#SFProDisplay-Regular-28" x="696.972656"/>
     <use xlink:href="#SFProDisplay-Regular-b0" x="729.199219"/>
     <use xlink:href="#SFProDisplay-Regular-43" x="764.990234"/>
     <use xlink:href="#SFProDisplay-Regular-29" x="833.59375"/>
    </g>
   </g>
  </g>
  <g id="axes_2">
   <g id="patch_19">
    <path d="M 45.057812 299.226977 
L 714.657812 299.226977 
L 714.657812 160.166512 
L 45.057812 160.166512 
z
" style="fill: #ffffff"/>
   </g>
   <g id="matplotlib.axis_3">
    <g id="xtick_13"/>
    <g id="xtick_14"/>
    <g id="xtick_15"/>
    <g id="xtick_16"/>
    <g id="xtick_17"/>
    <g id="xtick_18"/>
    <g id="xtick_19"/>
    <g id="xtick_20"/>
    <g id="xtick_21"/>
    <g id="xtick_22"/>
    <g id="xtick_23"/>
    <g id="xtick_24"/>
   </g>
   <g id="matplotlib.axis_4">
    <g id="ytick_5">
     <g id="line2d_9">
      <path d="M 45.057812 299.226977 
L 714.657812 299.226977 
" clip-path="url(#p432b8295d5)" style="fill: none; stroke-dasharray: 3.7,1.6; stroke-dashoffset: 0; stroke: #d3d3d3"/>
     </g>
     <g id="line2d_10">
      <g>
       <use xlink:href="#m02bcdd9b09" x="45.057812" y="299.226977" style="stroke: #000000; stroke-width: 2"/>
      </g>
     </g>
     <g id="text_6">
      <!-- 65 -->
      <g style="fill: #008080" transform="translate(17.777344 304.510961) scale(0.15 -0.15)">
       <defs>
        <path id="SFProDisplay-Black-36" d="M 2275 -125 
Q 1806 -125 1420 37 
Q 1034 200 775 516 
Q 238 1159 238 2256 
Q 238 3353 791 3993 
Q 1344 4634 2269 4634 
Q 2981 4634 3493 4261 
Q 4006 3888 4088 3309 
L 2803 3309 
Q 2759 3456 2609 3547 
Q 2459 3638 2266 3638 
Q 1881 3638 1661 3261 
Q 1441 2884 1491 2266 
L 1516 2266 
Q 1641 2606 1934 2804 
Q 2228 3003 2659 3003 
Q 3297 3003 3720 2581 
Q 4144 2159 4144 1519 
Q 4144 1041 3906 666 
Q 3669 291 3242 83 
Q 2816 -125 2275 -125 
z
M 1826 1051 
Q 2003 878 2262 878 
Q 2522 878 2700 1051 
Q 2878 1225 2878 1481 
Q 2878 1734 2700 1906 
Q 2522 2078 2262 2078 
Q 2003 2078 1826 1906 
Q 1650 1734 1650 1481 
Q 1650 1225 1826 1051 
z
" transform="scale(0.015625)"/>
       </defs>
       <use xlink:href="#SFProDisplay-Black-36"/>
       <use xlink:href="#SFProDisplay-Black-35" x="68.701172"/>
      </g>
     </g>
    </g>
    <g id="ytick_6">
     <g id="line2d_11">
      <path d="M 45.057812 262.144186 
L 714.657812 262.144186 
" clip-path="url(#p432b8295d5)" style="fill: none; stroke-dasharray: 3.7,1.6; stroke-dashoffset: 0; stroke: #d3d3d3"/>
     </g>
     <g id="line2d_12">
      <g>
       <use xlink:href="#m02bcdd9b09" x="45.057812" y="262.144186" style="stroke: #000000; stroke-width: 2"/>
      </g>
     </g>
     <g id="text_7">
      <!-- 69 -->
      <g style="fill: #008080" transform="translate(17.388281 267.42817) scale(0.15 -0.15)">
       <defs>
        <path id="SFProDisplay-Black-39" d="M 2144 -125 
Q 1672 -125 1270 45 
Q 869 216 616 519 
Q 363 822 309 1203 
L 1600 1203 
Q 1644 1056 1801 965 
Q 1959 875 2166 875 
Q 2547 875 2758 1242 
Q 2969 1609 2919 2247 
L 2906 2247 
L 2900 2247 
L 2894 2247 
Q 2788 1913 2491 1711 
Q 2194 1509 1750 1509 
Q 1116 1509 684 1932 
Q 253 2356 253 2994 
Q 253 3469 495 3844 
Q 738 4219 1166 4426 
Q 1594 4634 2131 4634 
Q 2606 4634 2997 4471 
Q 3388 4309 3647 3997 
Q 4184 3353 4184 2256 
Q 4184 1153 3639 514 
Q 3094 -125 2144 -125 
z
M 2150 2438 
Q 2406 2438 2582 2609 
Q 2759 2781 2759 3034 
Q 2759 3291 2582 3464 
Q 2406 3638 2150 3638 
Q 1891 3638 1711 3463 
Q 1531 3288 1531 3034 
Q 1531 2781 1711 2609 
Q 1891 2438 2150 2438 
z
" transform="scale(0.015625)"/>
       </defs>
       <use xlink:href="#SFProDisplay-Black-36"/>
       <use xlink:href="#SFProDisplay-Black-39" x="68.701172"/>
      </g>
     </g>
    </g>
    <g id="ytick_7">
     <g id="line2d_13">
      <path d="M 45.057812 225.061395 
L 714.657812 225.061395 
" clip-path="url(#p432b8295d5)" style="fill: none; stroke-dasharray: 3.7,1.6; stroke-dashoffset: 0; stroke: #d3d3d3"/>
     </g>
     <g id="line2d_14">
      <g>
       <use xlink:href="#m02bcdd9b09" x="45.057812" y="225.061395" style="stroke: #000000; stroke-width: 2"/>
      </g>
     </g>
     <g id="text_8">
      <!-- 73 -->
      <g style="fill: #008080" transform="translate(19.0875 230.34538) scale(0.15 -0.15)">
       <defs>
        <path id="SFProDisplay-Black-37" d="M 481 0 
L 2322 3484 
L 2322 3509 
L 159 3509 
L 159 4509 
L 3628 4509 
L 3628 3513 
L 1869 0 
L 481 0 
z
" transform="scale(0.015625)"/>
        <path id="SFProDisplay-Black-33" d="M 1547 1856 
L 1547 2744 
L 2097 2744 
Q 2356 2744 2507 2869 
Q 2659 2994 2659 3209 
Q 2659 3422 2506 3545 
Q 2353 3669 2081 3669 
Q 1816 3669 1650 3520 
Q 1484 3372 1484 3134 
L 291 3134 
Q 294 3813 800 4223 
Q 1306 4634 2138 4634 
Q 2938 4634 3408 4298 
Q 3878 3963 3878 3391 
Q 3878 2991 3615 2711 
Q 3353 2431 2938 2356 
L 2938 2331 
Q 3441 2275 3737 1992 
Q 4034 1709 4034 1253 
Q 4034 622 3503 248 
Q 2972 -125 2075 -125 
Q 1256 -125 748 286 
Q 241 697 206 1388 
L 1469 1388 
Q 1475 1163 1644 1033 
Q 1813 903 2103 903 
Q 2366 903 2527 1036 
Q 2688 1169 2688 1388 
Q 2688 1609 2530 1732 
Q 2372 1856 2091 1856 
L 1547 1856 
z
" transform="scale(0.015625)"/>
       </defs>
       <use xlink:href="#SFProDisplay-Black-37"/>
       <use xlink:href="#SFProDisplay-Black-33" x="59.716797"/>
      </g>
     </g>
    </g>
    <g id="ytick_8">
     <g id="line2d_15">
      <path d="M 45.057812 187.978605 
L 714.657812 187.978605 
" clip-path="url(#p432b8295d5)" style="fill: none; stroke-dasharray: 3.7,1.6; stroke-dashoffset: 0; stroke: #d3d3d3"/>
     </g>
     <g id="line2d_16">
      <g>
       <use xlink:href="#m02bcdd9b09" x="45.057812" y="187.978605" style="stroke: #000000; stroke-width: 2"/>
      </g>
     </g>
     <g id="text_9">
      <!-- 77 -->
      <g style="fill: #008080" transform="translate(20.142187 193.262589) scale(0.15 -0.15)">
       <use xlink:href="#SFProDisplay-Black-37"/>
       <use xlink:href="#SFProDisplay-Black-37" x="59.716797"/>
      </g>
     </g>
    </g>
   </g>
   <g id="patch_20">
    <path d="M 75.494176 901.822326 
L 106.98007 901.822326 
L 106.98007 217.011413 
L 75.494176 217.011413 
z
" clip-path="url(#p432b8295d5)" style="fill: #008080; opacity: 0.8"/>
   </g>
   <g id="patch_21">
    <path d="M 127.970665 901.822326 
L 159.456559 901.822326 
L 159.456559 198.079115 
L 127.970665 198.079115 
z
" clip-path="url(#p432b8295d5)" style="fill: #008080; opacity: 0.8"/>
   </g>
   <g id="patch_22">
    <path d="M 180.447154 901.822326 
L 211.933048 901.822326 
L 211.933048 216.486331 
L 180.447154 216.486331 
z
" clip-path="url(#p432b8295d5)" style="fill: #008080; opacity: 0.8"/>
   </g>
   <g id="patch_23">
    <path d="M 232.923643 901.822326 
L 264.409537 901.822326 
L 264.409537 226.602188 
L 232.923643 226.602188 
z
" clip-path="url(#p432b8295d5)" style="fill: #008080; opacity: 0.8"/>
   </g>
   <g id="patch_24">
    <path d="M 285.400132 901.822326 
L 316.886026 901.822326 
L 316.886026 231.950125 
L 285.400132 231.950125 
z
" clip-path="url(#p432b8295d5)" style="fill: #008080; opacity: 0.8"/>
   </g>
   <g id="patch_25">
    <path d="M 337.876621 901.822326 
L 369.362515 901.822326 
L 369.362515 225.648215 
L 337.876621 225.648215 
z
" clip-path="url(#p432b8295d5)" style="fill: #008080; opacity: 0.8"/>
   </g>
   <g id="patch_26">
    <path d="M 390.35311 901.822326 
L 421.839004 901.822326 
L 421.839004 280.605272 
L 390.35311 280.605272 
z
" clip-path="url(#p432b8295d5)" style="fill: #008080; opacity: 0.8"/>
   </g>
   <g id="patch_27">
    <path d="M 442.829599 901.822326 
L 474.315493 901.822326 
L 474.315493 256.064835 
L 442.829599 256.064835 
z
" clip-path="url(#p432b8295d5)" style="fill: #008080; opacity: 0.8"/>
   </g>
   <g id="patch_28">
    <path d="M 495.306088 901.822326 
L 526.791982 901.822326 
L 526.791982 252.876094 
L 495.306088 252.876094 
z
" clip-path="url(#p432b8295d5)" style="fill: #008080; opacity: 0.8"/>
   </g>
   <g id="patch_29">
    <path d="M 547.782577 901.822326 
L 579.268471 901.822326 
L 579.268471 208.469182 
L 547.782577 208.469182 
z
" clip-path="url(#p432b8295d5)" style="fill: #008080; opacity: 0.8"/>
   </g>
   <g id="patch_30">
    <path d="M 600.259066 901.822326 
L 631.74496 901.822326 
L 631.74496 232.327899 
L 600.259066 232.327899 
z
" clip-path="url(#p432b8295d5)" style="fill: #008080; opacity: 0.8"/>
   </g>
   <g id="patch_31">
    <path d="M 652.735555 901.822326 
L 684.221449 901.822326 
L 684.221449 211.903883 
L 652.735555 211.903883 
z
" clip-path="url(#p432b8295d5)" style="fill: #008080; opacity: 0.8"/>
   </g>
   <g id="patch_32">
    <path d="M 45.057812 299.226977 
L 45.057812 160.166512 
" style="fill: none; stroke: #000000; stroke-width: 2; stroke-linejoin: miter; stroke-linecap: square"/>
   </g>
   <g id="patch_33">
    <path d="M 714.657812 299.226977 
L 714.657812 160.166512 
" style="fill: none; stroke: #000000; stroke-width: 2; stroke-linejoin: miter; stroke-linecap: square"/>
   </g>
   <g id="patch_34">
    <path d="M 45.057812 299.226977 
L 714.657813 299.226977 
" style="fill: none; stroke: #000000; stroke-width: 2; stroke-linejoin: miter; stroke-linecap: square"/>
   </g>
   <g id="patch_35">
    <path d="M 45.057812 160.166512 
L 714.657813 160.166512 
" style="fill: none; stroke: #000000; stroke-width: 2; stroke-linejoin: miter; stroke-linecap: square"/>
   </g>
   <g id="text_10">
    <!-- Relative Humidity (%) -->
    <g transform="translate(55.101812 181.025581) scale(0.17 -0.17)">
     <defs>
      <path id="SFProDisplay-Regular-52" d="M 1000 4009 
L 1000 2281 
L 2078 2281 
Q 2513 2281 2748 2506 
Q 2984 2731 2984 3147 
Q 2984 3553 2737 3781 
Q 2491 4009 2053 4009 
L 1000 4009 
z
M 1000 1784 
L 1000 0 
L 438 0 
L 438 4509 
L 2128 4509 
Q 2781 4509 3173 4142 
Q 3566 3775 3566 3166 
Q 3566 2694 3325 2350 
Q 3084 2006 2659 1872 
L 3703 0 
L 3044 0 
L 2078 1784 
L 1000 1784 
z
" transform="scale(0.015625)"/>
      <path id="SFProDisplay-Regular-6c" d="M 381 0 
L 381 4509 
L 925 4509 
L 925 0 
L 381 0 
z
" transform="scale(0.015625)"/>
      <path id="SFProDisplay-Regular-76" d="M 3019 3250 
L 1825 0 
L 1269 0 
L 72 3250 
L 644 3250 
L 1541 578 
L 1553 578 
L 2453 3250 
L 3019 3250 
z
" transform="scale(0.015625)"/>
      <path id="SFProDisplay-Regular-48" d="M 4038 0 
L 3475 0 
L 3475 2053 
L 1000 2053 
L 1000 0 
L 438 0 
L 438 4509 
L 1000 4509 
L 1000 2559 
L 3475 2559 
L 3475 4509 
L 4038 4509 
L 4038 0 
z
" transform="scale(0.015625)"/>
      <path id="SFProDisplay-Regular-64" d="M 1584 -56 
Q 959 -56 576 403 
Q 194 863 194 1625 
Q 194 2384 575 2845 
Q 956 3306 1572 3306 
Q 1916 3306 2187 3150 
Q 2459 2994 2606 2722 
L 2619 2722 
L 2619 4509 
L 3163 4509 
L 3163 0 
L 2644 0 
L 2644 550 
L 2634 550 
Q 2475 266 2203 105 
Q 1931 -56 1584 -56 
z
M 1688 2828 
Q 1256 2828 1003 2501 
Q 750 2175 750 1625 
Q 750 1072 1003 747 
Q 1256 422 1688 422 
Q 2109 422 2365 751 
Q 2622 1081 2622 1625 
Q 2622 2169 2364 2498 
Q 2106 2828 1688 2828 
z
" transform="scale(0.015625)"/>
      <path id="SFProDisplay-Regular-79" d="M 622 -1216 
Q 478 -1216 388 -1197 
L 388 -741 
Q 463 -756 600 -756 
Q 828 -756 965 -636 
Q 1103 -516 1197 -231 
L 1272 -3 
L 72 3250 
L 653 3250 
L 1553 544 
L 1563 544 
L 2463 3250 
L 3034 3250 
L 1756 -228 
Q 1547 -797 1305 -1006 
Q 1063 -1216 622 -1216 
z
" transform="scale(0.015625)"/>
      <path id="SFProDisplay-Regular-25" d="M 1790 4259 
Q 2050 3953 2050 3443 
Q 2050 2934 1790 2628 
Q 1531 2322 1103 2322 
Q 675 2322 415 2628 
Q 156 2934 156 3443 
Q 156 3953 415 4259 
Q 675 4566 1103 4566 
Q 1531 4566 1790 4259 
z
M 776 2901 
Q 897 2703 1103 2703 
Q 1309 2703 1429 2901 
Q 1550 3100 1550 3444 
Q 1550 3788 1429 3986 
Q 1309 4184 1103 4184 
Q 897 4184 776 3986 
Q 656 3788 656 3444 
Q 656 3100 776 2901 
z
M 966 0 
L 422 0 
L 2163 2378 
L 3722 4509 
L 4259 4509 
L 2566 2191 
L 966 0 
z
M 4268 1890 
Q 4528 1584 4528 1075 
Q 4528 566 4268 259 
Q 4009 -47 3581 -47 
Q 3153 -47 2893 259 
Q 2634 566 2634 1075 
Q 2634 1584 2893 1890 
Q 3153 2197 3581 2197 
Q 4009 2197 4268 1890 
z
M 3254 532 
Q 3375 334 3581 334 
Q 3788 334 3908 532 
Q 4028 731 4028 1075 
Q 4028 1419 3908 1617 
Q 3788 1816 3581 1816 
Q 3375 1816 3254 1617 
Q 3134 1419 3134 1075 
Q 3134 731 3254 532 
z
" transform="scale(0.015625)"/>
     </defs>
     <use xlink:href="#SFProDisplay-Regular-52"/>
     <use xlink:href="#SFProDisplay-Regular-65" x="59.912109"/>
     <use xlink:href="#SFProDisplay-Regular-6c" x="111.132812"/>
     <use xlink:href="#SFProDisplay-Regular-61" x="131.542969"/>
     <use xlink:href="#SFProDisplay-Regular-74" x="181.738281"/>
     <use xlink:href="#SFProDisplay-Regular-69" x="211.865234"/>
     <use xlink:href="#SFProDisplay-Regular-76" x="232.275391"/>
     <use xlink:href="#SFProDisplay-Regular-65" x="280.566406"/>
     <use xlink:href="#SFProDisplay-Regular-20" x="331.787109"/>
     <use xlink:href="#SFProDisplay-Regular-48" x="352.294922"/>
     <use xlink:href="#SFProDisplay-Regular-75" x="422.216797"/>
     <use xlink:href="#SFProDisplay-Regular-6d" x="474.902344"/>
     <use xlink:href="#SFProDisplay-Regular-69" x="555.224609"/>
     <use xlink:href="#SFProDisplay-Regular-64" x="575.634766"/>
     <use xlink:href="#SFProDisplay-Regular-69" x="631.005859"/>
     <use xlink:href="#SFProDisplay-Regular-74" x="651.416016"/>
     <use xlink:href="#SFProDisplay-Regular-79" x="681.542969"/>
     <use xlink:href="#SFProDisplay-Regular-20" x="730.126953"/>
     <use xlink:href="#SFProDisplay-Regular-28" x="750.634766"/>
     <use xlink:href="#SFProDisplay-Regular-25" x="782.861328"/>
     <use xlink:href="#SFProDisplay-Regular-29" x="856.005859"/>
    </g>
   </g>
  </g>
  <g id="axes_3">
   <g id="patch_36">
    <path d="M 45.057812 452.193488 
L 714.657812 452.193488 
L 714.657812 313.133023 
L 45.057812 313.133023 
z
" style="fill: #ffffff"/>
   </g>
   <g id="matplotlib.axis_5">
    <g id="xtick_25"/>
    <g id="xtick_26"/>
    <g id="xtick_27"/>
    <g id="xtick_28"/>
    <g id="xtick_29"/>
    <g id="xtick_30"/>
    <g id="xtick_31"/>
    <g id="xtick_32"/>
    <g id="xtick_33"/>
    <g id="xtick_34"/>
    <g id="xtick_35"/>
    <g id="xtick_36"/>
   </g>
   <g id="matplotlib.axis_6">
    <g id="ytick_9">
     <g id="line2d_17">
      <path d="M 45.057812 452.193488 
L 714.657812 452.193488 
" clip-path="url(#p0586719ebe)" style="fill: none; stroke-dasharray: 3.7,1.6; stroke-dashoffset: 0; stroke: #d3d3d3"/>
     </g>
     <g id="line2d_18">
      <g>
       <use xlink:href="#m02bcdd9b09" x="45.057812" y="452.193488" style="stroke: #000000; stroke-width: 2"/>
      </g>
     </g>
     <g id="text_11">
      <!-- 922 -->
      <g style="fill: #ffa500" transform="translate(8.489062 457.477473) scale(0.15 -0.15)">
       <use xlink:href="#SFProDisplay-Black-39"/>
       <use xlink:href="#SFProDisplay-Black-32" x="69.091797"/>
       <use xlink:href="#SFProDisplay-Black-32" x="133.105469"/>
      </g>
     </g>
    </g>
    <g id="ytick_10">
     <g id="line2d_19">
      <path d="M 45.057812 417.428372 
L 714.657812 417.428372 
" clip-path="url(#p0586719ebe)" style="fill: none; stroke-dasharray: 3.7,1.6; stroke-dashoffset: 0; stroke: #d3d3d3"/>
     </g>
     <g id="line2d_20">
      <g>
       <use xlink:href="#m02bcdd9b09" x="45.057812" y="417.428372" style="stroke: #000000; stroke-width: 2"/>
      </g>
     </g>
     <g id="text_12">
      <!-- 924 -->
      <g style="fill: #ffa500" transform="translate(7.734375 422.712356) scale(0.15 -0.15)">
       <use xlink:href="#SFProDisplay-Black-39"/>
       <use xlink:href="#SFProDisplay-Black-32" x="69.091797"/>
       <use xlink:href="#SFProDisplay-Black-34" x="133.105469"/>
      </g>
     </g>
    </g>
    <g id="ytick_11">
     <g id="line2d_21">
      <path d="M 45.057812 382.663256 
L 714.657812 382.663256 
" clip-path="url(#p0586719ebe)" style="fill: none; stroke-dasharray: 3.7,1.6; stroke-dashoffset: 0; stroke: #d3d3d3"/>
     </g>
     <g id="line2d_22">
      <g>
       <use xlink:href="#m02bcdd9b09" x="45.057812" y="382.663256" style="stroke: #000000; stroke-width: 2"/>
      </g>
     </g>
     <g id="text_13">
      <!-- 926 -->
      <g style="fill: #ffa500" transform="translate(7.785937 387.94724) scale(0.15 -0.15)">
       <use xlink:href="#SFProDisplay-Black-39"/>
       <use xlink:href="#SFProDisplay-Black-32" x="69.091797"/>
       <use xlink:href="#SFProDisplay-Black-36" x="133.105469"/>
      </g>
     </g>
    </g>
    <g id="ytick_12">
     <g id="line2d_23">
      <path d="M 45.057812 347.89814 
L 714.657812 347.89814 
" clip-path="url(#p0586719ebe)" style="fill: none; stroke-dasharray: 3.7,1.6; stroke-dashoffset: 0; stroke: #d3d3d3"/>
     </g>
     <g id="line2d_24">
      <g>
       <use xlink:href="#m02bcdd9b09" x="45.057812" y="347.89814" style="stroke: #000000; stroke-width: 2"/>
      </g>
     </g>
     <g id="text_14">
      <!-- 928 -->
      <g style="fill: #ffa500" transform="translate(7.507031 353.182124) scale(0.15 -0.15)">
       <use xlink:href="#SFProDisplay-Black-39"/>
       <use xlink:href="#SFProDisplay-Black-32" x="69.091797"/>
       <use xlink:href="#SFProDisplay-Black-38" x="133.105469"/>
      </g>
     </g>
    </g>
   </g>
   <g id="patch_37">
    <path d="M 75.494176 16478.912093 
L 106.98007 16478.912093 
L 106.98007 426.94102 
L 75.494176 426.94102 
z
" clip-path="url(#p0586719ebe)" style="fill: #ffa500; opacity: 0.8"/>
   </g>
   <g id="patch_38">
    <path d="M 127.970665 16478.912093 
L 159.456559 16478.912093 
L 159.456559 425.316035 
L 127.970665 425.316035 
z
" clip-path="url(#p0586719ebe)" style="fill: #ffa500; opacity: 0.8"/>
   </g>
   <g id="patch_39">
    <path d="M 180.447154 16478.912093 
L 211.933048 16478.912093 
L 211.933048 400.642389 
L 180.447154 400.642389 
z
" clip-path="url(#p0586719ebe)" style="fill: #ffa500; opacity: 0.8"/>
   </g>
   <g id="patch_40">
    <path d="M 232.923643 16478.912093 
L 264.409537 16478.912093 
L 264.409537 382.283254 
L 232.923643 382.283254 
z
" clip-path="url(#p0586719ebe)" style="fill: #ffa500; opacity: 0.8"/>
   </g>
   <g id="patch_41">
    <path d="M 285.400132 16478.912093 
L 316.886026 16478.912093 
L 316.886026 362.376596 
L 285.400132 362.376596 
z
" clip-path="url(#p0586719ebe)" style="fill: #ffa500; opacity: 0.8"/>
   </g>
   <g id="patch_42">
    <path d="M 337.876621 16478.912093 
L 369.362515 16478.912093 
L 369.362515 335.507833 
L 337.876621 335.507833 
z
" clip-path="url(#p0586719ebe)" style="fill: #ffa500; opacity: 0.8"/>
   </g>
   <g id="patch_43">
    <path d="M 390.35311 16478.912093 
L 421.839004 16478.912093 
L 421.839004 327.158224 
L 390.35311 327.158224 
z
" clip-path="url(#p0586719ebe)" style="fill: #ffa500; opacity: 0.8"/>
   </g>
   <g id="patch_44">
    <path d="M 442.829599 16478.912093 
L 474.315493 16478.912093 
L 474.315493 327.850975 
L 442.829599 327.850975 
z
" clip-path="url(#p0586719ebe)" style="fill: #ffa500; opacity: 0.8"/>
   </g>
   <g id="patch_45">
    <path d="M 495.306088 16478.912093 
L 526.791982 16478.912093 
L 526.791982 368.116469 
L 495.306088 368.116469 
z
" clip-path="url(#p0586719ebe)" style="fill: #ffa500; opacity: 0.8"/>
   </g>
   <g id="patch_46">
    <path d="M 547.782577 16478.912093 
L 579.268471 16478.912093 
L 579.268471 404.762452 
L 547.782577 404.762452 
z
" clip-path="url(#p0586719ebe)" style="fill: #ffa500; opacity: 0.8"/>
   </g>
   <g id="patch_47">
    <path d="M 600.259066 16478.912093 
L 631.74496 16478.912093 
L 631.74496 415.738884 
L 600.259066 415.738884 
z
" clip-path="url(#p0586719ebe)" style="fill: #ffa500; opacity: 0.8"/>
   </g>
   <g id="patch_48">
    <path d="M 652.735555 16478.912093 
L 684.221449 16478.912093 
L 684.221449 431.746553 
L 652.735555 431.746553 
z
" clip-path="url(#p0586719ebe)" style="fill: #ffa500; opacity: 0.8"/>
   </g>
   <g id="patch_49">
    <path d="M 45.057812 452.193488 
L 45.057812 313.133023 
" style="fill: none; stroke: #000000; stroke-width: 2; stroke-linejoin: miter; stroke-linecap: square"/>
   </g>
   <g id="patch_50">
    <path d="M 714.657812 452.193488 
L 714.657812 313.133023 
" style="fill: none; stroke: #000000; stroke-width: 2; stroke-linejoin: miter; stroke-linecap: square"/>
   </g>
   <g id="patch_51">
    <path d="M 45.057812 452.193488 
L 714.657813 452.193488 
" style="fill: none; stroke: #000000; stroke-width: 2; stroke-linejoin: miter; stroke-linecap: square"/>
   </g>
   <g id="patch_52">
    <path d="M 45.057812 313.133023 
L 714.657813 313.133023 
" style="fill: none; stroke: #000000; stroke-width: 2; stroke-linejoin: miter; stroke-linecap: square"/>
   </g>
   <g id="text_15">
    <!-- Air Pressure (hPa) -->
    <g transform="translate(55.101812 333.992093) scale(0.17 -0.17)">
     <defs>
      <path id="SFProDisplay-Regular-50" d="M 438 4509 
L 2047 4509 
Q 2681 4509 3086 4104 
Q 3491 3700 3491 3063 
Q 3491 2422 3084 2015 
Q 2678 1609 2041 1609 
L 1000 1609 
L 1000 0 
L 438 0 
L 438 4509 
z
M 1000 4009 
L 1000 2109 
L 1900 2109 
Q 2381 2109 2647 2361 
Q 2913 2613 2913 3063 
Q 2913 3513 2648 3761 
Q 2384 4009 1900 4009 
L 1000 4009 
z
" transform="scale(0.015625)"/>
      <path id="SFProDisplay-Regular-73" d="M 297 2353 
Q 297 2772 636 3039 
Q 975 3306 1509 3306 
Q 2013 3306 2347 3037 
Q 2681 2769 2700 2356 
L 2181 2356 
Q 2153 2594 1970 2728 
Q 1788 2863 1491 2863 
Q 1194 2863 1012 2730 
Q 831 2597 831 2381 
Q 831 2050 1372 1913 
L 1875 1791 
Q 2366 1666 2567 1467 
Q 2769 1269 2769 909 
Q 2769 484 2406 214 
Q 2044 -56 1475 -56 
Q 944 -56 598 208 
Q 253 472 209 906 
L 753 906 
Q 844 388 1509 388 
Q 1838 388 2030 517 
Q 2222 647 2222 869 
Q 2222 1044 2108 1147 
Q 1994 1250 1722 1322 
L 1150 1469 
Q 297 1688 297 2353 
z
" transform="scale(0.015625)"/>
      <path id="SFProDisplay-Regular-68" d="M 381 0 
L 381 4509 
L 925 4509 
L 925 2731 
L 938 2731 
Q 1075 3006 1339 3156 
Q 1603 3306 1969 3306 
Q 2500 3306 2806 2978 
Q 3113 2650 3113 2100 
L 3113 0 
L 2569 0 
L 2569 2000 
Q 2569 2394 2373 2609 
Q 2178 2825 1800 2825 
Q 1397 2825 1161 2572 
Q 925 2319 925 1894 
L 925 0 
L 381 0 
z
" transform="scale(0.015625)"/>
     </defs>
     <use xlink:href="#SFProDisplay-Regular-41"/>
     <use xlink:href="#SFProDisplay-Regular-69" x="63.085938"/>
     <use xlink:href="#SFProDisplay-Regular-72" x="83.496094"/>
     <use xlink:href="#SFProDisplay-Regular-20" x="114.306641"/>
     <use xlink:href="#SFProDisplay-Regular-50" x="134.814453"/>
     <use xlink:href="#SFProDisplay-Regular-72" x="192.578125"/>
     <use xlink:href="#SFProDisplay-Regular-65" x="223.388672"/>
     <use xlink:href="#SFProDisplay-Regular-73" x="274.609375"/>
     <use xlink:href="#SFProDisplay-Regular-73" x="321.142578"/>
     <use xlink:href="#SFProDisplay-Regular-75" x="367.675781"/>
     <use xlink:href="#SFProDisplay-Regular-72" x="420.361328"/>
     <use xlink:href="#SFProDisplay-Regular-65" x="451.171875"/>
     <use xlink:href="#SFProDisplay-Regular-20" x="502.392578"/>
     <use xlink:href="#SFProDisplay-Regular-28" x="522.900391"/>
     <use xlink:href="#SFProDisplay-Regular-68" x="555.126953"/>
     <use xlink:href="#SFProDisplay-Regular-50" x="609.033203"/>
     <use xlink:href="#SFProDisplay-Regular-61" x="666.796875"/>
     <use xlink:href="#SFProDisplay-Regular-29" x="716.992188"/>
    </g>
   </g>
  </g>
  <g id="axes_4">
   <g id="patch_53">
    <path d="M 45.057812 605.16 
L 714.657812 605.16 
L 714.657812 466.099535 
L 45.057812 466.099535 
z
" style="fill: #ffffff"/>
   </g>
   <g id="matplotlib.axis_7">
    <g id="xtick_37">
     <g id="line2d_25">
      <defs>
       <path id="ma7cacac6e6" d="M 0 0 
L 0 3.5 
" style="stroke: #000000; stroke-width: 2"/>
      </defs>
      <g>
       <use xlink:href="#ma7cacac6e6" x="91.237123" y="605.16" style="stroke: #000000; stroke-width: 2"/>
      </g>
     </g>
     <g id="text_16">
      <!-- Jan -->
      <g transform="translate(77.452357 622.727969) scale(0.15 -0.15)">
       <defs>
        <path id="SFProDisplay-Black-4a" d="M 63 1597 
L 1331 1597 
Q 1331 1331 1461 1181 
Q 1591 1031 1819 1031 
Q 2038 1031 2152 1170 
Q 2266 1309 2266 1575 
L 2266 4509 
L 3591 4509 
L 3591 1566 
Q 3591 778 3128 350 
Q 2666 -78 1838 -78 
Q 1016 -78 539 369 
Q 63 816 63 1597 
z
" transform="scale(0.015625)"/>
        <path id="SFProDisplay-Black-61" d="M 1753 806 
Q 1975 806 2137 920 
Q 2300 1034 2300 1219 
L 2300 1444 
L 1756 1406 
Q 1575 1394 1475 1312 
Q 1375 1231 1375 1103 
Q 1375 966 1478 886 
Q 1581 806 1753 806 
z
M 1275 -50 
Q 794 -50 453 248 
Q 113 547 113 1003 
Q 113 1497 480 1767 
Q 847 2038 1544 2081 
L 2300 2128 
L 2300 2297 
Q 2300 2466 2184 2559 
Q 2069 2653 1884 2653 
Q 1694 2653 1572 2562 
Q 1450 2472 1434 2334 
L 291 2334 
Q 316 2891 759 3214 
Q 1203 3538 1953 3538 
Q 2669 3538 3109 3211 
Q 3550 2884 3550 2359 
L 3550 0 
L 2300 0 
L 2300 463 
L 2275 463 
Q 2144 219 1867 84 
Q 1591 -50 1275 -50 
z
" transform="scale(0.015625)"/>
        <path id="SFProDisplay-Black-6e" d="M 241 0 
L 241 3450 
L 1491 3450 
L 1491 2772 
L 1516 2772 
Q 1647 3138 1915 3328 
Q 2184 3519 2575 3519 
Q 3153 3519 3464 3176 
Q 3775 2834 3775 2209 
L 3775 0 
L 2494 0 
L 2494 1925 
Q 2494 2191 2370 2337 
Q 2247 2484 2009 2484 
Q 1784 2484 1653 2329 
Q 1522 2175 1522 1928 
L 1522 0 
L 241 0 
z
" transform="scale(0.015625)"/>
       </defs>
       <use xlink:href="#SFProDisplay-Black-4a"/>
       <use xlink:href="#SFProDisplay-Black-61" x="62.060547"/>
       <use xlink:href="#SFProDisplay-Black-6e" x="121.289062"/>
      </g>
     </g>
    </g>
    <g id="xtick_38">
     <g id="line2d_26">
      <g>
       <use xlink:href="#ma7cacac6e6" x="143.713612" y="605.16" style="stroke: #000000; stroke-width: 2"/>
      </g>
     </g>
     <g id="text_17">
      <!-- Feb -->
      <g transform="translate(130.170252 622.727969) scale(0.15 -0.15)">
       <defs>
        <path id="SFProDisplay-Black-46" d="M 1638 0 
L 313 0 
L 313 4509 
L 3481 4509 
L 3481 3456 
L 1638 3456 
L 1638 2591 
L 3306 2591 
L 3306 1597 
L 1638 1597 
L 1638 0 
z
" transform="scale(0.015625)"/>
        <path id="SFProDisplay-Black-65" d="M 1944 2656 
Q 1725 2656 1575 2512 
Q 1425 2369 1406 2147 
L 2481 2147 
Q 2466 2378 2317 2517 
Q 2169 2656 1944 2656 
z
M 2519 1119 
L 3659 1119 
Q 3578 559 3122 235 
Q 2666 -88 1956 -88 
Q 1109 -88 631 389 
Q 153 866 153 1706 
Q 153 2553 628 3045 
Q 1103 3538 1916 3538 
Q 2719 3538 3197 3064 
Q 3675 2591 3675 1800 
L 3675 1453 
L 1388 1453 
L 1388 1372 
Q 1388 1119 1553 955 
Q 1719 791 1975 791 
Q 2172 791 2317 878 
Q 2463 966 2519 1119 
z
" transform="scale(0.015625)"/>
        <path id="SFProDisplay-Black-62" d="M 2603 -50 
Q 2225 -50 1954 120 
Q 1684 291 1563 597 
L 1538 597 
L 1538 0 
L 256 0 
L 256 4509 
L 1538 4509 
L 1538 2828 
L 1563 2828 
Q 1684 3147 1951 3323 
Q 2219 3500 2588 3500 
Q 3241 3500 3591 3040 
Q 3941 2581 3941 1725 
Q 3941 872 3594 411 
Q 3247 -50 2603 -50 
z
M 2479 2298 
Q 2331 2513 2081 2513 
Q 1831 2513 1682 2298 
Q 1534 2084 1531 1722 
Q 1534 1356 1681 1147 
Q 1828 938 2081 938 
Q 2331 938 2479 1150 
Q 2628 1363 2628 1725 
Q 2628 2084 2479 2298 
z
" transform="scale(0.015625)"/>
       </defs>
       <use xlink:href="#SFProDisplay-Black-46"/>
       <use xlink:href="#SFProDisplay-Black-65" x="56.835938"/>
       <use xlink:href="#SFProDisplay-Black-62" x="116.601562"/>
      </g>
     </g>
    </g>
    <g id="xtick_39">
     <g id="line2d_27">
      <g>
       <use xlink:href="#ma7cacac6e6" x="196.190101" y="605.16" style="stroke: #000000; stroke-width: 2"/>
      </g>
     </g>
     <g id="text_18">
      <!-- Mar -->
      <g transform="translate(181.88971 622.727969) scale(0.15 -0.15)">
       <defs>
        <path id="SFProDisplay-Black-4d" d="M 5416 0 
L 4259 0 
L 4259 2613 
L 4234 2613 
L 3219 53 
L 2509 53 
L 1494 2613 
L 1469 2613 
L 1469 0 
L 313 0 
L 313 4509 
L 1844 4509 
L 2853 1878 
L 2878 1878 
L 3884 4509 
L 5416 4509 
L 5416 0 
z
" transform="scale(0.015625)"/>
        <path id="SFProDisplay-Black-72" d="M 241 0 
L 241 3450 
L 1491 3450 
L 1491 2772 
L 1516 2772 
Q 1709 3500 2322 3500 
Q 2488 3500 2622 3450 
L 2622 2375 
Q 2453 2447 2250 2447 
Q 1522 2447 1522 1719 
L 1522 0 
L 241 0 
z
" transform="scale(0.015625)"/>
       </defs>
       <use xlink:href="#SFProDisplay-Black-4d"/>
       <use xlink:href="#SFProDisplay-Black-61" x="89.501953"/>
       <use xlink:href="#SFProDisplay-Black-72" x="148.730469"/>
      </g>
     </g>
    </g>
    <g id="xtick_40">
     <g id="line2d_28">
      <g>
       <use xlink:href="#ma7cacac6e6" x="248.66659" y="605.16" style="stroke: #000000; stroke-width: 2"/>
      </g>
     </g>
     <g id="text_19">
      <!-- Apr -->
      <g transform="translate(235.124402 622.727969) scale(0.15 -0.15)">
       <defs>
        <path id="SFProDisplay-Black-41" d="M 3288 0 
L 3053 897 
L 1678 897 
L 1444 0 
L 94 0 
L 1566 4509 
L 3228 4509 
L 4700 0 
L 3288 0 
z
M 2353 3469 
L 1919 1831 
L 2813 1831 
L 2378 3469 
L 2353 3469 
z
" transform="scale(0.015625)"/>
        <path id="SFProDisplay-Black-70" d="M 2575 3500 
Q 3225 3500 3575 3040 
Q 3925 2581 3925 1725 
Q 3925 872 3578 411 
Q 3231 -50 2591 -50 
Q 2213 -50 1941 120 
Q 1669 291 1547 597 
L 1522 597 
L 1522 -1103 
L 241 -1103 
L 241 3450 
L 1525 3450 
L 1525 2828 
L 1547 2828 
Q 1672 3147 1939 3323 
Q 2206 3500 2575 3500 
z
M 1666 1148 
Q 1813 938 2066 938 
Q 2319 938 2466 1150 
Q 2613 1363 2613 1725 
Q 2613 2084 2464 2298 
Q 2316 2513 2066 2513 
Q 1816 2513 1667 2298 
Q 1519 2084 1516 1722 
Q 1519 1359 1666 1148 
z
" transform="scale(0.015625)"/>
       </defs>
       <use xlink:href="#SFProDisplay-Black-41"/>
       <use xlink:href="#SFProDisplay-Black-70" x="74.902344"/>
       <use xlink:href="#SFProDisplay-Black-72" x="138.623047"/>
      </g>
     </g>
    </g>
    <g id="xtick_41">
     <g id="line2d_29">
      <g>
       <use xlink:href="#ma7cacac6e6" x="301.143079" y="605.16" style="stroke: #000000; stroke-width: 2"/>
      </g>
     </g>
     <g id="text_20">
      <!-- May -->
      <g transform="translate(285.486829 622.727969) scale(0.15 -0.15)">
       <defs>
        <path id="SFProDisplay-Black-79" d="M 828 -1266 
L 372 -1266 
L 372 -313 
L 619 -313 
Q 891 -313 1017 -261 
Q 1144 -209 1144 -94 
Q 1144 -47 1128 0 
L -3 3450 
L 1419 3450 
L 1944 919 
L 1969 919 
L 2491 3450 
L 3844 3450 
L 2816 81 
Q 2597 -638 2133 -952 
Q 1669 -1266 828 -1266 
z
" transform="scale(0.015625)"/>
       </defs>
       <use xlink:href="#SFProDisplay-Black-4d"/>
       <use xlink:href="#SFProDisplay-Black-61" x="89.501953"/>
       <use xlink:href="#SFProDisplay-Black-79" x="148.730469"/>
      </g>
     </g>
    </g>
    <g id="xtick_42">
     <g id="line2d_30">
      <g>
       <use xlink:href="#ma7cacac6e6" x="353.619568" y="605.16" style="stroke: #000000; stroke-width: 2"/>
      </g>
     </g>
     <g id="text_21">
      <!-- Jun -->
      <g transform="translate(339.58988 622.727969) scale(0.15 -0.15)">
       <defs>
        <path id="SFProDisplay-Black-75" d="M 3759 3450 
L 3759 0 
L 2509 0 
L 2509 678 
L 2484 678 
Q 2378 319 2133 125 
Q 1888 -69 1509 -69 
Q 941 -69 583 282 
Q 225 634 225 1238 
L 225 3450 
L 1506 3450 
L 1506 1525 
Q 1506 1256 1640 1111 
Q 1775 966 2003 966 
Q 2219 966 2348 1119 
Q 2478 1272 2478 1522 
L 2478 3450 
L 3759 3450 
z
" transform="scale(0.015625)"/>
       </defs>
       <use xlink:href="#SFProDisplay-Black-4a"/>
       <use xlink:href="#SFProDisplay-Black-75" x="62.060547"/>
       <use xlink:href="#SFProDisplay-Black-6e" x="124.560547"/>
      </g>
     </g>
    </g>
    <g id="xtick_43">
     <g id="line2d_31">
      <g>
       <use xlink:href="#ma7cacac6e6" x="406.096057" y="605.16" style="stroke: #000000; stroke-width: 2"/>
      </g>
     </g>
     <g id="text_22">
      <!-- Jul -->
      <g transform="translate(394.651526 622.727969) scale(0.15 -0.15)">
       <defs>
        <path id="SFProDisplay-Black-6c" d="M 256 0 
L 256 4509 
L 1538 4509 
L 1538 0 
L 256 0 
z
" transform="scale(0.015625)"/>
       </defs>
       <use xlink:href="#SFProDisplay-Black-4a"/>
       <use xlink:href="#SFProDisplay-Black-75" x="62.060547"/>
       <use xlink:href="#SFProDisplay-Black-6c" x="124.560547"/>
      </g>
     </g>
    </g>
    <g id="xtick_44">
     <g id="line2d_32">
      <g>
       <use xlink:href="#ma7cacac6e6" x="458.572546" y="605.16" style="stroke: #000000; stroke-width: 2"/>
      </g>
     </g>
     <g id="text_23">
      <!-- Aug -->
      <g transform="translate(443.488171 622.727969) scale(0.15 -0.15)">
       <defs>
        <path id="SFProDisplay-Black-67" d="M 1608 1162 
Q 1750 969 2012 969 
Q 2275 969 2419 1161 
Q 2563 1353 2563 1722 
Q 2563 2091 2416 2302 
Q 2269 2513 2012 2513 
Q 1756 2513 1611 2302 
Q 1466 2091 1466 1725 
Q 1466 1356 1608 1162 
z
M 1963 -1300 
Q 1194 -1300 733 -998 
Q 272 -697 231 -206 
L 1463 -206 
Q 1491 -331 1634 -411 
Q 1778 -491 1991 -491 
Q 2269 -491 2412 -359 
Q 2556 -228 2556 -3 
L 2556 659 
L 2531 659 
Q 2447 384 2165 214 
Q 1884 44 1500 44 
Q 884 44 518 489 
Q 153 934 153 1734 
Q 153 2566 514 3033 
Q 875 3500 1519 3500 
Q 1888 3500 2158 3314 
Q 2428 3128 2531 2828 
L 2556 2828 
L 2556 3450 
L 3838 3450 
L 3838 28 
Q 3838 -581 3320 -940 
Q 2803 -1300 1963 -1300 
z
" transform="scale(0.015625)"/>
       </defs>
       <use xlink:href="#SFProDisplay-Black-41"/>
       <use xlink:href="#SFProDisplay-Black-75" x="74.902344"/>
       <use xlink:href="#SFProDisplay-Black-67" x="137.402344"/>
      </g>
     </g>
    </g>
    <g id="xtick_45">
     <g id="line2d_33">
      <g>
       <use xlink:href="#ma7cacac6e6" x="511.049035" y="605.16" style="stroke: #000000; stroke-width: 2"/>
      </g>
     </g>
     <g id="text_24">
      <!-- Sep -->
      <g transform="translate(496.77091 622.913125) scale(0.15 -0.15)">
       <defs>
        <path id="SFProDisplay-Black-53" d="M 188 1328 
L 1441 1328 
Q 1469 1141 1672 1022 
Q 1875 903 2147 903 
Q 2441 903 2614 1009 
Q 2788 1116 2788 1281 
Q 2788 1438 2647 1520 
Q 2506 1603 2138 1669 
L 1541 1775 
Q 922 1881 592 2225 
Q 263 2569 263 3100 
Q 263 3775 781 4181 
Q 1300 4588 2119 4588 
Q 3009 4588 3500 4206 
Q 3991 3825 3997 3163 
L 2788 3163 
Q 2781 3369 2600 3489 
Q 2419 3609 2144 3609 
Q 1884 3609 1731 3509 
Q 1578 3409 1578 3241 
Q 1578 3081 1722 2987 
Q 1866 2894 2191 2838 
L 2809 2731 
Q 3466 2616 3780 2298 
Q 4094 1981 4094 1431 
Q 4094 741 3558 331 
Q 3022 -78 2122 -78 
Q 1209 -78 700 289 
Q 191 656 188 1328 
z
" transform="scale(0.015625)"/>
       </defs>
       <use xlink:href="#SFProDisplay-Black-53"/>
       <use xlink:href="#SFProDisplay-Black-65" x="66.894531"/>
       <use xlink:href="#SFProDisplay-Black-70" x="126.660156"/>
      </g>
     </g>
    </g>
    <g id="xtick_46">
     <g id="line2d_34">
      <g>
       <use xlink:href="#ma7cacac6e6" x="563.525524" y="605.16" style="stroke: #000000; stroke-width: 2"/>
      </g>
     </g>
     <g id="text_25">
      <!-- Oct -->
      <g transform="translate(550.242321 622.727969) scale(0.15 -0.15)">
       <defs>
        <path id="SFProDisplay-Black-4f" d="M 815 3959 
Q 1428 4588 2475 4588 
Q 3522 4588 4134 3959 
Q 4747 3331 4747 2253 
Q 4747 1175 4134 548 
Q 3522 -78 2475 -78 
Q 1425 -78 814 548 
Q 203 1175 203 2253 
Q 203 3331 815 3959 
z
M 3144 3184 
Q 2891 3531 2475 3531 
Q 2059 3531 1806 3184 
Q 1553 2838 1553 2253 
Q 1553 1672 1804 1325 
Q 2056 978 2475 978 
Q 2894 978 3145 1325 
Q 3397 1672 3397 2253 
Q 3397 2838 3144 3184 
z
" transform="scale(0.015625)"/>
        <path id="SFProDisplay-Black-63" d="M 3628 2022 
L 2463 2022 
Q 2444 2281 2309 2432 
Q 2175 2584 1969 2584 
Q 1716 2584 1583 2365 
Q 1450 2147 1450 1728 
Q 1450 1306 1581 1086 
Q 1713 866 1969 866 
Q 2184 866 2315 1008 
Q 2447 1150 2463 1406 
L 3628 1406 
Q 3619 706 3172 309 
Q 2725 -88 1953 -88 
Q 1113 -88 633 395 
Q 153 878 153 1728 
Q 153 2572 633 3055 
Q 1113 3538 1947 3538 
Q 2703 3538 3159 3128 
Q 3616 2719 3628 2022 
z
" transform="scale(0.015625)"/>
        <path id="SFProDisplay-Black-74" d="M 550 4206 
L 1831 4206 
L 1831 3450 
L 2438 3450 
L 2438 2522 
L 1831 2522 
L 1831 1247 
Q 1831 919 2219 919 
Q 2344 919 2438 934 
L 2438 47 
Q 2209 0 1909 0 
Q 1181 0 865 225 
Q 550 450 550 963 
L 550 2522 
L 94 2522 
L 94 3450 
L 550 3450 
L 550 4206 
z
" transform="scale(0.015625)"/>
       </defs>
       <use xlink:href="#SFProDisplay-Black-4f"/>
       <use xlink:href="#SFProDisplay-Black-63" x="77.34375"/>
       <use xlink:href="#SFProDisplay-Black-74" x="136.181641"/>
      </g>
     </g>
    </g>
    <g id="xtick_47">
     <g id="line2d_35">
      <g>
       <use xlink:href="#ma7cacac6e6" x="616.002013" y="605.16" style="stroke: #000000; stroke-width: 2"/>
      </g>
     </g>
     <g id="text_26">
      <!-- Nov -->
      <g transform="translate(601.627794 622.727969) scale(0.15 -0.15)">
       <defs>
        <path id="SFProDisplay-Black-4e" d="M 1563 0 
L 313 0 
L 313 4509 
L 1341 4509 
L 3081 2172 
L 3106 2172 
L 3106 4509 
L 4356 4509 
L 4356 0 
L 3341 0 
L 1588 2375 
L 1563 2375 
L 1563 0 
z
" transform="scale(0.015625)"/>
        <path id="SFProDisplay-Black-6f" d="M 1966 -88 
Q 1116 -88 634 385 
Q 153 859 153 1728 
Q 153 2575 642 3056 
Q 1131 3538 1966 3538 
Q 2806 3538 3293 3058 
Q 3781 2578 3781 1728 
Q 3781 859 3300 385 
Q 2819 -88 1966 -88 
z
M 1966 828 
Q 2206 828 2343 1062 
Q 2481 1297 2481 1725 
Q 2481 2144 2342 2383 
Q 2203 2622 1965 2622 
Q 1728 2622 1590 2383 
Q 1453 2144 1453 1725 
Q 1453 1294 1587 1061 
Q 1722 828 1966 828 
z
" transform="scale(0.015625)"/>
        <path id="SFProDisplay-Black-76" d="M 3697 3450 
L 2591 0 
L 1088 0 
L -34 3450 
L 1347 3450 
L 1847 1034 
L 1872 1034 
L 2356 3450 
L 3697 3450 
z
" transform="scale(0.015625)"/>
       </defs>
       <use xlink:href="#SFProDisplay-Black-4e"/>
       <use xlink:href="#SFProDisplay-Black-6f" x="72.949219"/>
       <use xlink:href="#SFProDisplay-Black-76" x="134.423828"/>
      </g>
     </g>
    </g>
    <g id="xtick_48">
     <g id="line2d_36">
      <g>
       <use xlink:href="#ma7cacac6e6" x="668.478502" y="605.16" style="stroke: #000000; stroke-width: 2"/>
      </g>
     </g>
     <g id="text_27">
      <!-- Dec -->
      <g transform="translate(654.173424 622.727969) scale(0.15 -0.15)">
       <defs>
        <path id="SFProDisplay-Black-44" d="M 313 4509 
L 2241 4509 
Q 3275 4509 3844 3936 
Q 4413 3363 4413 2288 
Q 4413 1206 3839 603 
Q 3266 0 2241 0 
L 313 0 
L 313 4509 
z
M 1638 3456 
L 1638 1053 
L 2053 1053 
Q 3063 1053 3063 2288 
Q 3063 2853 2798 3154 
Q 2534 3456 2053 3456 
L 1638 3456 
z
" transform="scale(0.015625)"/>
       </defs>
       <use xlink:href="#SFProDisplay-Black-44"/>
       <use xlink:href="#SFProDisplay-Black-65" x="72.119141"/>
       <use xlink:href="#SFProDisplay-Black-63" x="131.884766"/>
      </g>
     </g>
    </g>
   </g>
   <g id="matplotlib.axis_8">
    <g id="ytick_13">
     <g id="line2d_37">
      <path d="M 45.057812 605.16 
L 714.657812 605.16 
" clip-path="url(#pcf8d11fde2)" style="fill: none; stroke-dasharray: 3.7,1.6; stroke-dashoffset: 0; stroke: #d3d3d3"/>
     </g>
     <g id="line2d_38">
      <g>
       <use xlink:href="#m02bcdd9b09" x="45.057812" y="605.16" style="stroke: #000000; stroke-width: 2"/>
      </g>
     </g>
     <g id="text_28">
      <!-- 0 -->
      <g style="fill: #0000ff" transform="translate(27.635156 610.443984) scale(0.15 -0.15)">
       <defs>
        <path id="SFProDisplay-Black-30" d="M 2225 -125 
Q 1306 -125 772 514 
Q 238 1153 238 2266 
Q 238 3381 773 4009 
Q 1309 4638 2225 4638 
Q 3141 4638 3675 4011 
Q 4209 3384 4209 2269 
Q 4209 1156 3675 515 
Q 3141 -125 2225 -125 
z
M 1763 1244 
Q 1938 894 2225 894 
Q 2513 894 2686 1244 
Q 2859 1594 2859 2266 
Q 2859 2938 2687 3278 
Q 2516 3619 2225 3619 
Q 1934 3619 1761 3278 
Q 1588 2938 1588 2266 
Q 1588 1594 1763 1244 
z
" transform="scale(0.015625)"/>
       </defs>
       <use xlink:href="#SFProDisplay-Black-30"/>
      </g>
     </g>
    </g>
    <g id="ytick_14">
     <g id="line2d_39">
      <path d="M 45.057812 568.565141 
L 714.657812 568.565141 
" clip-path="url(#pcf8d11fde2)" style="fill: none; stroke-dasharray: 3.7,1.6; stroke-dashoffset: 0; stroke: #d3d3d3"/>
     </g>
     <g id="line2d_40">
      <g>
       <use xlink:href="#m02bcdd9b09" x="45.057812" y="568.565141" style="stroke: #000000; stroke-width: 2"/>
      </g>
     </g>
     <g id="text_29">
      <!-- 100 -->
      <g style="fill: #0000ff" transform="translate(9.464062 573.849125) scale(0.15 -0.15)">
       <use xlink:href="#SFProDisplay-Black-31"/>
       <use xlink:href="#SFProDisplay-Black-30" x="51.660156"/>
       <use xlink:href="#SFProDisplay-Black-30" x="121.142578"/>
      </g>
     </g>
    </g>
    <g id="ytick_15">
     <g id="line2d_41">
      <path d="M 45.057812 531.970282 
L 714.657812 531.970282 
" clip-path="url(#pcf8d11fde2)" style="fill: none; stroke-dasharray: 3.7,1.6; stroke-dashoffset: 0; stroke: #d3d3d3"/>
     </g>
     <g id="line2d_42">
      <g>
       <use xlink:href="#m02bcdd9b09" x="45.057812" y="531.970282" style="stroke: #000000; stroke-width: 2"/>
      </g>
     </g>
     <g id="text_30">
      <!-- 200 -->
      <g style="fill: #0000ff" transform="translate(7.610156 537.254266) scale(0.15 -0.15)">
       <use xlink:href="#SFProDisplay-Black-32"/>
       <use xlink:href="#SFProDisplay-Black-30" x="64.013672"/>
       <use xlink:href="#SFProDisplay-Black-30" x="133.496094"/>
      </g>
     </g>
    </g>
    <g id="ytick_16">
     <g id="line2d_43">
      <path d="M 45.057812 495.375422 
L 714.657812 495.375422 
" clip-path="url(#pcf8d11fde2)" style="fill: none; stroke-dasharray: 3.7,1.6; stroke-dashoffset: 0; stroke: #d3d3d3"/>
     </g>
     <g id="line2d_44">
      <g>
       <use xlink:href="#m02bcdd9b09" x="45.057812" y="495.375422" style="stroke: #000000; stroke-width: 2"/>
      </g>
     </g>
     <g id="text_31">
      <!-- 300 -->
      <g style="fill: #0000ff" transform="translate(7.2 500.659407) scale(0.15 -0.15)">
       <use xlink:href="#SFProDisplay-Black-33"/>
       <use xlink:href="#SFProDisplay-Black-30" x="66.748047"/>
       <use xlink:href="#SFProDisplay-Black-30" x="136.230469"/>
      </g>
     </g>
    </g>
   </g>
   <g id="patch_54">
    <path d="M 75.494176 605.16 
L 106.98007 605.16 
L 106.98007 501.259876 
L 75.494176 501.259876 
z
" clip-path="url(#pcf8d11fde2)" style="fill: #0000ff; opacity: 0.8"/>
   </g>
   <g id="patch_55">
    <path d="M 127.970665 605.16 
L 159.456559 605.16 
L 159.456559 497.190527 
L 127.970665 497.190527 
z
" clip-path="url(#pcf8d11fde2)" style="fill: #0000ff; opacity: 0.8"/>
   </g>
   <g id="patch_56">
    <path d="M 180.447154 605.16 
L 211.933048 605.16 
L 211.933048 540.899427 
L 180.447154 540.899427 
z
" clip-path="url(#pcf8d11fde2)" style="fill: #0000ff; opacity: 0.8"/>
   </g>
   <g id="patch_57">
    <path d="M 232.923643 605.16 
L 264.409537 605.16 
L 264.409537 578.840977 
L 232.923643 578.840977 
z
" clip-path="url(#pcf8d11fde2)" style="fill: #0000ff; opacity: 0.8"/>
   </g>
   <g id="patch_58">
    <path d="M 285.400132 605.16 
L 316.886026 605.16 
L 316.886026 587.594468 
L 285.400132 587.594468 
z
" clip-path="url(#pcf8d11fde2)" style="fill: #0000ff; opacity: 0.8"/>
   </g>
   <g id="patch_59">
    <path d="M 337.876621 605.16 
L 369.362515 605.16 
L 369.362515 586.130673 
L 337.876621 586.130673 
z
" clip-path="url(#pcf8d11fde2)" style="fill: #0000ff; opacity: 0.8"/>
   </g>
   <g id="patch_60">
    <path d="M 390.35311 605.16 
L 421.839004 605.16 
L 421.839004 589.190003 
L 390.35311 589.190003 
z
" clip-path="url(#pcf8d11fde2)" style="fill: #0000ff; opacity: 0.8"/>
   </g>
   <g id="patch_61">
    <path d="M 442.829599 605.16 
L 474.315493 605.16 
L 474.315493 593.2008 
L 442.829599 593.2008 
z
" clip-path="url(#pcf8d11fde2)" style="fill: #0000ff; opacity: 0.8"/>
   </g>
   <g id="patch_62">
    <path d="M 495.306088 605.16 
L 526.791982 605.16 
L 526.791982 578.870253 
L 495.306088 578.870253 
z
" clip-path="url(#pcf8d11fde2)" style="fill: #0000ff; opacity: 0.8"/>
   </g>
   <g id="patch_63">
    <path d="M 547.782577 605.16 
L 579.268471 605.16 
L 579.268471 541.221462 
L 547.782577 541.221462 
z
" clip-path="url(#pcf8d11fde2)" style="fill: #0000ff; opacity: 0.8"/>
   </g>
   <g id="patch_64">
    <path d="M 600.259066 605.16 
L 631.74496 605.16 
L 631.74496 555.552009 
L 600.259066 555.552009 
z
" clip-path="url(#pcf8d11fde2)" style="fill: #0000ff; opacity: 0.8"/>
   </g>
   <g id="patch_65">
    <path d="M 652.735555 605.16 
L 684.221449 605.16 
L 684.221449 533.580455 
L 652.735555 533.580455 
z
" clip-path="url(#pcf8d11fde2)" style="fill: #0000ff; opacity: 0.8"/>
   </g>
   <g id="patch_66">
    <path d="M 45.057812 605.16 
L 45.057812 466.099535 
" style="fill: none; stroke: #000000; stroke-width: 2; stroke-linejoin: miter; stroke-linecap: square"/>
   </g>
   <g id="patch_67">
    <path d="M 714.657812 605.16 
L 714.657812 466.099535 
" style="fill: none; stroke: #000000; stroke-width: 2; stroke-linejoin: miter; stroke-linecap: square"/>
   </g>
   <g id="patch_68">
    <path d="M 45.057812 605.16 
L 714.657813 605.16 
" style="fill: none; stroke: #000000; stroke-width: 2; stroke-linejoin: miter; stroke-linecap: square"/>
   </g>
   <g id="patch_69">
    <path d="M 45.057812 466.099535 
L 714.657813 466.099535 
" style="fill: none; stroke: #000000; stroke-width: 2; stroke-linejoin: miter; stroke-linecap: square"/>
   </g>
   <g id="text_32">
    <!-- Precipitation (mm) -->
    <g transform="translate(55.101812 486.958605) scale(0.17 -0.17)">
     <defs>
      <path id="SFProDisplay-Regular-63" d="M 3053 2184 
L 2522 2184 
Q 2459 2466 2245 2647 
Q 2031 2828 1691 2828 
Q 1266 2828 1006 2501 
Q 747 2175 747 1625 
Q 747 1066 1008 744 
Q 1269 422 1697 422 
Q 2025 422 2239 586 
Q 2453 750 2525 1047 
L 3059 1047 
Q 2997 559 2620 251 
Q 2244 -56 1694 -56 
Q 1013 -56 603 395 
Q 194 847 194 1625 
Q 194 2391 603 2848 
Q 1013 3306 1688 3306 
Q 2269 3306 2633 2978 
Q 2997 2650 3053 2184 
z
" transform="scale(0.015625)"/>
      <path id="SFProDisplay-Regular-6f" d="M 1700 -56 
Q 1019 -56 606 398 
Q 194 853 194 1625 
Q 194 2397 606 2851 
Q 1019 3306 1700 3306 
Q 2378 3306 2790 2851 
Q 3203 2397 3203 1625 
Q 3203 856 2790 400 
Q 2378 -56 1700 -56 
z
M 1005 740 
Q 1263 422 1700 422 
Q 2138 422 2394 739 
Q 2650 1056 2650 1625 
Q 2650 2194 2394 2511 
Q 2138 2828 1700 2828 
Q 1263 2828 1005 2509 
Q 747 2191 747 1625 
Q 747 1059 1005 740 
z
" transform="scale(0.015625)"/>
      <path id="SFProDisplay-Regular-6e" d="M 353 0 
L 353 3250 
L 866 3250 
L 866 2731 
L 878 2731 
Q 1019 3003 1281 3154 
Q 1544 3306 1909 3306 
Q 2441 3306 2737 2986 
Q 3034 2666 3034 2109 
L 3034 0 
L 2491 0 
L 2491 2013 
Q 2491 2409 2303 2617 
Q 2116 2825 1744 2825 
Q 1359 2825 1128 2575 
Q 897 2325 897 1913 
L 897 0 
L 353 0 
z
" transform="scale(0.015625)"/>
     </defs>
     <use xlink:href="#SFProDisplay-Regular-50"/>
     <use xlink:href="#SFProDisplay-Regular-72" x="57.763672"/>
     <use xlink:href="#SFProDisplay-Regular-65" x="88.574219"/>
     <use xlink:href="#SFProDisplay-Regular-63" x="139.794922"/>
     <use xlink:href="#SFProDisplay-Regular-69" x="189.892578"/>
     <use xlink:href="#SFProDisplay-Regular-70" x="210.302734"/>
     <use xlink:href="#SFProDisplay-Regular-69" x="265.234375"/>
     <use xlink:href="#SFProDisplay-Regular-74" x="285.644531"/>
     <use xlink:href="#SFProDisplay-Regular-61" x="315.771484"/>
     <use xlink:href="#SFProDisplay-Regular-74" x="365.966797"/>
     <use xlink:href="#SFProDisplay-Regular-69" x="396.09375"/>
     <use xlink:href="#SFProDisplay-Regular-6f" x="416.503906"/>
     <use xlink:href="#SFProDisplay-Regular-6e" x="469.580078"/>
     <use xlink:href="#SFProDisplay-Regular-20" x="522.265625"/>
     <use xlink:href="#SFProDisplay-Regular-28" x="542.773438"/>
     <use xlink:href="#SFProDisplay-Regular-6d" x="575"/>
     <use xlink:href="#SFProDisplay-Regular-6d" x="655.322266"/>
     <use xlink:href="#SFProDisplay-Regular-29" x="735.644531"/>
    </g>
   </g>
  </g>
 </g>
 <defs>
  <clipPath id="p9209b2812b">
   <rect x="45.057812" y="7.2" width="669.6" height="139.060465"/>
  </clipPath>
  <clipPath id="p432b8295d5">
   <rect x="45.057812" y="160.166512" width="669.6" height="139.060465"/>
  </clipPath>
  <clipPath id="p0586719ebe">
   <rect x="45.057812" y="313.133023" width="669.6" height="139.060465"/>
  </clipPath>
  <clipPath id="pcf8d11fde2">
   <rect x="45.057812" y="466.099535" width="669.6" height="139.060465"/>
  </clipPath>
 </defs>
</svg>
