<svg xmlns:xlink="http://www.w3.org/1999/xlink" xmlns="http://www.w3.org/2000/svg" width="594.084844pt" height="515.47625pt" viewBox="-3 -3 600 521" version="1.1"><g id="deeditor_bgCarrier" stroke-width="0">
    <rect id="dee_c_e" x="-3" y="-3" width="600" height="521" rx="0" fill="#ffffff" strokewidth="0"/>
  </g>
 <metadata fill="#000000">
  <rdf:RDF xmlns:dc="http://purl.org/dc/elements/1.1/" xmlns:cc="http://creativecommons.org/ns#" xmlns:rdf="http://www.w3.org/1999/02/22-rdf-syntax-ns#" fill="#000000">
   <cc:Work fill="#000000">
    <dc:type rdf:resource="http://purl.org/dc/dcmitype/StillImage" fill="#000000"/>
    <dc:date fill="#000000">2025-08-14T16:33:31.397990</dc:date>
    <dc:format fill="#000000">image/svg+xml</dc:format>
    <dc:creator fill="#000000">
     <cc:Agent fill="#000000">
      <dc:title fill="#000000">Matplotlib v3.10.0, https://matplotlib.org/</dc:title>
     </cc:Agent>
    </dc:creator>
   </cc:Work>
  </rdf:RDF>
 </metadata>
 <defs fill="#000000">
  <style type="text/css">*{stroke-linejoin: round; stroke-linecap: butt}</style>
 </defs>
 <g id="figure_1">
  <g id="patch_1">
   <path d="M 0 515.47625  L 594.084844 515.47625  L 594.084844 0  L 0 0  L 0 515.47625  z " style="fill: none"/>
  </g>
  <g id="axes_1">
   <g id="patch_2">
    <path d="M 489.048125 257.738125  C 489.048125 227.482274 483.088382 197.520623 471.509969 169.567862  C 459.931556 141.615101 442.959645 116.21484 421.565527 94.820723  C 400.17141 73.426605 374.771149 56.454694 346.818388 44.876281  C 318.865627 33.297868 288.903976 27.338125 258.648125 27.338125  C 228.392274 27.338125 198.430623 33.297868 170.477862 44.876281  C 142.525101 56.454694 117.12484 73.426605 95.730723 94.820723  C 74.336605 116.21484 57.364694 141.615101 45.786281 169.567862  C 34.207868 197.520623 28.248125 227.482274 28.248125 257.738125  C 28.248125 287.993976 34.207868 317.955627 45.786281 345.908388  C 57.364694 373.861149 74.336605 399.26141 95.730723 420.655527  C 117.12484 442.049645 142.525101 459.021556 170.477862 470.599969  C 198.430623 482.178382 228.392274 488.138125 258.648125 488.138125  C 288.903976 488.138125 318.865627 482.178382 346.818388 470.599969  C 374.771149 459.021556 400.17141 442.049645 421.565527 420.655527  C 442.959645 399.26141 459.931556 373.861149 471.509969 345.908388  C 483.088382 317.955627 489.048125 287.993976 489.048125 257.738125  M 258.648125 257.738125  C 258.648125 257.738125 258.648125 257.738125 258.648125 257.738125  C 258.648125 257.738125 258.648125 257.738125 258.648125 257.738125  C 258.648125 257.738125 258.648125 257.738125 258.648125 257.738125  C 258.648125 257.738125 258.648125 257.738125 258.648125 257.738125  C 258.648125 257.738125 258.648125 257.738125 258.648125 257.738125  C 258.648125 257.738125 258.648125 257.738125 258.648125 257.738125  C 258.648125 257.738125 258.648125 257.738125 258.648125 257.738125  C 258.648125 257.738125 258.648125 257.738125 258.648125 257.738125  C 258.648125 257.738125 258.648125 257.738125 258.648125 257.738125  C 258.648125 257.738125 258.648125 257.738125 258.648125 257.738125  C 258.648125 257.738125 258.648125 257.738125 258.648125 257.738125  C 258.648125 257.738125 258.648125 257.738125 258.648125 257.738125  C 258.648125 257.738125 258.648125 257.738125 258.648125 257.738125  C 258.648125 257.738125 258.648125 257.738125 258.648125 257.738125  C 258.648125 257.738125 258.648125 257.738125 258.648125 257.738125  C 258.648125 257.738125 258.648125 257.738125 258.648125 257.738125  L 258.648125 257.738125  z " style="fill: none"/>
   </g>
   <g id="matplotlib.axis_1">
    <g id="xtick_1">
     <g id="line2d_1">
      <path d="M 258.648125 257.738125  L 489.048125 257.738125  " clip-path="url(#p2efe7151e5)" style="fill: none; stroke-dasharray: 3.7,1.6; stroke-dashoffset: 0; stroke: #b0b0b0"/>
     </g>
     <g id="text_1">
      <!-- E -->
      <g transform="translate(498.891875 261.463437) scale(0.14 -0.14)">
       <defs fill="#000000">
        <path id="SFProDisplay-Black-45" d="M 3494 1053  L 3494 0  L 313 0  L 313 4509  L 3494 4509  L 3494 3456  L 1638 3456  L 1638 2728  L 3378 2728  L 3378 1778  L 1638 1778  L 1638 1053  L 3494 1053  z " transform="scale(0.015625)" fill="#000000"/>
       </defs>
       <use xlink:href="#SFProDisplay-Black-45" fill="#000000"/>
      </g>
     </g>
    </g>
    <g id="xtick_2">
     <g id="line2d_2">
      <path d="M 258.648125 257.738125  L 421.565527 94.820723  " clip-path="url(#p2efe7151e5)" style="fill: none; stroke-dasharray: 3.7,1.6; stroke-dashoffset: 0; stroke: #b0b0b0"/>
     </g>
     <g id="text_2">
      <!-- N E -->
      <g transform="translate(420.868772 88.64654) scale(0.14 -0.14)">
       <defs fill="#000000">
        <path id="SFProDisplay-Black-4e" d="M 1563 0  L 313 0  L 313 4509  L 1341 4509  L 3081 2172  L 3106 2172  L 3106 4509  L 4356 4509  L 4356 0  L 3341 0  L 1588 2375  L 1563 2375  L 1563 0  z " transform="scale(0.015625)" fill="#000000"/>
        <path id="SFProDisplay-Black-20" transform="scale(0.015625)" fill="#000000"/>
       </defs>
       <use xlink:href="#SFProDisplay-Black-4e" fill="#000000"/>
       <use xlink:href="#SFProDisplay-Black-20" transform="translate(72.949219 0)" fill="#000000"/>
       <use xlink:href="#SFProDisplay-Black-45" transform="translate(91.992188 0)" fill="#000000"/>
      </g>
     </g>
    </g>
    <g id="xtick_3">
     <g id="line2d_3">
      <path d="M 258.648125 257.738125  L 258.648125 27.338125  " clip-path="url(#p2efe7151e5)" style="fill: none; stroke-dasharray: 3.7,1.6; stroke-dashoffset: 0; stroke: #b0b0b0"/>
     </g>
     <g id="text_3">
      <!-- N -->
      <g transform="translate(253.541406 17.063437) scale(0.14 -0.14)">
       <use xlink:href="#SFProDisplay-Black-4e" fill="#000000"/>
      </g>
     </g>
    </g>
    <g id="xtick_4">
     <g id="line2d_4">
      <path d="M 258.648125 257.738125  L 95.730723 94.820723  " clip-path="url(#p2efe7151e5)" style="fill: none; stroke-dasharray: 3.7,1.6; stroke-dashoffset: 0; stroke: #b0b0b0"/>
     </g>
     <g id="text_4">
      <!-- N W -->
      <g transform="translate(72.343103 88.64654) scale(0.14 -0.14)">
       <defs fill="#000000">
        <path id="SFProDisplay-Black-57" d="M 3209 2581  L 2538 0  L 1288 0  L 125 4509  L 1494 4509  L 2013 1659  L 2038 1659  L 2709 4509  L 3734 4509  L 4406 1659  L 4431 1659  L 4950 4509  L 6319 4509  L 5156 0  L 3906 0  L 3234 2581  L 3209 2581  z " transform="scale(0.015625)" fill="#000000"/>
       </defs>
       <use xlink:href="#SFProDisplay-Black-4e" fill="#000000"/>
       <use xlink:href="#SFProDisplay-Black-20" transform="translate(72.949219 0)" fill="#000000"/>
       <use xlink:href="#SFProDisplay-Black-57" transform="translate(91.992188 0)" fill="#000000"/>
      </g>
     </g>
    </g>
    <g id="xtick_5">
     <g id="line2d_5">
      <path d="M 258.648125 257.738125  L 28.248125 257.738125  " clip-path="url(#p2efe7151e5)" style="fill: none; stroke-dasharray: 3.7,1.6; stroke-dashoffset: 0; stroke: #b0b0b0"/>
     </g>
     <g id="text_5">
      <!-- W -->
      <g transform="translate(7.2 261.463437) scale(0.14 -0.14)">
       <use xlink:href="#SFProDisplay-Black-57" fill="#000000"/>
      </g>
     </g>
    </g>
    <g id="xtick_6">
     <g id="line2d_6">
      <path d="M 258.648125 257.738125  L 95.730723 420.655527  " clip-path="url(#p2efe7151e5)" style="fill: none; stroke-dasharray: 3.7,1.6; stroke-dashoffset: 0; stroke: #b0b0b0"/>
     </g>
     <g id="text_6">
      <!-- S W -->
      <g transform="translate(72.767478 434.280335) scale(0.14 -0.14)">
       <defs fill="#000000">
        <path id="SFProDisplay-Black-53" d="M 188 1328  L 1441 1328  Q 1469 1141 1672 1022  Q 1875 903 2147 903  Q 2441 903 2614 1009  Q 2788 1116 2788 1281  Q 2788 1438 2647 1520  Q 2506 1603 2138 1669  L 1541 1775  Q 922 1881 592 2225  Q 263 2569 263 3100  Q 263 3775 781 4181  Q 1300 4588 2119 4588  Q 3009 4588 3500 4206  Q 3991 3825 3997 3163  L 2788 3163  Q 2781 3369 2600 3489  Q 2419 3609 2144 3609  Q 1884 3609 1731 3509  Q 1578 3409 1578 3241  Q 1578 3081 1722 2987  Q 1866 2894 2191 2838  L 2809 2731  Q 3466 2616 3780 2298  Q 4094 1981 4094 1431  Q 4094 741 3558 331  Q 3022 -78 2122 -78  Q 1209 -78 700 289  Q 191 656 188 1328  z " transform="scale(0.015625)" fill="#000000"/>
       </defs>
       <use xlink:href="#SFProDisplay-Black-53" fill="#000000"/>
       <use xlink:href="#SFProDisplay-Black-20" transform="translate(66.894531 0)" fill="#000000"/>
       <use xlink:href="#SFProDisplay-Black-57" transform="translate(85.9375 0)" fill="#000000"/>
      </g>
     </g>
    </g>
    <g id="xtick_7">
     <g id="line2d_7">
      <path d="M 258.648125 257.738125  L 258.648125 488.138125  " clip-path="url(#p2efe7151e5)" style="fill: none; stroke-dasharray: 3.7,1.6; stroke-dashoffset: 0; stroke: #b0b0b0"/>
     </g>
     <g id="text_7">
      <!-- S -->
      <g transform="translate(253.965781 505.863437) scale(0.14 -0.14)">
       <use xlink:href="#SFProDisplay-Black-53" fill="#000000"/>
      </g>
     </g>
    </g>
    <g id="xtick_8">
     <g id="line2d_8">
      <path d="M 258.648125 257.738125  L 421.565527 420.655527  " clip-path="url(#p2efe7151e5)" style="fill: none; stroke-dasharray: 3.7,1.6; stroke-dashoffset: 0; stroke: #b0b0b0"/>
     </g>
     <g id="text_8">
      <!-- S E -->
      <g transform="translate(421.293147 434.280335) scale(0.14 -0.14)">
       <use xlink:href="#SFProDisplay-Black-53" fill="#000000"/>
       <use xlink:href="#SFProDisplay-Black-20" transform="translate(66.894531 0)" fill="#000000"/>
       <use xlink:href="#SFProDisplay-Black-45" transform="translate(85.9375 0)" fill="#000000"/>
      </g>
     </g>
    </g>
   </g>
   <g id="matplotlib.axis_2">
    <g id="ytick_1">
     <g id="line2d_9">
      <path d="M 304.728125 257.738125  C 304.728125 251.686955 303.536176 245.694625 301.220494 240.104072  C 298.904811 234.51352 295.510429 229.433468 291.231605 225.154645  C 286.952782 220.875821 281.87273 217.481439 276.282178 215.165756  C 270.691625 212.850074 264.699295 211.658125 258.648125 211.658125  C 252.596955 211.658125 246.604625 212.850074 241.014072 215.165756  C 235.42352 217.481439 230.343468 220.875821 226.064645 225.154645  C 221.785821 229.433468 218.391439 234.51352 216.075756 240.104072  C 213.760074 245.694625 212.568125 251.686955 212.568125 257.738125  C 212.568125 263.789295 213.760074 269.781625 216.075756 275.372178  C 218.391439 280.96273 221.785821 286.042782 226.064645 290.321605  C 230.343468 294.600429 235.42352 297.994811 241.014072 300.310494  C 246.604625 302.626176 252.596955 303.818125 258.648125 303.818125  C 264.699295 303.818125 270.691625 302.626176 276.282178 300.310494  C 281.87273 297.994811 286.952782 294.600429 291.231605 290.321605  C 295.510429 286.042782 298.904811 280.96273 301.220494 275.372178  C 303.536176 269.781625 304.728125 263.789295 304.728125 257.738125  " clip-path="url(#p2efe7151e5)" style="fill: none; stroke-dasharray: 3.7,1.6; stroke-dashoffset: 0; stroke: #b0b0b0"/>
     </g>
    </g>
    <g id="ytick_2">
     <g id="line2d_10">
      <path d="M 350.808125 257.738125  C 350.808125 245.635785 348.424228 233.651124 343.792863 222.47002  C 339.161498 211.288915 332.372733 201.128811 323.815086 192.571164  C 315.257439 184.013517 305.097335 177.224752 293.91623 172.593387  C 282.735126 167.962022 270.750465 165.578125 258.648125 165.578125  C 246.545785 165.578125 234.561124 167.962022 223.38002 172.593387  C 212.198915 177.224752 202.038811 184.013517 193.481164 192.571164  C 184.923517 201.128811 178.134752 211.288915 173.503387 222.47002  C 168.872022 233.651124 166.488125 245.635785 166.488125 257.738125  C 166.488125 269.840465 168.872022 281.825126 173.503387 293.00623  C 178.134752 304.187335 184.923517 314.347439 193.481164 322.905086  C 202.038811 331.462733 212.198915 338.251498 223.38002 342.882863  C 234.561124 347.514228 246.545785 349.898125 258.648125 349.898125  C 270.750465 349.898125 282.735126 347.514228 293.91623 342.882863  C 305.097335 338.251498 315.257439 331.462733 323.815086 322.905086  C 332.372733 314.347439 339.161498 304.187335 343.792863 293.00623  C 348.424228 281.825126 350.808125 269.840465 350.808125 257.738125  " clip-path="url(#p2efe7151e5)" style="fill: none; stroke-dasharray: 3.7,1.6; stroke-dashoffset: 0; stroke: #b0b0b0"/>
     </g>
    </g>
    <g id="ytick_3">
     <g id="line2d_11">
      <path d="M 396.888125 257.738125  C 396.888125 239.584615 393.312279 221.607624 386.365232 204.835967  C 379.418184 188.064311 369.235037 172.824154 356.398566 159.987684  C 343.562096 147.151213 328.321939 136.968066 311.550283 130.021018  C 294.778626 123.073971 276.801635 119.498125 258.648125 119.498125  C 240.494615 119.498125 222.517624 123.073971 205.745967 130.021018  C 188.974311 136.968066 173.734154 147.151213 160.897684 159.987684  C 148.061213 172.824154 137.878066 188.064311 130.931018 204.835967  C 123.983971 221.607624 120.408125 239.584615 120.408125 257.738125  C 120.408125 275.891635 123.983971 293.868626 130.931018 310.640283  C 137.878066 327.411939 148.061213 342.652096 160.897684 355.488566  C 173.734154 368.325037 188.974311 378.508184 205.745967 385.455232  C 222.517624 392.402279 240.494615 395.978125 258.648125 395.978125  C 276.801635 395.978125 294.778626 392.402279 311.550283 385.455232  C 328.321939 378.508184 343.562096 368.325037 356.398566 355.488566  C 369.235037 342.652096 379.418184 327.411939 386.365232 310.640283  C 393.312279 293.868626 396.888125 275.891635 396.888125 257.738125  " clip-path="url(#p2efe7151e5)" style="fill: none; stroke-dasharray: 3.7,1.6; stroke-dashoffset: 0; stroke: #b0b0b0"/>
     </g>
    </g>
    <g id="ytick_4">
     <g id="line2d_12">
      <path d="M 442.968125 257.738125  C 442.968125 233.533444 438.200331 209.564124 428.9376 187.201915  C 419.67487 164.839706 406.097341 144.519497 388.982047 127.404203  C 371.866753 110.288909 351.546544 96.71138 329.184335 87.44865  C 306.822126 78.185919 282.852806 73.418125 258.648125 73.418125  C 234.443444 73.418125 210.474124 78.185919 188.111915 87.44865  C 165.749706 96.71138 145.429497 110.288909 128.314203 127.404203  C 111.198909 144.519497 97.62138 164.839706 88.35865 187.201915  C 79.095919 209.564124 74.328125 233.533444 74.328125 257.738125  C 74.328125 281.942806 79.095919 305.912126 88.35865 328.274335  C 97.62138 350.636544 111.198909 370.956753 128.314203 388.072047  C 145.429497 405.187341 165.749706 418.76487 188.111915 428.0276  C 210.474124 437.290331 234.443444 442.058125 258.648125 442.058125  C 282.852806 442.058125 306.822126 437.290331 329.184335 428.0276  C 351.546544 418.76487 371.866753 405.187341 388.982047 388.072047  C 406.097341 370.956753 419.67487 350.636544 428.9376 328.274335  C 438.200331 305.912126 442.968125 281.942806 442.968125 257.738125  " clip-path="url(#p2efe7151e5)" style="fill: none; stroke-dasharray: 3.7,1.6; stroke-dashoffset: 0; stroke: #b0b0b0"/>
     </g>
    </g>
    <g id="ytick_5">
     <g id="line2d_13">
      <path d="M 489.048125 257.738125  C 489.048125 227.482274 483.088382 197.520623 471.509969 169.567862  C 459.931556 141.615101 442.959645 116.21484 421.565527 94.820723  C 400.17141 73.426605 374.771149 56.454694 346.818388 44.876281  C 318.865627 33.297868 288.903976 27.338125 258.648125 27.338125  C 228.392274 27.338125 198.430623 33.297868 170.477862 44.876281  C 142.525101 56.454694 117.12484 73.426605 95.730723 94.820723  C 74.336605 116.21484 57.364694 141.615101 45.786281 169.567862  C 34.207868 197.520623 28.248125 227.482274 28.248125 257.738125  C 28.248125 287.993976 34.207868 317.955627 45.786281 345.908388  C 57.364694 373.861149 74.336605 399.26141 95.730723 420.655527  C 117.12484 442.049645 142.525101 459.021556 170.477862 470.599969  C 198.430623 482.178382 228.392274 488.138125 258.648125 488.138125  C 288.903976 488.138125 318.865627 482.178382 346.818388 470.599969  C 374.771149 459.021556 400.17141 442.049645 421.565527 420.655527  C 442.959645 399.26141 459.931556 373.861149 471.509969 345.908388  C 483.088382 317.955627 489.048125 287.993976 489.048125 257.738125  " clip-path="url(#p2efe7151e5)" style="fill: none; stroke-dasharray: 3.7,1.6; stroke-dashoffset: 0; stroke: #b0b0b0"/>
     </g>
    </g>
   </g>
   <g id="patch_3">
    <path d="M 489.048125 257.738125  C 489.048125 227.482274 483.088382 197.520623 471.509969 169.567862  C 459.931556 141.615101 442.959645 116.21484 421.565527 94.820723  C 400.17141 73.426605 374.771149 56.454694 346.818388 44.876281  C 318.865627 33.297868 288.903976 27.338125 258.648125 27.338125  C 228.392274 27.338125 198.430623 33.297868 170.477862 44.876281  C 142.525101 56.454694 117.12484 73.426605 95.730723 94.820723  C 74.336605 116.21484 57.364694 141.615101 45.786281 169.567862  C 34.207868 197.520623 28.248125 227.482274 28.248125 257.738125  C 28.248125 287.993976 34.207868 317.955627 45.786281 345.908388  C 57.364694 373.861149 74.336605 399.26141 95.730723 420.655527  C 117.12484 442.049645 142.525101 459.021556 170.477862 470.599969  C 198.430623 482.178382 228.392274 488.138125 258.648125 488.138125  C 288.903976 488.138125 318.865627 482.178382 346.818388 470.599969  C 374.771149 459.021556 400.17141 442.049645 421.565527 420.655527  C 442.959645 399.26141 459.931556 373.861149 471.509969 345.908388  C 483.088382 317.955627 489.048125 287.993976 489.048125 257.738125  " style="fill: none; stroke: #000000; stroke-width: 3; stroke-linejoin: miter; stroke-linecap: square"/>
   </g>
   <g id="patch_4">
    <path d="M 258.648125 257.738125  C 258.648125 257.738125 258.648125 257.738125 258.648125 257.738125  C 258.648125 257.738125 258.648125 257.738125 258.648125 257.738125  L 256.799407 247.385646  C 257.409615 247.276676 258.028264 247.221871 258.648125 247.221871  C 259.267986 247.221871 259.886635 247.276676 260.496843 247.385646  z " clip-path="url(#p2efe7151e5)" style="fill: #cce5ff; stroke: #000000; stroke-width: 0.7; stroke-linejoin: miter"/>
   </g>
   <g id="patch_5">
    <path d="M 260.496843 247.385646  C 259.886635 247.276676 259.267986 247.221871 258.648125 247.221871  C 258.028264 247.221871 257.409615 247.276676 256.799407 247.385646  L 256.63708 246.476647  C 257.300867 246.35811 257.973837 246.298493 258.648125 246.298493  C 259.322413 246.298493 259.995383 246.35811 260.65917 246.476647  z " clip-path="url(#p2efe7151e5)" style="fill: #66b3ff; stroke: #000000; stroke-width: 0.7; stroke-linejoin: miter"/>
   </g>
   <g id="patch_6">
    <path d="M 260.65917 246.476647  C 259.995383 246.35811 259.322413 246.298493 258.648125 246.298493  C 257.973837 246.298493 257.300867 246.35811 256.63708 246.476647  L 256.63708 246.476647  C 257.300867 246.35811 257.973837 246.298493 258.648125 246.298493  C 259.322413 246.298493 259.995383 246.35811 260.65917 246.476647  z " clip-path="url(#p2efe7151e5)" style="fill: #0073e6; stroke: #000000; stroke-width: 0.7; stroke-linejoin: miter"/>
   </g>
   <g id="patch_7">
    <path d="M 260.65917 246.476647  C 259.995383 246.35811 259.322413 246.298493 258.648125 246.298493  C 257.973837 246.298493 257.300867 246.35811 256.63708 246.476647  L 256.634074 246.459814  C 257.298853 246.3411 257.972829 246.281394 258.648125 246.281394  C 259.323421 246.281394 259.997397 246.3411 260.662176 246.459814  z " clip-path="url(#p2efe7151e5)" style="fill: #003366; stroke: #000000; stroke-width: 0.7; stroke-linejoin: miter"/>
   </g>
   <g id="patch_8">
    <path d="M 258.648125 257.738125  C 258.648125 257.738125 258.648125 257.738125 258.648125 257.738125  C 258.648125 257.738125 258.648125 257.738125 258.648125 257.738125  L 258.725082 257.387377  C 258.745756 257.391913 258.765989 257.398268 258.785543 257.406368  C 258.805098 257.414468 258.823899 257.42428 258.841725 257.435692  z " clip-path="url(#p2efe7151e5)" style="fill: #cce5ff; stroke: #000000; stroke-width: 0.7; stroke-linejoin: miter"/>
   </g>
   <g id="patch_9">
    <path d="M 258.841725 257.435692  C 258.823899 257.42428 258.805098 257.414468 258.785543 257.406368  C 258.765989 257.398268 258.745756 257.391913 258.725082 257.387377  L 258.794709 257.070033  C 258.834088 257.078673 258.872627 257.090778 258.909874 257.106206  C 258.947122 257.121635 258.982932 257.140326 259.016887 257.162062  z " clip-path="url(#p2efe7151e5)" style="fill: #66b3ff; stroke: #000000; stroke-width: 0.7; stroke-linejoin: miter"/>
   </g>
   <g id="patch_10">
    <path d="M 259.016887 257.162062  C 258.982932 257.140326 258.947122 257.121635 258.909874 257.106206  C 258.872627 257.090778 258.834088 257.078673 258.794709 257.070033  L 258.794709 257.070033  C 258.834088 257.078673 258.872627 257.090778 258.909874 257.106206  C 258.947122 257.121635 258.982932 257.140326 259.016887 257.162062  z " clip-path="url(#p2efe7151e5)" style="fill: #0073e6; stroke: #000000; stroke-width: 0.7; stroke-linejoin: miter"/>
   </g>
   <g id="patch_11">
    <path d="M 259.016887 257.162062  C 258.982932 257.140326 258.947122 257.121635 258.909874 257.106206  C 258.872627 257.090778 258.834088 257.078673 258.794709 257.070033  L 258.794709 257.070033  C 258.834088 257.078673 258.872627 257.090778 258.909874 257.106206  C 258.947122 257.121635 258.982932 257.140326 259.016887 257.162062  z " clip-path="url(#p2efe7151e5)" style="fill: #003366; stroke: #000000; stroke-width: 0.7; stroke-linejoin: miter"/>
   </g>
   <g id="patch_12">
    <path d="M 258.648125 257.738125  C 258.648125 257.738125 258.648125 257.738125 258.648125 257.738125  C 258.648125 257.738125 258.648125 257.738125 258.648125 257.738125  L 258.961 257.289212  C 258.98746 257.307654 259.012238 257.328399 259.035045 257.351205  C 259.057851 257.374012 259.078596 257.39879 259.097038 257.42525  z " clip-path="url(#p2efe7151e5)" style="fill: #cce5ff; stroke: #000000; stroke-width: 0.7; stroke-linejoin: miter"/>
   </g>
   <g id="patch_13">
    <path d="M 259.097038 257.42525  C 259.078596 257.39879 259.057851 257.374012 259.035045 257.351205  C 259.012238 257.328399 258.98746 257.307654 258.961 257.289212  L 259.136992 257.036698  C 259.178337 257.065514 259.217052 257.097928 259.252687 257.133563  C 259.288322 257.169198 259.320736 257.207913 259.349552 257.249258  z " clip-path="url(#p2efe7151e5)" style="fill: #66b3ff; stroke: #000000; stroke-width: 0.7; stroke-linejoin: miter"/>
   </g>
   <g id="patch_14">
    <path d="M 259.349552 257.249258  C 259.320736 257.207913 259.288322 257.169198 259.252687 257.133563  C 259.217052 257.097928 259.178337 257.065514 259.136992 257.036698  L 259.136992 257.036698  C 259.178337 257.065514 259.217052 257.097928 259.252687 257.133563  C 259.288322 257.169198 259.320736 257.207913 259.349552 257.249258  z " clip-path="url(#p2efe7151e5)" style="fill: #0073e6; stroke: #000000; stroke-width: 0.7; stroke-linejoin: miter"/>
   </g>
   <g id="patch_15">
    <path d="M 259.349552 257.249258  C 259.320736 257.207913 259.288322 257.169198 259.252687 257.133563  C 259.217052 257.097928 259.178337 257.065514 259.136992 257.036698  L 259.136992 257.036698  C 259.178337 257.065514 259.217052 257.097928 259.252687 257.133563  C 259.288322 257.169198 259.320736 257.207913 259.349552 257.249258  z " clip-path="url(#p2efe7151e5)" style="fill: #003366; stroke: #000000; stroke-width: 0.7; stroke-linejoin: miter"/>
   </g>
   <g id="patch_16">
    <path d="M 258.648125 257.738125  C 258.648125 257.738125 258.648125 257.738125 258.648125 257.738125  C 258.648125 257.738125 258.648125 257.738125 258.648125 257.738125  L 259.656235 257.092792  C 259.694273 257.152213 259.726983 257.214881 259.753983 257.280064  C 259.780982 257.345246 259.802166 257.412689 259.817286 257.481603  z " clip-path="url(#p2efe7151e5)" style="fill: #cce5ff; stroke: #000000; stroke-width: 0.7; stroke-linejoin: miter"/>
   </g>
   <g id="patch_17">
    <path d="M 259.817286 257.481603  C 259.802166 257.412689 259.780982 257.345246 259.753983 257.280064  C 259.726983 257.214881 259.694273 257.152213 259.656235 257.092792  L 260.217897 256.733249  C 260.277127 256.825776 260.328061 256.923359 260.370104 257.024858  C 260.412146 257.126357 260.445132 257.231374 260.468676 257.338684  z " clip-path="url(#p2efe7151e5)" style="fill: #66b3ff; stroke: #000000; stroke-width: 0.7; stroke-linejoin: miter"/>
   </g>
   <g id="patch_18">
    <path d="M 260.468676 257.338684  C 260.445132 257.231374 260.412146 257.126357 260.370104 257.024858  C 260.328061 256.923359 260.277127 256.825776 260.217897 256.733249  L 260.217897 256.733249  C 260.277127 256.825776 260.328061 256.923359 260.370104 257.024858  C 260.412146 257.126357 260.445132 257.231374 260.468676 257.338684  z " clip-path="url(#p2efe7151e5)" style="fill: #0073e6; stroke: #000000; stroke-width: 0.7; stroke-linejoin: miter"/>
   </g>
   <g id="patch_19">
    <path d="M 260.468676 257.338684  C 260.445132 257.231374 260.412146 257.126357 260.370104 257.024858  C 260.328061 256.923359 260.277127 256.825776 260.217897 256.733249  L 260.217897 256.733249  C 260.277127 256.825776 260.328061 256.923359 260.370104 257.024858  C 260.412146 257.126357 260.445132 257.231374 260.468676 257.338684  z " clip-path="url(#p2efe7151e5)" style="fill: #003366; stroke: #000000; stroke-width: 0.7; stroke-linejoin: miter"/>
   </g>
   <g id="patch_20">
    <path d="M 258.648125 257.738125  C 258.648125 257.738125 258.648125 257.738125 258.648125 257.738125  C 258.648125 257.738125 258.648125 257.738125 258.648125 257.738125  L 272.081098 255.3393  C 272.222493 256.131082 272.293605 256.933817 272.293605 257.738125  C 272.293605 258.542433 272.222493 259.345168 272.081098 260.13695  z " clip-path="url(#p2efe7151e5)" style="fill: #cce5ff; stroke: #000000; stroke-width: 0.7; stroke-linejoin: miter"/>
   </g>
   <g id="patch_21">
    <path d="M 272.081098 260.13695  C 272.222493 259.345168 272.293605 258.542433 272.293605 257.738125  C 272.293605 256.933817 272.222493 256.131082 272.081098 255.3393  L 276.743922 254.506626  C 276.934397 255.573249 277.030194 256.654628 277.030194 257.738125  C 277.030194 258.821622 276.934397 259.903001 276.743922 260.969624  z " clip-path="url(#p2efe7151e5)" style="fill: #66b3ff; stroke: #000000; stroke-width: 0.7; stroke-linejoin: miter"/>
   </g>
   <g id="patch_22">
    <path d="M 276.743922 260.969624  C 276.934397 259.903001 277.030194 258.821622 277.030194 257.738125  C 277.030194 256.654628 276.934397 255.573249 276.743922 254.506626  L 276.929089 254.473559  C 277.121512 255.551097 277.21829 256.643541 277.21829 257.738125  C 277.21829 258.832709 277.121512 259.925153 276.929089 261.002691  z " clip-path="url(#p2efe7151e5)" style="fill: #0073e6; stroke: #000000; stroke-width: 0.7; stroke-linejoin: miter"/>
   </g>
   <g id="patch_23">
    <path d="M 276.929089 261.002691  C 277.121512 259.925153 277.21829 258.832709 277.21829 257.738125  C 277.21829 256.643541 277.121512 255.551097 276.929089 254.473559  L 276.962755 254.467547  C 277.155533 255.547069 277.252489 256.641525 277.252489 257.738125  C 277.252489 258.834725 277.155533 259.929181 276.962755 261.008703  z " clip-path="url(#p2efe7151e5)" style="fill: #003366; stroke: #000000; stroke-width: 0.7; stroke-linejoin: miter"/>
   </g>
   <g id="patch_24">
    <path d="M 258.648125 257.738125  C 258.648125 257.738125 258.648125 257.738125 258.648125 257.738125  C 258.648125 257.738125 258.648125 257.738125 258.648125 257.738125  L 271.442091 260.545209  C 271.276632 261.299326 271.044822 262.037339 270.74937 262.750625  C 270.453917 263.46391 270.095977 264.149679 269.679733 264.799917  z " clip-path="url(#p2efe7151e5)" style="fill: #cce5ff; stroke: #000000; stroke-width: 0.7; stroke-linejoin: miter"/>
   </g>
   <g id="patch_25">
    <path d="M 269.679733 264.799917  C 270.095977 264.149679 270.453917 263.46391 270.74937 262.750625  C 271.044822 262.037339 271.276632 261.299326 271.442091 260.545209  L 359.914201 279.956599  C 358.604574 285.925541 356.769765 291.767022 354.431216 297.41278  C 352.092666 303.058538 349.259521 308.486495 345.964887 313.633221  z " clip-path="url(#p2efe7151e5)" style="fill: #66b3ff; stroke: #000000; stroke-width: 0.7; stroke-linejoin: miter"/>
   </g>
   <g id="patch_26">
    <path d="M 345.964887 313.633221  C 349.259521 308.486495 352.092666 303.058538 354.431216 297.41278  C 356.769765 291.767022 358.604574 285.925541 359.914201 279.956599  L 410.071223 290.961394  C 408.112939 299.88675 405.36935 308.621513 401.872519 317.063611  C 398.375687 325.505709 394.139287 333.62213 389.212824 341.318026  z " clip-path="url(#p2efe7151e5)" style="fill: #0073e6; stroke: #000000; stroke-width: 0.7; stroke-linejoin: miter"/>
   </g>
   <g id="patch_27">
    <path d="M 389.212824 341.318026  C 394.139287 333.62213 398.375687 325.505709 401.872519 317.063611  C 405.36935 308.621513 408.112939 299.88675 410.071223 290.961394  L 424.46861 294.12028  C 422.324131 303.894263 419.319681 313.459532 415.490369 322.704309  C 411.661056 331.949087 407.021857 340.83722 401.626983 349.264846  z " clip-path="url(#p2efe7151e5)" style="fill: #003366; stroke: #000000; stroke-width: 0.7; stroke-linejoin: miter"/>
   </g>
   <g id="patch_28">
    <path d="M 258.648125 257.738125  C 258.648125 257.738125 258.648125 257.738125 258.648125 257.738125  C 258.648125 257.738125 258.648125 257.738125 258.648125 257.738125  L 267.935016 264.210727  C 267.5535 264.758126 267.124332 265.270723 266.652528 265.742528  C 266.180723 266.214332 265.668126 266.6435 265.120727 267.025016  z " clip-path="url(#p2efe7151e5)" style="fill: #cce5ff; stroke: #000000; stroke-width: 0.7; stroke-linejoin: miter"/>
   </g>
   <g id="patch_29">
    <path d="M 265.120727 267.025016  C 265.668126 266.6435 266.180723 266.214332 266.652528 265.742528  C 267.124332 265.270723 267.5535 264.758126 267.935016 264.210727  L 336.197871 311.787288  C 333.012043 316.358315 329.428298 320.63873 325.488514 324.578514  C 321.54873 328.518298 317.268315 332.102043 312.697288 335.287871  z " clip-path="url(#p2efe7151e5)" style="fill: #66b3ff; stroke: #000000; stroke-width: 0.7; stroke-linejoin: miter"/>
   </g>
   <g id="patch_30">
    <path d="M 312.697288 335.287871  C 317.268315 332.102043 321.54873 328.518298 325.488514 324.578514  C 329.428298 320.63873 333.012043 316.358315 336.197871 311.787288  L 425.69993 374.166749  C 418.83726 384.01331 411.117426 393.233857 402.630642 401.720642  C 394.143857 410.207426 384.92331 417.92726 375.076749 424.78993  z " clip-path="url(#p2efe7151e5)" style="fill: #0073e6; stroke: #000000; stroke-width: 0.7; stroke-linejoin: miter"/>
   </g>
   <g id="patch_31">
    <path d="M 375.076749 424.78993  C 384.92331 417.92726 394.143857 410.207426 402.630642 401.720642  C 411.117426 393.233857 418.83726 384.01331 425.69993 374.166749  L 447.668618 389.478071  C 439.903449 400.619536 431.168394 411.052661 421.565527 420.655527  C 411.962661 430.258394 401.529536 438.993449 390.388071 446.758618  z " clip-path="url(#p2efe7151e5)" style="fill: #003366; stroke: #000000; stroke-width: 0.7; stroke-linejoin: miter"/>
   </g>
   <g id="patch_32">
    <path d="M 258.648125 257.738125  C 258.648125 257.738125 258.648125 257.738125 258.648125 257.738125  C 258.648125 257.738125 258.648125 257.738125 258.648125 257.738125  L 261.920887 262.850685  C 261.619537 263.043592 261.30172 263.209478 260.97115 263.346404  C 260.640581 263.483331 260.298551 263.590762 259.949058 263.667443  z " clip-path="url(#p2efe7151e5)" style="fill: #cce5ff; stroke: #000000; stroke-width: 0.7; stroke-linejoin: miter"/>
   </g>
   <g id="patch_33">
    <path d="M 259.949058 263.667443  C 260.298551 263.590762 260.640581 263.483331 260.97115 263.346404  C 261.30172 263.209478 261.619537 263.043592 261.920887 262.850685  L 268.521727 273.162214  C 267.612582 273.744195 266.65376 274.244657 265.656463 274.657751  C 264.659167 275.070844 263.627297 275.394954 262.572912 275.626294  z " clip-path="url(#p2efe7151e5)" style="fill: #66b3ff; stroke: #000000; stroke-width: 0.7; stroke-linejoin: miter"/>
   </g>
   <g id="patch_34">
    <path d="M 262.572912 275.626294  C 263.627297 275.394954 264.659167 275.070844 265.656463 274.657751  C 266.65376 274.244657 267.612582 273.744195 268.521727 273.162214  L 271.103061 277.194656  C 269.956231 277.928789 268.746736 278.56009 267.488709 279.081182  C 266.230682 279.602274 264.929042 280.011119 263.599 280.302939  z " clip-path="url(#p2efe7151e5)" style="fill: #0073e6; stroke: #000000; stroke-width: 0.7; stroke-linejoin: miter"/>
   </g>
   <g id="patch_35">
    <path d="M 263.599 280.302939  C 264.929042 280.011119 266.230682 279.602274 267.488709 279.081182  C 268.746736 278.56009 269.956231 277.928789 271.103061 277.194656  L 271.269003 277.453884  C 270.106894 278.197799 268.881284 278.837511 267.606496 279.365546  C 266.331707 279.89358 265.012725 280.307872 263.664963 280.603581  z " clip-path="url(#p2efe7151e5)" style="fill: #003366; stroke: #000000; stroke-width: 0.7; stroke-linejoin: miter"/>
   </g>
   <g id="patch_36">
    <path d="M 258.648125 257.738125  C 258.648125 257.738125 258.648125 257.738125 258.648125 257.738125  C 258.648125 257.738125 258.648125 257.738125 258.648125 257.738125  L 259.20725 260.869119  C 259.022699 260.902075 258.835595 260.91865 258.648125 260.91865  C 258.460655 260.91865 258.273551 260.902075 258.089 260.869119  z " clip-path="url(#p2efe7151e5)" style="fill: #cce5ff; stroke: #000000; stroke-width: 0.7; stroke-linejoin: miter"/>
   </g>
   <g id="patch_37">
    <path d="M 258.089 260.869119  C 258.273551 260.902075 258.460655 260.91865 258.648125 260.91865  C 258.835595 260.91865 259.022699 260.902075 259.20725 260.869119  L 260.244335 266.676607  C 259.717473 266.770693 259.183322 266.818012 258.648125 266.818012  C 258.112928 266.818012 257.578777 266.770693 257.051915 266.676607  z " clip-path="url(#p2efe7151e5)" style="fill: #66b3ff; stroke: #000000; stroke-width: 0.7; stroke-linejoin: miter"/>
   </g>
   <g id="patch_38">
    <path d="M 257.051915 266.676607  C 257.578777 266.770693 258.112928 266.818012 258.648125 266.818012  C 259.183322 266.818012 259.717473 266.770693 260.244335 266.676607  L 260.373595 267.400439  C 259.804068 267.502144 259.226662 267.553295 258.648125 267.553295  C 258.069588 267.553295 257.492182 267.502144 256.922655 267.400439  z " clip-path="url(#p2efe7151e5)" style="fill: #0073e6; stroke: #000000; stroke-width: 0.7; stroke-linejoin: miter"/>
   </g>
   <g id="patch_39">
    <path d="M 256.922655 267.400439  C 257.492182 267.502144 258.069588 267.553295 258.648125 267.553295  C 259.226662 267.553295 259.804068 267.502144 260.373595 267.400439  L 260.376601 267.417272  C 259.806082 267.519154 259.22767 267.570395 258.648125 267.570395  C 258.06858 267.570395 257.490168 267.519154 256.919649 267.417272  z " clip-path="url(#p2efe7151e5)" style="fill: #003366; stroke: #000000; stroke-width: 0.7; stroke-linejoin: miter"/>
   </g>
   <g id="patch_40">
    <path d="M 258.648125 257.738125  C 258.648125 257.738125 258.648125 257.738125 258.648125 257.738125  C 258.648125 257.738125 258.648125 257.738125 258.648125 257.738125  L 258.208373 259.742402  C 258.090235 259.716481 257.974619 259.680166 257.862877 259.633881  C 257.751135 259.587596 257.643704 259.531522 257.541839 259.466314  z " clip-path="url(#p2efe7151e5)" style="fill: #cce5ff; stroke: #000000; stroke-width: 0.7; stroke-linejoin: miter"/>
   </g>
   <g id="patch_41">
    <path d="M 257.541839 259.466314  C 257.643704 259.531522 257.751135 259.587596 257.862877 259.633881  C 257.974619 259.680166 258.090235 259.716481 258.208373 259.742402  L 257.468124 263.116267  C 257.151119 263.046714 256.840884 262.949269 256.541043 262.825071  C 256.241202 262.700873 255.952929 262.550408 255.679591 262.375433  z " clip-path="url(#p2efe7151e5)" style="fill: #66b3ff; stroke: #000000; stroke-width: 0.7; stroke-linejoin: miter"/>
   </g>
   <g id="patch_42">
    <path d="M 255.679591 262.375433  C 255.952929 262.550408 256.241202 262.700873 256.541043 262.825071  C 256.840884 262.949269 257.151119 263.046714 257.468124 263.116267  L 257.347192 263.667443  C 256.997699 263.590762 256.655669 263.483331 256.3251 263.346404  C 255.99453 263.209478 255.676713 263.043592 255.375363 262.850685  z " clip-path="url(#p2efe7151e5)" style="fill: #0073e6; stroke: #000000; stroke-width: 0.7; stroke-linejoin: miter"/>
   </g>
   <g id="patch_43">
    <path d="M 255.375363 262.850685  C 255.676713 263.043592 255.99453 263.209478 256.3251 263.346404  C 256.655669 263.483331 256.997699 263.590762 257.347192 263.667443  L 257.343527 263.684146  C 256.99305 263.607249 256.650057 263.499514 256.318556 263.362202  C 255.987055 263.22489 255.668343 263.058537 255.366143 262.865086  z " clip-path="url(#p2efe7151e5)" style="fill: #003366; stroke: #000000; stroke-width: 0.7; stroke-linejoin: miter"/>
   </g>
   <g id="patch_44">
    <path d="M 258.648125 257.738125  C 258.648125 257.738125 258.648125 257.738125 258.648125 257.738125  C 258.648125 257.738125 258.648125 257.738125 258.648125 257.738125  L 257.56284 259.295292  C 257.471055 259.231322 257.385106 259.159362 257.305997 259.080253  C 257.226888 259.001144 257.154928 258.915195 257.090958 258.82341  z " clip-path="url(#p2efe7151e5)" style="fill: #cce5ff; stroke: #000000; stroke-width: 0.7; stroke-linejoin: miter"/>
   </g>
   <g id="patch_45">
    <path d="M 257.090958 258.82341  C 257.154928 258.915195 257.226888 259.001144 257.305997 259.080253  C 257.385106 259.159362 257.471055 259.231322 257.56284 259.295292  L 254.355871 263.896652  C 253.992868 263.643653 253.652943 263.359054 253.34007 263.04618  C 253.027196 262.733307 252.742597 262.393382 252.489598 262.030379  z " clip-path="url(#p2efe7151e5)" style="fill: #66b3ff; stroke: #000000; stroke-width: 0.7; stroke-linejoin: miter"/>
   </g>
   <g id="patch_46">
    <path d="M 252.489598 262.030379  C 252.742597 262.393382 253.027196 262.733307 253.34007 263.04618  C 253.652943 263.359054 253.992868 263.643653 254.355871 263.896652  L 253.407468 265.25742  C 252.964257 264.948519 252.549224 264.601036 252.167219 264.219031  C 251.785214 263.837026 251.437731 263.421993 251.12883 262.978782  z " clip-path="url(#p2efe7151e5)" style="fill: #0073e6; stroke: #000000; stroke-width: 0.7; stroke-linejoin: miter"/>
   </g>
   <g id="patch_47">
    <path d="M 251.12883 262.978782  C 251.437731 263.421993 251.785214 263.837026 252.167219 264.219031  C 252.549224 264.601036 252.964257 264.948519 253.407468 265.25742  L 253.397691 265.271449  C 252.953653 264.961972 252.537846 264.61384 252.155128 264.231122  C 251.77241 263.848404 251.424278 263.432597 251.114801 262.988559  z " clip-path="url(#p2efe7151e5)" style="fill: #003366; stroke: #000000; stroke-width: 0.7; stroke-linejoin: miter"/>
   </g>
   <g id="patch_48">
    <path d="M 258.648125 257.738125  C 258.648125 257.738125 258.648125 257.738125 258.648125 257.738125  C 258.648125 257.738125 258.648125 257.738125 258.648125 257.738125  L 255.508581 259.747878  C 255.39012 259.562823 255.288252 259.367657 255.204168 259.164659  C 255.120083 258.961661 255.054111 258.751626 255.007022 258.537008  z " clip-path="url(#p2efe7151e5)" style="fill: #cce5ff; stroke: #000000; stroke-width: 0.7; stroke-linejoin: miter"/>
   </g>
   <g id="patch_49">
    <path d="M 255.007022 258.537008  C 255.054111 258.751626 255.120083 258.961661 255.204168 259.164659  C 255.288252 259.367657 255.39012 259.562823 255.508581 259.747878  L 249.618336 263.518469  C 249.277624 262.986225 248.984637 262.424897 248.742798 261.841046  C 248.500959 261.257195 248.311214 260.653103 248.17578 260.03583  z " clip-path="url(#p2efe7151e5)" style="fill: #66b3ff; stroke: #000000; stroke-width: 0.7; stroke-linejoin: miter"/>
   </g>
   <g id="patch_50">
    <path d="M 248.17578 260.03583  C 248.311214 260.653103 248.500959 261.257195 248.742798 261.841046  C 248.984637 262.424897 249.277624 262.986225 249.618336 263.518469  L 248.955864 263.942545  C 248.590155 263.371253 248.275673 262.768743 248.016091 262.142058  C 247.75651 261.515372 247.552844 260.866961 247.407474 260.204401  z " clip-path="url(#p2efe7151e5)" style="fill: #0073e6; stroke: #000000; stroke-width: 0.7; stroke-linejoin: miter"/>
   </g>
   <g id="patch_51">
    <path d="M 247.407474 260.204401  C 247.552844 260.866961 247.75651 261.515372 248.016091 262.142058  C 248.275673 262.768743 248.590155 263.371253 248.955864 263.942545  L 248.941462 263.951764  C 248.57521 263.379623 248.260261 262.776218 248.000293 262.148601  C 247.740326 261.520984 247.536357 260.87161 247.390771 260.208066  z " clip-path="url(#p2efe7151e5)" style="fill: #003366; stroke: #000000; stroke-width: 0.7; stroke-linejoin: miter"/>
   </g>
   <g id="patch_52">
    <path d="M 258.648125 257.738125  C 258.648125 257.738125 258.648125 257.738125 258.648125 257.738125  C 258.648125 257.738125 258.648125 257.738125 258.648125 257.738125  L 248.026313 259.63494  C 247.914509 259.008857 247.858278 258.374113 247.858278 257.738125  C 247.858278 257.102137 247.914509 256.467393 248.026313 255.84131  z " clip-path="url(#p2efe7151e5)" style="fill: #cce5ff; stroke: #000000; stroke-width: 0.7; stroke-linejoin: miter"/>
   </g>
   <g id="patch_53">
    <path d="M 248.026313 255.84131  C 247.914509 256.467393 247.858278 257.102137 247.858278 257.738125  C 247.858278 258.374113 247.914509 259.008857 248.026313 259.63494  L 229.156184 263.004717  C 228.845754 261.266369 228.689627 259.503973 228.689627 257.738125  C 228.689627 255.972277 228.845754 254.209881 229.156184 252.471533  z " clip-path="url(#p2efe7151e5)" style="fill: #66b3ff; stroke: #000000; stroke-width: 0.7; stroke-linejoin: miter"/>
   </g>
   <g id="patch_54">
    <path d="M 229.156184 252.471533  C 228.845754 254.209881 228.689627 255.972277 228.689627 257.738125  C 228.689627 259.503973 228.845754 261.266369 229.156184 263.004717  L 226.361856 263.503721  C 226.022014 261.600666 225.851094 259.671286 225.851094 257.738125  C 225.851094 255.804964 226.022014 253.875584 226.361856 251.972529  z " clip-path="url(#p2efe7151e5)" style="fill: #0073e6; stroke: #000000; stroke-width: 0.7; stroke-linejoin: miter"/>
   </g>
   <g id="patch_55">
    <path d="M 226.361856 251.972529  C 226.022014 253.875584 225.851094 255.804964 225.851094 257.738125  C 225.851094 259.671286 226.022014 261.600666 226.361856 263.503721  L 225.133025 263.723162  C 224.780248 261.747677 224.602823 259.744863 224.602823 257.738125  C 224.602823 255.731387 224.780248 253.728573 225.133025 251.753088  z " clip-path="url(#p2efe7151e5)" style="fill: #003366; stroke: #000000; stroke-width: 0.7; stroke-linejoin: miter"/>
   </g>
   <g id="patch_56">
    <path d="M 258.648125 257.738125  C 258.648125 257.738125 258.648125 257.738125 258.648125 257.738125  C 258.648125 257.738125 258.648125 257.738125 258.648125 257.738125  L 241.578369 253.992903  C 241.799124 252.986758 242.108406 252.002098 242.5026 251.05043  C 242.896794 250.098761 243.374358 249.183806 243.929713 248.316257  z " clip-path="url(#p2efe7151e5)" style="fill: #cce5ff; stroke: #000000; stroke-width: 0.7; stroke-linejoin: miter"/>
   </g>
   <g id="patch_57">
    <path d="M 243.929713 248.316257  C 243.374358 249.183806 242.896794 250.098761 242.5026 251.05043  C 242.108406 252.002098 241.799124 252.986758 241.578369 253.992903  L 183.40424 241.229099  C 184.377335 236.793987 185.740655 232.453582 187.478271 228.258606  C 189.215887 224.06363 191.321003 220.030488 193.76902 216.206308  z " clip-path="url(#p2efe7151e5)" style="fill: #66b3ff; stroke: #000000; stroke-width: 0.7; stroke-linejoin: miter"/>
   </g>
   <g id="patch_58">
    <path d="M 193.76902 216.206308  C 191.321003 220.030488 189.215887 224.06363 187.478271 228.258606  C 185.740655 232.453582 184.377335 236.793987 183.40424 241.229099  L 155.444582 235.094558  C 156.779265 229.011415 158.649178 223.058172 161.03247 217.304397  C 163.415762 211.550622 166.303112 206.018815 169.66078 200.77362  z " clip-path="url(#p2efe7151e5)" style="fill: #0073e6; stroke: #000000; stroke-width: 0.7; stroke-linejoin: miter"/>
   </g>
   <g id="patch_59">
    <path d="M 169.66078 200.77362  C 166.303112 206.018815 163.415762 211.550622 161.03247 217.304397  C 158.649178 223.058172 156.779265 229.011415 155.444582 235.094558  L 138.62536 231.404305  C 140.177559 224.329784 142.352215 217.406333 145.123914 210.714857  C 147.895614 204.023382 151.25352 197.590049 155.158392 191.490037  z " clip-path="url(#p2efe7151e5)" style="fill: #003366; stroke: #000000; stroke-width: 0.7; stroke-linejoin: miter"/>
   </g>
   <g id="patch_60">
    <path d="M 258.648125 257.738125  C 258.648125 257.738125 258.648125 257.738125 258.648125 257.738125  C 258.648125 257.738125 258.648125 257.738125 258.648125 257.738125  L 249.585691 251.42196  C 249.957986 250.887792 250.376781 250.387584 250.837182 249.927182  C 251.297584 249.466781 251.797792 249.047986 252.33196 248.675691  z " clip-path="url(#p2efe7151e5)" style="fill: #cce5ff; stroke: #000000; stroke-width: 0.7; stroke-linejoin: miter"/>
   </g>
   <g id="patch_61">
    <path d="M 252.33196 248.675691  C 251.797792 249.047986 251.297584 249.466781 250.837182 249.927182  C 250.376781 250.387584 249.957986 250.887792 249.585691 251.42196  L 210.712618 224.328937  C 212.681861 221.503467 214.897067 218.857631 217.332349 216.422349  C 219.767631 213.987067 222.413467 211.771861 225.238937 209.802618  z " clip-path="url(#p2efe7151e5)" style="fill: #66b3ff; stroke: #000000; stroke-width: 0.7; stroke-linejoin: miter"/>
   </g>
   <g id="patch_62">
    <path d="M 225.238937 209.802618  C 222.413467 211.771861 219.767631 213.987067 217.332349 216.422349  C 214.897067 218.857631 212.681861 221.503467 210.712618 224.328937  L 193.513633 212.341912  C 196.189429 208.50268 199.199438 204.907533 202.508486 201.598486  C 205.817533 198.289438 209.41268 195.279429 213.251912 192.603633  z " clip-path="url(#p2efe7151e5)" style="fill: #0073e6; stroke: #000000; stroke-width: 0.7; stroke-linejoin: miter"/>
   </g>
   <g id="patch_63">
    <path d="M 213.251912 192.603633  C 209.41268 195.279429 205.817533 198.289438 202.508486 201.598486  C 199.199438 204.907533 196.189429 208.50268 193.513633 212.341912  L 190.735983 210.405998  C 193.525888 206.403042 196.664258 202.654581 200.11442 199.20442  C 203.564581 195.754258 207.313042 192.615888 211.315998 189.825983  z " clip-path="url(#p2efe7151e5)" style="fill: #003366; stroke: #000000; stroke-width: 0.7; stroke-linejoin: miter"/>
   </g>
   <g id="patch_64">
    <path d="M 258.648125 257.738125  C 258.648125 257.738125 258.648125 257.738125 258.648125 257.738125  C 258.648125 257.738125 258.648125 257.738125 258.648125 257.738125  L 256.56462 254.483369  C 256.756465 254.36056 256.958794 254.254954 257.169241 254.167784  C 257.379688 254.080614 257.597431 254.012221 257.819925 253.963404  z " clip-path="url(#p2efe7151e5)" style="fill: #cce5ff; stroke: #000000; stroke-width: 0.7; stroke-linejoin: miter"/>
   </g>
   <g id="patch_65">
    <path d="M 257.819925 253.963404  C 257.597431 254.012221 257.379688 254.080614 257.169241 254.167784  C 256.958794 254.254954 256.756465 254.36056 256.56462 254.483369  L 252.111819 247.527407  C 252.713671 247.142136 253.34841 246.810832 254.008618 246.537364  C 254.668826 246.263897 255.351922 246.049337 256.049923 245.896191  z " clip-path="url(#p2efe7151e5)" style="fill: #66b3ff; stroke: #000000; stroke-width: 0.7; stroke-linejoin: miter"/>
   </g>
   <g id="patch_66">
    <path d="M 256.049923 245.896191  C 255.351922 246.049337 254.668826 246.263897 254.008618 246.537364  C 253.34841 246.810832 252.713671 247.142136 252.111819 247.527407  L 251.337419 246.317674  C 252.010576 245.886758 252.720517 245.516202 253.458944 245.210335  C 254.197372 244.904468 254.961399 244.664488 255.742097 244.493197  z " clip-path="url(#p2efe7151e5)" style="fill: #0073e6; stroke: #000000; stroke-width: 0.7; stroke-linejoin: miter"/>
   </g>
   <g id="patch_67">
    <path d="M 255.742097 244.493197  C 254.961399 244.664488 254.197372 244.904468 253.458944 245.210335  C 252.720517 245.516202 252.010576 245.886758 251.337419 246.317674  L 251.1346 246.00084  C 251.826433 245.557969 252.556069 245.177132 253.314982 244.86278  C 254.073896 244.548427 254.859119 244.301789 255.661475 244.125746  z " clip-path="url(#p2efe7151e5)" style="fill: #003366; stroke: #000000; stroke-width: 0.7; stroke-linejoin: miter"/>
   </g>
   <g id="text_9">
    <g id="patch_68">
     <path d="M 276.653015 226.375558  L 307.063172 226.375558  Q 311.563172 226.375558 311.563172 221.875558  L 311.563172 208.766964  Q 311.563172 204.266964 307.063172 204.266964  L 276.653015 204.266964  Q 272.153015 204.266964 272.153015 208.766964  L 272.153015 221.875558  Q 272.153015 226.375558 276.653015 226.375558  z " style="fill: #ffffff; opacity: 0.7; stroke: #000000; stroke-linejoin: miter"/>
    </g>
    <!-- 6.1% -->
    <g transform="translate(276.653015 219.334933) scale(0.15 -0.15)">
     <defs fill="#000000">
      <path id="SFProDisplay-Regular-36" d="M 1997 -78  Q 1491 -78 1103 186  Q 716 450 506 938  Q 284 1450 284 2178  Q 284 3319 745 3953  Q 1206 4588 2034 4588  Q 2609 4588 3015 4269  Q 3422 3950 3531 3419  L 2959 3419  Q 2869 3725 2616 3908  Q 2363 4091 2028 4091  Q 1463 4091 1153 3606  Q 844 3122 828 2222  L 838 2222  Q 991 2553 1334 2753  Q 1678 2953 2097 2953  Q 2741 2953 3167 2528  Q 3594 2103 3594 1463  Q 3594 794 3142 358  Q 2691 -78 1997 -78  z M 1261 723  Q 1559 422 1990 422  Q 2422 422 2722 719  Q 3022 1016 3022 1444  Q 3022 1888 2734 2173  Q 2447 2459 2000 2459  Q 1553 2459 1258 2175  Q 963 1891 963 1459  Q 963 1025 1261 723  z " transform="scale(0.015625)" fill="#000000"/>
      <path id="SFProDisplay-Regular-2e" d="M 1066 72  Q 963 -31 813 -31  Q 663 -31 559 72  Q 456 175 456 325  Q 456 475 559 578  Q 663 681 813 681  Q 963 681 1066 578  Q 1169 475 1169 325  Q 1169 175 1066 72  z " transform="scale(0.015625)" fill="#000000"/>
      <path id="SFProDisplay-Regular-31" d="M 1516 0  L 1516 3913  L 1503 3913  L 309 3053  L 309 3647  L 1509 4509  L 2059 4509  L 2059 0  L 1516 0  z " transform="scale(0.015625)" fill="#000000"/>
      <path id="SFProDisplay-Regular-25" d="M 1790 4259  Q 2050 3953 2050 3443  Q 2050 2934 1790 2628  Q 1531 2322 1103 2322  Q 675 2322 415 2628  Q 156 2934 156 3443  Q 156 3953 415 4259  Q 675 4566 1103 4566  Q 1531 4566 1790 4259  z M 776 2901  Q 897 2703 1103 2703  Q 1309 2703 1429 2901  Q 1550 3100 1550 3444  Q 1550 3788 1429 3986  Q 1309 4184 1103 4184  Q 897 4184 776 3986  Q 656 3788 656 3444  Q 656 3100 776 2901  z M 966 0  L 422 0  L 2163 2378  L 3722 4509  L 4259 4509  L 2566 2191  L 966 0  z M 4268 1890  Q 4528 1584 4528 1075  Q 4528 566 4268 259  Q 4009 -47 3581 -47  Q 3153 -47 2893 259  Q 2634 566 2634 1075  Q 2634 1584 2893 1890  Q 3153 2197 3581 2197  Q 4009 2197 4268 1890  z M 3254 532  Q 3375 334 3581 334  Q 3788 334 3908 532  Q 4028 731 4028 1075  Q 4028 1419 3908 1617  Q 3788 1816 3581 1816  Q 3375 1816 3254 1617  Q 3134 1419 3134 1075  Q 3134 731 3254 532  z " transform="scale(0.015625)" fill="#000000"/>
     </defs>
     <use xlink:href="#SFProDisplay-Regular-36" fill="#000000"/>
     <use xlink:href="#SFProDisplay-Regular-2e" transform="translate(59.863281 0)" fill="#000000"/>
     <use xlink:href="#SFProDisplay-Regular-31" transform="translate(85.253906 0)" fill="#000000"/>
     <use xlink:href="#SFProDisplay-Regular-25" transform="translate(129.589844 0)" fill="#000000"/>
    </g>
   </g>
   <g id="text_10">
    <g id="patch_69">
     <path d="M 294.657906 183.958695  L 333.456343 183.958695  Q 337.956343 183.958695 337.956343 179.458695  L 337.956343 166.350101  Q 337.956343 161.850101 333.456343 161.850101  L 294.657906 161.850101  Q 290.157906 161.850101 290.157906 166.350101  L 290.157906 179.458695  Q 290.157906 183.958695 294.657906 183.958695  z " style="fill: #ffffff; opacity: 0.7; stroke: #000000; stroke-linejoin: miter"/>
    </g>
    <!-- 12.3% -->
    <g transform="translate(294.657906 176.91807) scale(0.15 -0.15)">
     <defs fill="#000000">
      <path id="SFProDisplay-Regular-32" d="M 338 3209  Q 338 3800 763 4192  Q 1188 4584 1825 4584  Q 2428 4584 2847 4225  Q 3266 3866 3266 3347  Q 3266 2972 3059 2625  Q 2853 2278 2284 1691  L 1144 513  L 1144 500  L 3341 500  L 3341 0  L 366 0  L 366 388  L 1953 2059  Q 2406 2538 2554 2784  Q 2703 3031 2703 3313  Q 2703 3638 2442 3866  Q 2181 4094 1809 4094  Q 1413 4094 1147 3841  Q 881 3588 881 3209  L 881 3206  L 338 3206  L 338 3209  z " transform="scale(0.015625)" fill="#000000"/>
      <path id="SFProDisplay-Regular-33" d="M 1284 2081  L 1284 2556  L 1825 2556  Q 2213 2556 2459 2779  Q 2706 3003 2706 3347  Q 2706 3691 2478 3894  Q 2250 4097 1831 4097  Q 1444 4097 1200 3890  Q 956 3684 919 3328  L 378 3328  Q 425 3903 823 4243  Q 1222 4584 1856 4584  Q 2466 4584 2869 4256  Q 3272 3928 3272 3422  Q 3272 3000 3022 2712  Q 2772 2425 2347 2350  L 2347 2338  Q 2859 2306 3162 2011  Q 3466 1716 3466 1241  Q 3466 863 3253 559  Q 3041 256 2678 90  Q 2316 -75 1875 -75  Q 1175 -75 747 275  Q 319 625 288 1194  L 828 1194  Q 866 841 1144 627  Q 1422 413 1869 413  Q 2316 413 2605 641  Q 2894 869 2894 1222  Q 2894 1619 2614 1850  Q 2334 2081 1850 2081  L 1284 2081  z " transform="scale(0.015625)" fill="#000000"/>
     </defs>
     <use xlink:href="#SFProDisplay-Regular-31" fill="#000000"/>
     <use xlink:href="#SFProDisplay-Regular-32" transform="translate(44.335938 0)" fill="#000000"/>
     <use xlink:href="#SFProDisplay-Regular-2e" transform="translate(100.927734 0)" fill="#000000"/>
     <use xlink:href="#SFProDisplay-Regular-33" transform="translate(126.318359 0)" fill="#000000"/>
     <use xlink:href="#SFProDisplay-Regular-25" transform="translate(185.498047 0)" fill="#000000"/>
    </g>
   </g>
   <g id="text_11">
    <g id="patch_70">
     <path d="M 312.662796 141.541831  L 352.154984 141.541831  Q 356.654984 141.541831 356.654984 137.041831  L 356.654984 123.933237  Q 356.654984 119.433237 352.154984 119.433237  L 312.662796 119.433237  Q 308.162796 119.433237 308.162796 123.933237  L 308.162796 137.041831  Q 308.162796 141.541831 312.662796 141.541831  z " style="fill: #ffffff; opacity: 0.7; stroke: #000000; stroke-linejoin: miter"/>
    </g>
    <!-- 18.4% -->
    <g transform="translate(312.662796 134.501206) scale(0.15 -0.15)">
     <defs fill="#000000">
      <path id="SFProDisplay-Regular-38" d="M 1916 -75  Q 1200 -75 740 289  Q 281 653 281 1219  Q 281 1641 547 1959  Q 813 2278 1250 2378  L 1250 2391  Q 884 2503 671 2773  Q 459 3044 459 3400  Q 459 3909 873 4246  Q 1288 4584 1916 4584  Q 2547 4584 2958 4248  Q 3369 3913 3369 3397  Q 3369 3044 3159 2775  Q 2950 2506 2581 2391  L 2581 2378  Q 3019 2275 3286 1956  Q 3553 1638 3553 1219  Q 3553 653 3093 289  Q 2634 -75 1916 -75  z M 1916 416  Q 2381 416 2679 653  Q 2978 891 2978 1259  Q 2978 1631 2679 1868  Q 2381 2106 1915 2106  Q 1450 2106 1151 1867  Q 853 1628 853 1259  Q 853 891 1153 653  Q 1453 416 1916 416  z M 1916 2600  Q 2309 2600 2561 2809  Q 2813 3019 2813 3347  Q 2813 3678 2563 3889  Q 2313 4100 1916 4100  Q 1519 4100 1269 3889  Q 1019 3678 1019 3347  Q 1019 3019 1269 2809  Q 1519 2600 1916 2600  z " transform="scale(0.015625)" fill="#000000"/>
      <path id="SFProDisplay-Regular-34" d="M 2509 0  L 2509 938  L 244 938  L 244 1447  Q 534 1988 982 2681  Q 1431 3375 2222 4509  L 3053 4509  L 3053 1431  L 3691 1431  L 3691 938  L 3053 938  L 3053 0  L 2509 0  z M 800 1444  L 800 1431  L 2509 1431  L 2509 4041  L 2500 4041  Q 1316 2350 800 1444  z " transform="scale(0.015625)" fill="#000000"/>
     </defs>
     <use xlink:href="#SFProDisplay-Regular-31" fill="#000000"/>
     <use xlink:href="#SFProDisplay-Regular-38" transform="translate(44.335938 0)" fill="#000000"/>
     <use xlink:href="#SFProDisplay-Regular-2e" transform="translate(104.248047 0)" fill="#000000"/>
     <use xlink:href="#SFProDisplay-Regular-34" transform="translate(129.638672 0)" fill="#000000"/>
     <use xlink:href="#SFProDisplay-Regular-25" transform="translate(190.136719 0)" fill="#000000"/>
    </g>
   </g>
   <g id="text_12">
    <g id="patch_71">
     <path d="M 330.667687 99.124967  L 371.990343 99.124967  Q 376.490343 99.124967 376.490343 94.624967  L 376.490343 81.516374  Q 376.490343 77.016374 371.990343 77.016374  L 330.667687 77.016374  Q 326.167687 77.016374 326.167687 81.516374  L 326.167687 94.624967  Q 326.167687 99.124967 330.667687 99.124967  z " style="fill: #ffffff; opacity: 0.7; stroke: #000000; stroke-linejoin: miter"/>
    </g>
    <!-- 24.6% -->
    <g transform="translate(330.667687 92.084342) scale(0.15 -0.15)">
     <use xlink:href="#SFProDisplay-Regular-32" fill="#000000"/>
     <use xlink:href="#SFProDisplay-Regular-34" transform="translate(56.591797 0)" fill="#000000"/>
     <use xlink:href="#SFProDisplay-Regular-2e" transform="translate(117.089844 0)" fill="#000000"/>
     <use xlink:href="#SFProDisplay-Regular-36" transform="translate(142.480469 0)" fill="#000000"/>
     <use xlink:href="#SFProDisplay-Regular-25" transform="translate(202.34375 0)" fill="#000000"/>
    </g>
   </g>
   <g id="text_13">
    <g id="patch_72">
     <path d="M 348.672577 56.708104  L 389.629608 56.708104  Q 394.129608 56.708104 394.129608 52.208104  L 394.129608 39.09951  Q 394.129608 34.59951 389.629608 34.59951  L 348.672577 34.59951  Q 344.172577 34.59951 344.172577 39.09951  L 344.172577 52.208104  Q 344.172577 56.708104 348.672577 56.708104  z " style="fill: #ffffff; opacity: 0.7; stroke: #000000; stroke-linejoin: miter"/>
    </g>
    <!-- 30.7% -->
    <g transform="translate(348.672577 49.667479) scale(0.15 -0.15)">
     <defs fill="#000000">
      <path id="SFProDisplay-Regular-30" d="M 1944 -75  Q 1159 -75 720 551  Q 281 1178 281 2256  Q 281 3325 723 3954  Q 1166 4584 1944 4584  Q 2722 4584 3161 3957  Q 3600 3331 3600 2259  Q 3600 1181 3162 553  Q 2725 -75 1944 -75  z M 1134 909  Q 1422 416 1944 416  Q 2466 416 2750 908  Q 3034 1400 3034 2256  Q 3034 3100 2746 3595  Q 2459 4091 1943 4091  Q 1428 4091 1137 3594  Q 847 3097 847 2259  Q 847 1403 1134 909  z " transform="scale(0.015625)" fill="#000000"/>
      <path id="SFProDisplay-Regular-37" d="M 625 0  L 2666 3997  L 2666 4009  L 238 4009  L 238 4509  L 3222 4509  L 3222 3988  L 1216 0  L 625 0  z " transform="scale(0.015625)" fill="#000000"/>
     </defs>
     <use xlink:href="#SFProDisplay-Regular-33" fill="#000000"/>
     <use xlink:href="#SFProDisplay-Regular-30" transform="translate(59.179688 0)" fill="#000000"/>
     <use xlink:href="#SFProDisplay-Regular-2e" transform="translate(119.824219 0)" fill="#000000"/>
     <use xlink:href="#SFProDisplay-Regular-37" transform="translate(145.214844 0)" fill="#000000"/>
     <use xlink:href="#SFProDisplay-Regular-25" transform="translate(199.902344 0)" fill="#000000"/>
    </g>
   </g>
  </g>
  <g id="legend_1">
   <g id="text_14">
    <!-- Wind Speed (m/s) -->
    <g transform="translate(469.248125 427.2225) scale(0.15 -0.15)">
     <defs fill="#000000">
      <path id="SFProDisplay-Regular-57" d="M 2941 3578  L 1900 0  L 1369 0  L 141 4509  L 728 4509  L 1631 828  L 1656 828  L 2672 4509  L 3241 4509  L 4256 828  L 4281 828  L 5184 4509  L 5772 4509  L 4544 0  L 4013 0  L 2972 3578  L 2941 3578  z " transform="scale(0.015625)" fill="#000000"/>
      <path id="SFProDisplay-Regular-69" d="M 381 0  L 381 3250  L 925 3250  L 925 0  L 381 0  z M 653 3797  Q 516 3797 416 3897  Q 316 3997 316 4134  Q 316 4275 416 4373  Q 516 4472 653 4472  Q 794 4472 894 4373  Q 994 4275 994 4134  Q 994 3997 894 3897  Q 794 3797 653 3797  z " transform="scale(0.015625)" fill="#000000"/>
      <path id="SFProDisplay-Regular-6e" d="M 353 0  L 353 3250  L 866 3250  L 866 2731  L 878 2731  Q 1019 3003 1281 3154  Q 1544 3306 1909 3306  Q 2441 3306 2737 2986  Q 3034 2666 3034 2109  L 3034 0  L 2491 0  L 2491 2013  Q 2491 2409 2303 2617  Q 2116 2825 1744 2825  Q 1359 2825 1128 2575  Q 897 2325 897 1913  L 897 0  L 353 0  z " transform="scale(0.015625)" fill="#000000"/>
      <path id="SFProDisplay-Regular-64" d="M 1584 -56  Q 959 -56 576 403  Q 194 863 194 1625  Q 194 2384 575 2845  Q 956 3306 1572 3306  Q 1916 3306 2187 3150  Q 2459 2994 2606 2722  L 2619 2722  L 2619 4509  L 3163 4509  L 3163 0  L 2644 0  L 2644 550  L 2634 550  Q 2475 266 2203 105  Q 1931 -56 1584 -56  z M 1688 2828  Q 1256 2828 1003 2501  Q 750 2175 750 1625  Q 750 1072 1003 747  Q 1256 422 1688 422  Q 2109 422 2365 751  Q 2622 1081 2622 1625  Q 2622 2169 2364 2498  Q 2106 2828 1688 2828  z " transform="scale(0.015625)" fill="#000000"/>
      <path id="SFProDisplay-Regular-20" transform="scale(0.015625)" fill="#000000"/>
      <path id="SFProDisplay-Regular-53" d="M 222 1241  L 788 1241  Q 828 875 1145 653  Q 1463 431 1947 431  Q 2403 431 2701 648  Q 3000 866 3000 1197  Q 3000 1481 2792 1665  Q 2584 1850 2128 1969  L 1550 2119  Q 925 2278 637 2564  Q 350 2850 350 3309  Q 350 3872 795 4228  Q 1241 4584 1944 4584  Q 2616 4584 3056 4223  Q 3497 3863 3516 3297  L 2953 3297  Q 2916 3659 2641 3868  Q 2366 4078 1925 4078  Q 1488 4078 1211 3872  Q 934 3666 934 3334  Q 934 3078 1136 2914  Q 1338 2750 1797 2631  L 2269 2506  Q 2969 2331 3275 2040  Q 3581 1750 3581 1266  Q 3581 647 3126 286  Q 2672 -75 1894 -75  Q 1175 -75 719 284  Q 263 644 222 1241  z " transform="scale(0.015625)" fill="#000000"/>
      <path id="SFProDisplay-Regular-70" d="M 1931 3306  Q 2556 3306 2939 2847  Q 3322 2388 3322 1625  Q 3322 866 2940 405  Q 2559 -56 1944 -56  Q 1600 -56 1328 100  Q 1056 256 909 528  L 897 528  L 897 -1084  L 353 -1084  L 353 3250  L 869 3250  L 869 2700  L 881 2700  Q 1034 2981 1309 3143  Q 1584 3306 1931 3306  z M 1825 422  Q 2259 422 2512 747  Q 2766 1072 2766 1625  Q 2766 2178 2512 2503  Q 2259 2828 1825 2828  Q 1406 2828 1150 2497  Q 894 2166 894 1625  Q 894 1081 1150 751  Q 1406 422 1825 422  z " transform="scale(0.015625)" fill="#000000"/>
      <path id="SFProDisplay-Regular-65" d="M 1656 2834  Q 1278 2834 1029 2573  Q 781 2313 756 1903  L 2522 1903  Q 2513 2316 2275 2575  Q 2038 2834 1656 2834  z M 2509 931  L 3044 931  Q 2972 500 2595 222  Q 2219 -56 1691 -56  Q 994 -56 594 394  Q 194 844 194 1613  Q 194 2375 595 2840  Q 997 3306 1666 3306  Q 2322 3306 2703 2865  Q 3084 2425 3084 1684  L 3084 1478  L 753 1478  L 753 1447  Q 753 978 1009 697  Q 1266 416 1703 416  Q 2009 416 2225 556  Q 2441 697 2509 931  z " transform="scale(0.015625)" fill="#000000"/>
      <path id="SFProDisplay-Regular-28" d="M 1481 -959  Q 594 169 594 1775  Q 594 3381 1481 4509  L 1938 4509  Q 1603 4122 1375 3331  Q 1147 2541 1147 1775  Q 1147 1009 1375 218  Q 1603 -572 1938 -959  L 1481 -959  z " transform="scale(0.015625)" fill="#000000"/>
      <path id="SFProDisplay-Regular-6d" d="M 353 0  L 353 3250  L 866 3250  L 866 2731  L 878 2731  Q 997 2997 1237 3151  Q 1478 3306 1800 3306  Q 2131 3306 2368 3145  Q 2606 2984 2713 2688  L 2725 2688  Q 2859 2978 3129 3142  Q 3400 3306 3744 3306  Q 4225 3306 4514 3017  Q 4803 2728 4803 2244  L 4803 0  L 4259 0  L 4259 2119  Q 4259 2453 4082 2639  Q 3906 2825 3584 2825  Q 3263 2825 3056 2611  Q 2850 2397 2850 2066  L 2850 0  L 2306 0  L 2306 2178  Q 2306 2472 2125 2648  Q 1944 2825 1641 2825  Q 1319 2825 1108 2600  Q 897 2375 897 2038  L 897 0  L 353 0  z " transform="scale(0.015625)" fill="#000000"/>
      <path id="SFProDisplay-Regular-2f" d="M 466 -959  L 0 -959  L 1597 4509  L 2063 4509  L 466 -959  z " transform="scale(0.015625)" fill="#000000"/>
      <path id="SFProDisplay-Regular-73" d="M 297 2353  Q 297 2772 636 3039  Q 975 3306 1509 3306  Q 2013 3306 2347 3037  Q 2681 2769 2700 2356  L 2181 2356  Q 2153 2594 1970 2728  Q 1788 2863 1491 2863  Q 1194 2863 1012 2730  Q 831 2597 831 2381  Q 831 2050 1372 1913  L 1875 1791  Q 2366 1666 2567 1467  Q 2769 1269 2769 909  Q 2769 484 2406 214  Q 2044 -56 1475 -56  Q 944 -56 598 208  Q 253 472 209 906  L 753 906  Q 844 388 1509 388  Q 1838 388 2030 517  Q 2222 647 2222 869  Q 2222 1044 2108 1147  Q 1994 1250 1722 1322  L 1150 1469  Q 297 1688 297 2353  z " transform="scale(0.015625)" fill="#000000"/>
      <path id="SFProDisplay-Regular-29" d="M 1392 2720  Q 1469 2284 1469 1775  Q 1469 1266 1392 830  Q 1316 394 1175 59  Q 1034 -275 898 -501  Q 763 -728 581 -959  L 125 -959  Q 241 -825 367 -589  Q 494 -353 622 -11  Q 750 331 833 803  Q 916 1275 916 1775  Q 916 2275 833 2748  Q 750 3222 620 3562  Q 491 3903 366 4139  Q 241 4375 125 4509  L 581 4509  Q 763 4278 898 4051  Q 1034 3825 1175 3490  Q 1316 3156 1392 2720  z " transform="scale(0.015625)" fill="#000000"/>
     </defs>
     <use xlink:href="#SFProDisplay-Regular-57" fill="#000000"/>
     <use xlink:href="#SFProDisplay-Regular-69" transform="translate(92.382812 0)" fill="#000000"/>
     <use xlink:href="#SFProDisplay-Regular-6e" transform="translate(112.792969 0)" fill="#000000"/>
     <use xlink:href="#SFProDisplay-Regular-64" transform="translate(165.478516 0)" fill="#000000"/>
     <use xlink:href="#SFProDisplay-Regular-20" transform="translate(220.849609 0)" fill="#000000"/>
     <use xlink:href="#SFProDisplay-Regular-53" transform="translate(241.357422 0)" fill="#000000"/>
     <use xlink:href="#SFProDisplay-Regular-70" transform="translate(300.732422 0)" fill="#000000"/>
     <use xlink:href="#SFProDisplay-Regular-65" transform="translate(355.664062 0)" fill="#000000"/>
     <use xlink:href="#SFProDisplay-Regular-65" transform="translate(406.884766 0)" fill="#000000"/>
     <use xlink:href="#SFProDisplay-Regular-64" transform="translate(458.105469 0)" fill="#000000"/>
     <use xlink:href="#SFProDisplay-Regular-20" transform="translate(513.476562 0)" fill="#000000"/>
     <use xlink:href="#SFProDisplay-Regular-28" transform="translate(533.984375 0)" fill="#000000"/>
     <use xlink:href="#SFProDisplay-Regular-6d" transform="translate(566.210938 0)" fill="#000000"/>
     <use xlink:href="#SFProDisplay-Regular-2f" transform="translate(646.533203 0)" fill="#000000"/>
     <use xlink:href="#SFProDisplay-Regular-73" transform="translate(678.759766 0)" fill="#000000"/>
     <use xlink:href="#SFProDisplay-Regular-29" transform="translate(725.292969 0)" fill="#000000"/>
    </g>
   </g>
   <g id="patch_73">
    <path d="M 484.185234 445.331094  L 504.185234 445.331094  L 504.185234 438.331094  L 484.185234 438.331094  z " style="fill: #003366; stroke: #000000; stroke-linejoin: miter"/>
   </g>
   <g id="text_15">
    <!-- &gt; 3.0 -->
    <g transform="translate(512.185234 445.331094) scale(0.15 -0.15)">
     <defs fill="#000000">
      <path id="SFProDisplay-Regular-3e" d="M 563 3066  L 563 3647  L 3309 2003  L 3309 1559  L 563 25  L 563 606  L 2772 1788  L 2772 1816  L 563 3066  z " transform="scale(0.015625)" fill="#000000"/>
     </defs>
     <use xlink:href="#SFProDisplay-Regular-3e" fill="#000000"/>
     <use xlink:href="#SFProDisplay-Regular-20" transform="translate(60.498047 0)" fill="#000000"/>
     <use xlink:href="#SFProDisplay-Regular-33" transform="translate(81.005859 0)" fill="#000000"/>
     <use xlink:href="#SFProDisplay-Regular-2e" transform="translate(140.185547 0)" fill="#000000"/>
     <use xlink:href="#SFProDisplay-Regular-30" transform="translate(165.576172 0)" fill="#000000"/>
    </g>
   </g>
   <g id="patch_74">
    <path d="M 484.185234 463.439687  L 504.185234 463.439687  L 504.185234 456.439687  L 484.185234 456.439687  z " style="fill: #0073e6; stroke: #000000; stroke-linejoin: miter"/>
   </g>
   <g id="text_16">
    <!-- 2.0 - 3.0 -->
    <g transform="translate(512.185234 463.439687) scale(0.15 -0.15)">
     <defs fill="#000000">
      <path id="SFProDisplay-Regular-2d" d="M 2397 1575  L 347 1575  L 347 2081  L 2397 2081  L 2397 1575  z " transform="scale(0.015625)" fill="#000000"/>
     </defs>
     <use xlink:href="#SFProDisplay-Regular-32" fill="#000000"/>
     <use xlink:href="#SFProDisplay-Regular-2e" transform="translate(56.591797 0)" fill="#000000"/>
     <use xlink:href="#SFProDisplay-Regular-30" transform="translate(81.982422 0)" fill="#000000"/>
     <use xlink:href="#SFProDisplay-Regular-20" transform="translate(142.626953 0)" fill="#000000"/>
     <use xlink:href="#SFProDisplay-Regular-2d" transform="translate(163.134766 0)" fill="#000000"/>
     <use xlink:href="#SFProDisplay-Regular-20" transform="translate(206.005859 0)" fill="#000000"/>
     <use xlink:href="#SFProDisplay-Regular-33" transform="translate(226.513672 0)" fill="#000000"/>
     <use xlink:href="#SFProDisplay-Regular-2e" transform="translate(285.693359 0)" fill="#000000"/>
     <use xlink:href="#SFProDisplay-Regular-30" transform="translate(311.083984 0)" fill="#000000"/>
    </g>
   </g>
   <g id="patch_75">
    <path d="M 484.185234 481.548281  L 504.185234 481.548281  L 504.185234 474.548281  L 484.185234 474.548281  z " style="fill: #66b3ff; stroke: #000000; stroke-linejoin: miter"/>
   </g>
   <g id="text_17">
    <!-- 1.0 - 2.0 -->
    <g transform="translate(512.185234 481.548281) scale(0.15 -0.15)">
     <use xlink:href="#SFProDisplay-Regular-31" fill="#000000"/>
     <use xlink:href="#SFProDisplay-Regular-2e" transform="translate(44.335938 0)" fill="#000000"/>
     <use xlink:href="#SFProDisplay-Regular-30" transform="translate(69.726562 0)" fill="#000000"/>
     <use xlink:href="#SFProDisplay-Regular-20" transform="translate(130.371094 0)" fill="#000000"/>
     <use xlink:href="#SFProDisplay-Regular-2d" transform="translate(150.878906 0)" fill="#000000"/>
     <use xlink:href="#SFProDisplay-Regular-20" transform="translate(193.75 0)" fill="#000000"/>
     <use xlink:href="#SFProDisplay-Regular-32" transform="translate(214.257812 0)" fill="#000000"/>
     <use xlink:href="#SFProDisplay-Regular-2e" transform="translate(270.849609 0)" fill="#000000"/>
     <use xlink:href="#SFProDisplay-Regular-30" transform="translate(296.240234 0)" fill="#000000"/>
    </g>
   </g>
   <g id="patch_76">
    <path d="M 484.185234 499.656875  L 504.185234 499.656875  L 504.185234 492.656875  L 484.185234 492.656875  z " style="fill: #cce5ff; stroke: #000000; stroke-linejoin: miter"/>
   </g>
   <g id="text_18">
    <!-- 0.0 - 1.0 -->
    <g transform="translate(512.185234 499.656875) scale(0.15 -0.15)">
     <use xlink:href="#SFProDisplay-Regular-30" fill="#000000"/>
     <use xlink:href="#SFProDisplay-Regular-2e" transform="translate(60.644531 0)" fill="#000000"/>
     <use xlink:href="#SFProDisplay-Regular-30" transform="translate(86.035156 0)" fill="#000000"/>
     <use xlink:href="#SFProDisplay-Regular-20" transform="translate(146.679688 0)" fill="#000000"/>
     <use xlink:href="#SFProDisplay-Regular-2d" transform="translate(167.1875 0)" fill="#000000"/>
     <use xlink:href="#SFProDisplay-Regular-20" transform="translate(210.058594 0)" fill="#000000"/>
     <use xlink:href="#SFProDisplay-Regular-31" transform="translate(230.566406 0)" fill="#000000"/>
     <use xlink:href="#SFProDisplay-Regular-2e" transform="translate(274.902344 0)" fill="#000000"/>
     <use xlink:href="#SFProDisplay-Regular-30" transform="translate(300.292969 0)" fill="#000000"/>
    </g>
   </g>
  </g>
 </g>
 <defs fill="#000000">
  <clipPath id="p2efe7151e5" fill="#000000">
   <path d="M 489.048125 257.738125  C 489.048125 227.482274 483.088382 197.520623 471.509969 169.567862  C 459.931556 141.615101 442.959645 116.21484 421.565527 94.820723  C 400.17141 73.426605 374.771149 56.454694 346.818388 44.876281  C 318.865627 33.297868 288.903976 27.338125 258.648125 27.338125  C 228.392274 27.338125 198.430623 33.297868 170.477862 44.876281  C 142.525101 56.454694 117.12484 73.426605 95.730723 94.820723  C 74.336605 116.21484 57.364694 141.615101 45.786281 169.567862  C 34.207868 197.520623 28.248125 227.482274 28.248125 257.738125  C 28.248125 287.993976 34.207868 317.955627 45.786281 345.908388  C 57.364694 373.861149 74.336605 399.26141 95.730723 420.655527  C 117.12484 442.049645 142.525101 459.021556 170.477862 470.599969  C 198.430623 482.178382 228.392274 488.138125 258.648125 488.138125  C 288.903976 488.138125 318.865627 482.178382 346.818388 470.599969  C 374.771149 459.021556 400.17141 442.049645 421.565527 420.655527  C 442.959645 399.26141 459.931556 373.861149 471.509969 345.908388  C 483.088382 317.955627 489.048125 287.993976 489.048125 257.738125  M 258.648125 257.738125  C 258.648125 257.738125 258.648125 257.738125 258.648125 257.738125  C 258.648125 257.738125 258.648125 257.738125 258.648125 257.738125  C 258.648125 257.738125 258.648125 257.738125 258.648125 257.738125  C 258.648125 257.738125 258.648125 257.738125 258.648125 257.738125  C 258.648125 257.738125 258.648125 257.738125 258.648125 257.738125  C 258.648125 257.738125 258.648125 257.738125 258.648125 257.738125  C 258.648125 257.738125 258.648125 257.738125 258.648125 257.738125  C 258.648125 257.738125 258.648125 257.738125 258.648125 257.738125  C 258.648125 257.738125 258.648125 257.738125 258.648125 257.738125  C 258.648125 257.738125 258.648125 257.738125 258.648125 257.738125  C 258.648125 257.738125 258.648125 257.738125 258.648125 257.738125  C 258.648125 257.738125 258.648125 257.738125 258.648125 257.738125  C 258.648125 257.738125 258.648125 257.738125 258.648125 257.738125  C 258.648125 257.738125 258.648125 257.738125 258.648125 257.738125  C 258.648125 257.738125 258.648125 257.738125 258.648125 257.738125  C 258.648125 257.738125 258.648125 257.738125 258.648125 257.738125  z " fill="#000000"/>
  </clipPath>
 </defs>
</svg>